<svg xmlns="http://www.w3.org/2000/svg" xmlns:xlink="http://www.w3.org/1999/xlink" width="500" zoomAndPan="magnify" viewBox="0 0 375 374.999991" height="500" preserveAspectRatio="xMidYMid meet" version="1.0"><defs><g/></defs><rect x="-37.5" width="450" fill="#ffffff" y="-37.499999" height="449.999989" fill-opacity="1"/><rect x="-37.5" width="450" fill="#000000" y="-37.499999" height="449.999989" fill-opacity="1"/><g fill="#ffffff" fill-opacity="1"><g transform="translate(62.005144, 168.440247)"><g><path d="M -0.875 -31.808594 L 13.011719 -13.582031 L 13.011719 0 L 20.988281 0 L 20.988281 -13.582031 L 35.140625 -31.808594 L 25.0625 -31.808594 L 17.175781 -20.460938 L 9.246094 -31.808594 Z M -0.875 -31.808594 "/></g></g></g><g fill="#ffffff" fill-opacity="1"><g transform="translate(101.957216, 168.440247)"><g><path d="M -0.875 0 L 7.710938 0 L 10.558594 -6.746094 L 24.582031 -6.746094 L 27.472656 0 L 36.324219 0 L 21.820312 -31.808594 L 14.195312 -31.808594 Z M 13.277344 -13.1875 L 17.4375 -23.003906 L 21.6875 -13.1875 Z M 13.277344 -13.1875 "/></g></g></g><g fill="#ffffff" fill-opacity="1"><g transform="translate(143.092011, 168.440247)"><g><path d="M 34.175781 -22.039062 C 34.175781 -28.699219 28.480469 -32.640625 18.316406 -32.640625 C 8.71875 -32.640625 2.980469 -28.042969 2.980469 -22.082031 C 2.980469 -16.695312 6.921875 -13.976562 15.027344 -13.144531 L 20.636719 -12.574219 C 24.929688 -12.136719 26.902344 -11.566406 26.902344 -9.113281 C 26.902344 -6.660156 24.359375 -5.214844 19.628906 -5.214844 C 13.496094 -5.214844 10.339844 -7.140625 10.382812 -10.996094 L 2.234375 -10.996094 C 2.234375 -3.066406 7.929688 0.832031 18.664062 0.832031 C 29.839844 0.832031 35.578125 -3.023438 35.578125 -9.988281 C 35.578125 -15.597656 31.722656 -18.445312 23.746094 -19.324219 L 17.832031 -19.9375 C 13.277344 -20.417969 11.390625 -20.769531 11.390625 -23.132812 C 11.390625 -25.367188 13.84375 -26.769531 18.445312 -26.769531 C 23.308594 -26.769531 25.894531 -25.195312 26.246094 -22.039062 Z M 34.175781 -22.039062 "/></g></g></g><g fill="#ffffff" fill-opacity="1"><g transform="translate(186.592271, 168.440247)"><g><path d="M 11.523438 -31.808594 L 3.550781 -31.808594 L 3.550781 0 L 11.523438 0 L 11.523438 -13.453125 L 26.816406 -13.453125 L 26.816406 0 L 34.789062 0 L 34.789062 -31.808594 L 26.816406 -31.808594 L 26.816406 -19.980469 L 11.523438 -19.980469 Z M 11.523438 -31.808594 "/></g></g></g><g fill="#ffffff" fill-opacity="1"><g transform="translate(230.618193, 168.440247)"><g><path d="M 11.523438 -31.808594 L 3.550781 -31.808594 L 3.550781 0 L 11.523438 0 L 11.523438 -13.453125 L 26.816406 -13.453125 L 26.816406 0 L 34.789062 0 L 34.789062 -31.808594 L 26.816406 -31.808594 L 26.816406 -19.980469 L 11.523438 -19.980469 Z M 11.523438 -31.808594 "/></g></g></g><g fill="#ffffff" fill-opacity="1"><g transform="translate(274.644115, 168.440247)"><g><path d="M 11.523438 -31.808594 L 3.550781 -31.808594 L 3.550781 0 L 11.523438 0 L 11.523438 -13.453125 L 26.816406 -13.453125 L 26.816406 0 L 34.789062 0 L 34.789062 -31.808594 L 26.816406 -31.808594 L 26.816406 -19.980469 L 11.523438 -19.980469 Z M 11.523438 -31.808594 "/></g></g></g><g fill="#ffffff" fill-opacity="1"><g transform="translate(97.993423, 211.940244)"><g><path d="M 0 -31.808594 L 0 -27.648438 L 12.136719 -27.648438 L 12.136719 0 L 16.648438 0 L 16.648438 -27.648438 L 28.785156 -27.648438 L 28.785156 -31.808594 Z M 0 -31.808594 "/></g></g></g><g fill="#ffffff" fill-opacity="1"><g transform="translate(132.469898, 211.940244)"><g><path d="M 0 0 L 4.777344 0 L 8.980469 -9.070312 L 25.238281 -9.070312 L 29.269531 0 L 33.957031 0 L 19.804688 -31.808594 L 15.117188 -31.808594 Z M 10.867188 -13.230469 L 17.308594 -26.769531 L 23.398438 -13.230469 Z M 10.867188 -13.230469 "/></g></g></g><g fill="#ffffff" fill-opacity="1"><g transform="translate(172.115336, 211.940244)"><g><path d="M 8.148438 -31.808594 L 3.636719 -31.808594 L 3.636719 0 L 27.601562 0 L 27.601562 -4.164062 L 8.148438 -4.164062 Z M 8.148438 -31.808594 "/></g></g></g><g fill="#ffffff" fill-opacity="1"><g transform="translate(206.022347, 211.940244)"><g><path d="M 8.148438 -31.808594 L 3.636719 -31.808594 L 3.636719 0 L 8.148438 0 L 8.148438 -10.558594 L 14.371094 -15.90625 L 27.253906 0 L 32.554688 0 L 17.394531 -18.578125 L 32.511719 -31.808594 L 26.726562 -31.808594 L 8.148438 -15.464844 Z M 8.148438 -31.808594 "/></g></g></g><g fill="#ffffff" fill-opacity="1"><g transform="translate(244.353643, 211.940244)"><g><path d="M 29.3125 -22.566406 C 29.3125 -29.003906 24.800781 -32.640625 16.648438 -32.640625 C 7.84375 -32.640625 3.242188 -29.003906 3.242188 -23.046875 C 3.242188 -18.226562 6.222656 -15.730469 12.445312 -14.632812 L 20.285156 -13.230469 C 24.054688 -12.574219 25.761719 -11.347656 25.761719 -8.71875 C 25.761719 -5.390625 22.695312 -3.328125 16.957031 -3.328125 C 10.382812 -3.328125 7.140625 -5.738281 6.964844 -10.734375 L 2.191406 -10.734375 C 2.191406 -3.109375 7.1875 0.832031 16.695312 0.832031 C 25.632812 0.832031 30.496094 -2.980469 30.496094 -9.113281 C 30.496094 -14.457031 27.296875 -16.472656 20.59375 -17.746094 L 13.625 -19.101562 C 9.769531 -19.847656 7.972656 -20.855469 7.972656 -23.441406 C 7.972656 -26.640625 10.777344 -28.480469 16.300781 -28.480469 C 21.820312 -28.480469 24.535156 -26.640625 24.84375 -22.566406 Z M 29.3125 -22.566406 "/></g></g></g><g fill="#ffffff" fill-opacity="1"><g transform="translate(68.070867, 239.359077)"><g><path d="M 4.03125 0 C 3.914062 0 3.859375 -0.0507812 3.859375 -0.15625 L 3.859375 -3.609375 L -0.09375 -8.484375 C -0.132812 -8.523438 -0.15625 -8.570312 -0.15625 -8.625 C -0.15625 -8.71875 -0.09375 -8.765625 0.03125 -8.765625 L 0.75 -8.765625 C 0.875 -8.765625 0.976562 -8.71875 1.0625 -8.625 L 3.34375 -5.8125 L 4.359375 -4.5625 L 4.421875 -4.5625 L 7.703125 -8.625 C 7.742188 -8.675781 7.785156 -8.710938 7.828125 -8.734375 C 7.878906 -8.753906 7.941406 -8.765625 8.015625 -8.765625 L 8.734375 -8.765625 C 8.859375 -8.765625 8.921875 -8.71875 8.921875 -8.625 C 8.921875 -8.59375 8.898438 -8.546875 8.859375 -8.484375 L 4.90625 -3.609375 L 4.90625 -0.15625 C 4.90625 -0.0507812 4.851562 0 4.75 0 Z M 4.03125 0 "/></g></g></g><g fill="#ffffff" fill-opacity="1"><g transform="translate(79.196704, 239.359077)"><g><path d="M 3.546875 0.03125 C 2.816406 0.03125 2.269531 -0.148438 1.90625 -0.515625 C 1.539062 -0.890625 1.359375 -1.441406 1.359375 -2.171875 L 1.359375 -6.59375 C 1.359375 -7.320312 1.539062 -7.867188 1.90625 -8.234375 C 2.269531 -8.609375 2.816406 -8.796875 3.546875 -8.796875 L 8.15625 -8.796875 C 8.894531 -8.796875 9.445312 -8.609375 9.8125 -8.234375 C 10.175781 -7.867188 10.359375 -7.320312 10.359375 -6.59375 L 10.359375 -2.171875 C 10.359375 -1.441406 10.175781 -0.890625 9.8125 -0.515625 C 9.445312 -0.148438 8.894531 0.03125 8.15625 0.03125 Z M 8.03125 -0.90625 C 8.476562 -0.90625 8.804688 -1.007812 9.015625 -1.21875 C 9.222656 -1.4375 9.328125 -1.765625 9.328125 -2.203125 L 9.328125 -6.5625 C 9.328125 -7 9.222656 -7.320312 9.015625 -7.53125 C 8.804688 -7.738281 8.476562 -7.84375 8.03125 -7.84375 L 3.671875 -7.84375 C 3.234375 -7.84375 2.910156 -7.738281 2.703125 -7.53125 C 2.492188 -7.320312 2.390625 -7 2.390625 -6.5625 L 2.390625 -2.203125 C 2.390625 -1.765625 2.492188 -1.4375 2.703125 -1.21875 C 2.910156 -1.007812 3.234375 -0.90625 3.671875 -0.90625 Z M 8.03125 -0.90625 "/></g></g></g><g fill="#ffffff" fill-opacity="1"><g transform="translate(93.275732, 239.359077)"><g><path d="M 3.640625 0.03125 C 2.910156 0.03125 2.359375 -0.148438 1.984375 -0.515625 C 1.617188 -0.890625 1.4375 -1.441406 1.4375 -2.171875 L 1.4375 -8.59375 C 1.4375 -8.707031 1.492188 -8.765625 1.609375 -8.765625 L 2.3125 -8.765625 C 2.425781 -8.765625 2.484375 -8.707031 2.484375 -8.59375 L 2.484375 -2.25 C 2.484375 -1.8125 2.585938 -1.488281 2.796875 -1.28125 C 3.003906 -1.070312 3.332031 -0.96875 3.78125 -0.96875 L 7.578125 -0.96875 C 8.023438 -0.96875 8.351562 -1.070312 8.5625 -1.28125 C 8.769531 -1.488281 8.875 -1.8125 8.875 -2.25 L 8.875 -8.59375 C 8.875 -8.707031 8.925781 -8.765625 9.03125 -8.765625 L 9.734375 -8.765625 C 9.847656 -8.765625 9.90625 -8.707031 9.90625 -8.59375 L 9.90625 -2.171875 C 9.90625 -1.441406 9.71875 -0.890625 9.34375 -0.515625 C 8.976562 -0.148438 8.429688 0.03125 7.703125 0.03125 Z M 3.640625 0.03125 "/></g></g></g><g fill="#ffffff" fill-opacity="1"><g transform="translate(106.991867, 239.359077)"><g><path d="M 8.796875 -8.765625 C 8.910156 -8.765625 8.96875 -8.707031 8.96875 -8.59375 L 8.96875 -7.9375 C 8.96875 -7.820312 8.910156 -7.765625 8.796875 -7.765625 L 5.125 -7.765625 L 5.125 -0.15625 C 5.125 -0.0507812 5.070312 0 4.96875 0 L 4.265625 0 C 4.148438 0 4.09375 -0.0507812 4.09375 -0.15625 L 4.09375 -7.765625 L 0.4375 -7.765625 C 0.332031 -7.765625 0.28125 -7.820312 0.28125 -7.9375 L 0.28125 -8.59375 C 0.28125 -8.707031 0.332031 -8.765625 0.4375 -8.765625 Z M 8.796875 -8.765625 "/></g></g></g><g fill="#ffffff" fill-opacity="1"><g transform="translate(118.593217, 239.359077)"><g><path d="M 3.640625 0.03125 C 2.910156 0.03125 2.359375 -0.148438 1.984375 -0.515625 C 1.617188 -0.890625 1.4375 -1.441406 1.4375 -2.171875 L 1.4375 -8.59375 C 1.4375 -8.707031 1.492188 -8.765625 1.609375 -8.765625 L 2.3125 -8.765625 C 2.425781 -8.765625 2.484375 -8.707031 2.484375 -8.59375 L 2.484375 -2.25 C 2.484375 -1.8125 2.585938 -1.488281 2.796875 -1.28125 C 3.003906 -1.070312 3.332031 -0.96875 3.78125 -0.96875 L 7.578125 -0.96875 C 8.023438 -0.96875 8.351562 -1.070312 8.5625 -1.28125 C 8.769531 -1.488281 8.875 -1.8125 8.875 -2.25 L 8.875 -8.59375 C 8.875 -8.707031 8.925781 -8.765625 9.03125 -8.765625 L 9.734375 -8.765625 C 9.847656 -8.765625 9.90625 -8.707031 9.90625 -8.59375 L 9.90625 -2.171875 C 9.90625 -1.441406 9.71875 -0.890625 9.34375 -0.515625 C 8.976562 -0.148438 8.429688 0.03125 7.703125 0.03125 Z M 3.640625 0.03125 "/></g></g></g><g fill="#ffffff" fill-opacity="1"><g transform="translate(132.309352, 239.359077)"><g><path d="M 8.015625 -4.875 C 8.617188 -4.875 9.066406 -4.722656 9.359375 -4.421875 C 9.648438 -4.128906 9.796875 -3.679688 9.796875 -3.078125 L 9.796875 -2.015625 C 9.796875 -1.316406 9.632812 -0.804688 9.3125 -0.484375 C 9 -0.160156 8.488281 0 7.78125 0 L 1.609375 0 C 1.492188 0 1.4375 -0.0507812 1.4375 -0.15625 L 1.4375 -8.59375 C 1.4375 -8.707031 1.492188 -8.765625 1.609375 -8.765625 L 6.734375 -8.765625 C 7.410156 -8.765625 7.898438 -8.617188 8.203125 -8.328125 C 8.515625 -8.035156 8.671875 -7.570312 8.671875 -6.9375 L 8.671875 -6.34375 C 8.671875 -5.925781 8.613281 -5.609375 8.5 -5.390625 C 8.382812 -5.171875 8.222656 -5.019531 8.015625 -4.9375 Z M 2.484375 -7.828125 L 2.484375 -4.96875 L 6.53125 -4.96875 C 6.914062 -4.96875 7.195312 -5.054688 7.375 -5.234375 C 7.550781 -5.410156 7.640625 -5.691406 7.640625 -6.078125 L 7.640625 -6.765625 C 7.640625 -7.128906 7.550781 -7.394531 7.375 -7.5625 C 7.207031 -7.738281 6.941406 -7.828125 6.578125 -7.828125 Z M 8.765625 -2.953125 C 8.765625 -3.328125 8.675781 -3.601562 8.5 -3.78125 C 8.320312 -3.957031 8.039062 -4.046875 7.65625 -4.046875 L 2.484375 -4.046875 L 2.484375 -0.921875 L 7.65625 -0.921875 C 8.039062 -0.921875 8.320312 -1.007812 8.5 -1.1875 C 8.675781 -1.363281 8.765625 -1.644531 8.765625 -2.03125 Z M 8.765625 -2.953125 "/></g></g></g><g fill="#ffffff" fill-opacity="1"><g transform="translate(145.41232, 239.359077)"><g><path d="M 8.703125 -0.921875 C 8.816406 -0.921875 8.875 -0.867188 8.875 -0.765625 L 8.875 -0.15625 C 8.875 -0.0507812 8.816406 0 8.703125 0 L 1.609375 0 C 1.492188 0 1.4375 -0.0507812 1.4375 -0.15625 L 1.4375 -8.59375 C 1.4375 -8.707031 1.492188 -8.765625 1.609375 -8.765625 L 8.578125 -8.765625 C 8.691406 -8.765625 8.75 -8.707031 8.75 -8.59375 L 8.75 -8.015625 C 8.75 -7.890625 8.691406 -7.828125 8.578125 -7.828125 L 2.484375 -7.828125 L 2.484375 -4.875 L 7.1875 -4.875 C 7.300781 -4.875 7.359375 -4.820312 7.359375 -4.71875 L 7.359375 -4.125 C 7.359375 -4.007812 7.300781 -3.953125 7.1875 -3.953125 L 2.484375 -3.953125 L 2.484375 -0.921875 Z M 8.703125 -0.921875 "/></g></g></g><g fill="#ffffff" fill-opacity="1"><g transform="translate(157.426607, 239.359077)"><g><path d="M 5.625 -3.796875 L 5.625 -3.734375 L 9.046875 -0.3125 C 9.109375 -0.25 9.140625 -0.191406 9.140625 -0.140625 C 9.140625 -0.0976562 9.117188 -0.0625 9.078125 -0.03125 C 9.046875 -0.0078125 9.003906 0 8.953125 0 L 8.15625 0 C 8.039062 0 7.9375 -0.046875 7.84375 -0.140625 L 4.171875 -3.796875 L 2.484375 -3.796875 L 2.484375 -0.15625 C 2.484375 -0.0507812 2.425781 0 2.3125 0 L 1.609375 0 C 1.492188 0 1.4375 -0.0507812 1.4375 -0.15625 L 1.4375 -8.59375 C 1.4375 -8.707031 1.492188 -8.765625 1.609375 -8.765625 L 7.171875 -8.765625 C 7.878906 -8.765625 8.390625 -8.601562 8.703125 -8.28125 C 9.023438 -7.96875 9.1875 -7.457031 9.1875 -6.75 L 9.1875 -5.8125 C 9.1875 -5.101562 9.023438 -4.585938 8.703125 -4.265625 C 8.390625 -3.953125 7.878906 -3.796875 7.171875 -3.796875 Z M 2.484375 -7.828125 L 2.484375 -4.703125 L 7.046875 -4.703125 C 7.429688 -4.703125 7.707031 -4.789062 7.875 -4.96875 C 8.050781 -5.15625 8.140625 -5.4375 8.140625 -5.8125 L 8.140625 -6.75 C 8.140625 -7.125 8.050781 -7.394531 7.875 -7.5625 C 7.707031 -7.738281 7.429688 -7.828125 7.046875 -7.828125 Z M 2.484375 -7.828125 "/></g></g></g><g fill="#ffffff" fill-opacity="1"><g transform="translate(170.10412, 239.359077)"><g/></g></g><g fill="#ffffff" fill-opacity="1"><g transform="translate(175.899189, 239.359077)"><g><path d="M 0.265625 1.25 C 0.128906 1.25 0.0625 1.195312 0.0625 1.09375 L 0.09375 0.96875 L 3.6875 -9.84375 C 3.71875 -9.914062 3.75 -9.960938 3.78125 -9.984375 C 3.8125 -10.003906 3.863281 -10.015625 3.9375 -10.015625 L 4.4375 -10.015625 C 4.519531 -10.015625 4.578125 -9.988281 4.609375 -9.9375 C 4.640625 -9.882812 4.644531 -9.816406 4.625 -9.734375 L 1 1.09375 C 0.976562 1.144531 0.945312 1.179688 0.90625 1.203125 C 0.875 1.234375 0.828125 1.25 0.765625 1.25 Z M 0.265625 1.25 "/></g></g></g><g fill="#ffffff" fill-opacity="1"><g transform="translate(182.970637, 239.359077)"><g/></g></g><g fill="#ffffff" fill-opacity="1"><g transform="translate(188.765706, 239.359077)"><g><path d="M 7.234375 -8.765625 C 7.941406 -8.765625 8.453125 -8.601562 8.765625 -8.28125 C 9.085938 -7.96875 9.25 -7.457031 9.25 -6.75 L 9.25 -5.625 C 9.25 -4.914062 9.085938 -4.398438 8.765625 -4.078125 C 8.453125 -3.765625 7.941406 -3.609375 7.234375 -3.609375 L 2.484375 -3.609375 L 2.484375 -0.15625 C 2.484375 -0.0507812 2.425781 0 2.3125 0 L 1.609375 0 C 1.492188 0 1.4375 -0.0507812 1.4375 -0.15625 L 1.4375 -8.59375 C 1.4375 -8.707031 1.492188 -8.765625 1.609375 -8.765625 Z M 8.203125 -6.703125 C 8.203125 -7.085938 8.113281 -7.367188 7.9375 -7.546875 C 7.769531 -7.734375 7.492188 -7.828125 7.109375 -7.828125 L 2.484375 -7.828125 L 2.484375 -4.5625 L 7.109375 -4.5625 C 7.492188 -4.5625 7.769531 -4.648438 7.9375 -4.828125 C 8.113281 -5.003906 8.203125 -5.285156 8.203125 -5.671875 Z M 8.203125 -6.703125 "/></g></g></g><g fill="#ffffff" fill-opacity="1"><g transform="translate(201.25552, 239.359077)"><g><path d="M 3.546875 0.03125 C 2.816406 0.03125 2.269531 -0.148438 1.90625 -0.515625 C 1.539062 -0.890625 1.359375 -1.441406 1.359375 -2.171875 L 1.359375 -6.59375 C 1.359375 -7.320312 1.539062 -7.867188 1.90625 -8.234375 C 2.269531 -8.609375 2.816406 -8.796875 3.546875 -8.796875 L 8.15625 -8.796875 C 8.894531 -8.796875 9.445312 -8.609375 9.8125 -8.234375 C 10.175781 -7.867188 10.359375 -7.320312 10.359375 -6.59375 L 10.359375 -2.171875 C 10.359375 -1.441406 10.175781 -0.890625 9.8125 -0.515625 C 9.445312 -0.148438 8.894531 0.03125 8.15625 0.03125 Z M 8.03125 -0.90625 C 8.476562 -0.90625 8.804688 -1.007812 9.015625 -1.21875 C 9.222656 -1.4375 9.328125 -1.765625 9.328125 -2.203125 L 9.328125 -6.5625 C 9.328125 -7 9.222656 -7.320312 9.015625 -7.53125 C 8.804688 -7.738281 8.476562 -7.84375 8.03125 -7.84375 L 3.671875 -7.84375 C 3.234375 -7.84375 2.910156 -7.738281 2.703125 -7.53125 C 2.492188 -7.320312 2.390625 -7 2.390625 -6.5625 L 2.390625 -2.203125 C 2.390625 -1.765625 2.492188 -1.4375 2.703125 -1.21875 C 2.910156 -1.007812 3.234375 -0.90625 3.671875 -0.90625 Z M 8.03125 -0.90625 "/></g></g></g><g fill="#ffffff" fill-opacity="1"><g transform="translate(215.334548, 239.359077)"><g><path d="M 7.875 -8.765625 C 8.601562 -8.765625 9.148438 -8.578125 9.515625 -8.203125 C 9.890625 -7.835938 10.078125 -7.296875 10.078125 -6.578125 L 10.078125 -2.203125 C 10.078125 -1.472656 9.890625 -0.921875 9.515625 -0.546875 C 9.148438 -0.179688 8.601562 0 7.875 0 L 1.609375 0 C 1.492188 0 1.4375 -0.0507812 1.4375 -0.15625 L 1.4375 -8.59375 C 1.4375 -8.707031 1.492188 -8.765625 1.609375 -8.765625 Z M 9.03125 -6.53125 C 9.03125 -6.976562 8.925781 -7.304688 8.71875 -7.515625 C 8.507812 -7.722656 8.1875 -7.828125 7.75 -7.828125 L 2.484375 -7.828125 L 2.484375 -0.953125 L 7.75 -0.953125 C 8.175781 -0.953125 8.492188 -1.054688 8.703125 -1.265625 C 8.921875 -1.472656 9.03125 -1.796875 9.03125 -2.234375 Z M 9.03125 -6.53125 "/></g></g></g><g fill="#ffffff" fill-opacity="1"><g transform="translate(229.13828, 239.359077)"><g><path d="M 3.546875 0.03125 C 2.816406 0.03125 2.269531 -0.148438 1.90625 -0.515625 C 1.539062 -0.890625 1.359375 -1.441406 1.359375 -2.171875 L 1.359375 -6.59375 C 1.359375 -7.320312 1.539062 -7.867188 1.90625 -8.234375 C 2.269531 -8.609375 2.816406 -8.796875 3.546875 -8.796875 L 7.703125 -8.796875 C 8.421875 -8.796875 8.96875 -8.609375 9.34375 -8.234375 C 9.71875 -7.867188 9.90625 -7.320312 9.90625 -6.59375 L 9.90625 -6.0625 C 9.90625 -5.945312 9.84375 -5.890625 9.71875 -5.890625 L 9.015625 -5.890625 C 8.898438 -5.890625 8.84375 -5.945312 8.84375 -6.0625 L 8.84375 -6.5625 C 8.84375 -7.007812 8.738281 -7.332031 8.53125 -7.53125 C 8.332031 -7.738281 8.007812 -7.84375 7.5625 -7.84375 L 3.671875 -7.84375 C 3.234375 -7.84375 2.910156 -7.738281 2.703125 -7.53125 C 2.492188 -7.320312 2.390625 -7 2.390625 -6.5625 L 2.390625 -2.203125 C 2.390625 -1.765625 2.492188 -1.4375 2.703125 -1.21875 C 2.910156 -1.007812 3.234375 -0.90625 3.671875 -0.90625 L 7.5625 -0.90625 C 8.007812 -0.90625 8.332031 -1.007812 8.53125 -1.21875 C 8.738281 -1.4375 8.84375 -1.765625 8.84375 -2.203125 L 8.84375 -2.71875 C 8.84375 -2.832031 8.898438 -2.890625 9.015625 -2.890625 L 9.71875 -2.890625 C 9.84375 -2.890625 9.90625 -2.832031 9.90625 -2.71875 L 9.90625 -2.171875 C 9.90625 -1.441406 9.71875 -0.890625 9.34375 -0.515625 C 8.96875 -0.148438 8.421875 0.03125 7.703125 0.03125 Z M 3.546875 0.03125 "/></g></g></g><g fill="#ffffff" fill-opacity="1"><g transform="translate(242.654199, 239.359077)"><g><path d="M 9.484375 -0.25 L 9.515625 -0.15625 C 9.515625 -0.0507812 9.445312 0 9.3125 0 L 8.65625 0 C 8.59375 0 8.539062 -0.0078125 8.5 -0.03125 C 8.46875 -0.0625 8.4375 -0.109375 8.40625 -0.171875 L 7.40625 -2.234375 L 2.0625 -2.234375 L 1.0625 -0.171875 C 1.007812 -0.0546875 0.921875 0 0.796875 0 L 0.140625 0 C 0.0234375 0 -0.03125 -0.0507812 -0.03125 -0.15625 C -0.03125 -0.175781 -0.0234375 -0.210938 -0.015625 -0.265625 L 4.078125 -8.59375 C 4.109375 -8.65625 4.140625 -8.695312 4.171875 -8.71875 C 4.210938 -8.75 4.265625 -8.765625 4.328125 -8.765625 L 5.125 -8.765625 C 5.1875 -8.765625 5.238281 -8.75 5.28125 -8.71875 C 5.320312 -8.695312 5.359375 -8.65625 5.390625 -8.59375 Z M 4.765625 -7.640625 L 4.703125 -7.640625 L 3.640625 -5.46875 L 2.546875 -3.1875 L 6.9375 -3.1875 L 5.828125 -5.46875 Z M 4.765625 -7.640625 "/></g></g></g><g fill="#ffffff" fill-opacity="1"><g transform="translate(254.50581, 239.359077)"><g><path d="M 3.203125 0.03125 C 2.503906 0.03125 1.992188 -0.125 1.671875 -0.4375 C 1.347656 -0.757812 1.1875 -1.273438 1.1875 -1.984375 L 1.1875 -2.546875 C 1.1875 -2.671875 1.242188 -2.734375 1.359375 -2.734375 L 2.0625 -2.734375 C 2.175781 -2.734375 2.234375 -2.671875 2.234375 -2.546875 L 2.234375 -1.984375 C 2.234375 -1.609375 2.320312 -1.332031 2.5 -1.15625 C 2.675781 -0.988281 2.953125 -0.90625 3.328125 -0.90625 L 7.140625 -0.90625 C 7.523438 -0.90625 7.804688 -0.988281 7.984375 -1.15625 C 8.171875 -1.332031 8.265625 -1.609375 8.265625 -1.984375 L 8.265625 -2.796875 C 8.265625 -3.171875 8.171875 -3.445312 7.984375 -3.625 C 7.804688 -3.800781 7.523438 -3.890625 7.140625 -3.890625 L 3.390625 -3.890625 C 2.691406 -3.890625 2.179688 -4.050781 1.859375 -4.375 C 1.535156 -4.695312 1.375 -5.207031 1.375 -5.90625 L 1.375 -6.78125 C 1.375 -7.488281 1.535156 -8 1.859375 -8.3125 C 2.179688 -8.632812 2.691406 -8.796875 3.390625 -8.796875 L 6.828125 -8.796875 C 7.535156 -8.796875 8.050781 -8.632812 8.375 -8.3125 C 8.695312 -8 8.859375 -7.488281 8.859375 -6.78125 L 8.859375 -6.25 C 8.859375 -6.132812 8.800781 -6.078125 8.6875 -6.078125 L 7.984375 -6.078125 C 7.878906 -6.078125 7.828125 -6.132812 7.828125 -6.25 L 7.828125 -6.765625 C 7.828125 -7.148438 7.734375 -7.429688 7.546875 -7.609375 C 7.367188 -7.785156 7.085938 -7.875 6.703125 -7.875 L 3.515625 -7.875 C 3.140625 -7.875 2.863281 -7.785156 2.6875 -7.609375 C 2.507812 -7.429688 2.421875 -7.148438 2.421875 -6.765625 L 2.421875 -5.921875 C 2.421875 -5.535156 2.507812 -5.253906 2.6875 -5.078125 C 2.863281 -4.898438 3.140625 -4.8125 3.515625 -4.8125 L 7.265625 -4.8125 C 7.972656 -4.8125 8.488281 -4.65625 8.8125 -4.34375 C 9.132812 -4.03125 9.296875 -3.515625 9.296875 -2.796875 L 9.296875 -1.984375 C 9.296875 -1.273438 9.132812 -0.757812 8.8125 -0.4375 C 8.488281 -0.125 7.972656 0.03125 7.265625 0.03125 Z M 3.203125 0.03125 "/></g></g></g><g fill="#ffffff" fill-opacity="1"><g transform="translate(267.183322, 239.359077)"><g><path d="M 8.796875 -8.765625 C 8.910156 -8.765625 8.96875 -8.707031 8.96875 -8.59375 L 8.96875 -7.9375 C 8.96875 -7.820312 8.910156 -7.765625 8.796875 -7.765625 L 5.125 -7.765625 L 5.125 -0.15625 C 5.125 -0.0507812 5.070312 0 4.96875 0 L 4.265625 0 C 4.148438 0 4.09375 -0.0507812 4.09375 -0.15625 L 4.09375 -7.765625 L 0.4375 -7.765625 C 0.332031 -7.765625 0.28125 -7.820312 0.28125 -7.9375 L 0.28125 -8.59375 C 0.28125 -8.707031 0.332031 -8.765625 0.4375 -8.765625 Z M 8.796875 -8.765625 "/></g></g></g><g fill="#ffffff" fill-opacity="1"><g transform="translate(278.784672, 239.359077)"><g><path d="M 8.703125 -0.921875 C 8.816406 -0.921875 8.875 -0.867188 8.875 -0.765625 L 8.875 -0.15625 C 8.875 -0.0507812 8.816406 0 8.703125 0 L 1.609375 0 C 1.492188 0 1.4375 -0.0507812 1.4375 -0.15625 L 1.4375 -8.59375 C 1.4375 -8.707031 1.492188 -8.765625 1.609375 -8.765625 L 8.578125 -8.765625 C 8.691406 -8.765625 8.75 -8.707031 8.75 -8.59375 L 8.75 -8.015625 C 8.75 -7.890625 8.691406 -7.828125 8.578125 -7.828125 L 2.484375 -7.828125 L 2.484375 -4.875 L 7.1875 -4.875 C 7.300781 -4.875 7.359375 -4.820312 7.359375 -4.71875 L 7.359375 -4.125 C 7.359375 -4.007812 7.300781 -3.953125 7.1875 -3.953125 L 2.484375 -3.953125 L 2.484375 -0.921875 Z M 8.703125 -0.921875 "/></g></g></g><g fill="#ffffff" fill-opacity="1"><g transform="translate(290.798959, 239.359077)"><g><path d="M 5.625 -3.796875 L 5.625 -3.734375 L 9.046875 -0.3125 C 9.109375 -0.25 9.140625 -0.191406 9.140625 -0.140625 C 9.140625 -0.0976562 9.117188 -0.0625 9.078125 -0.03125 C 9.046875 -0.0078125 9.003906 0 8.953125 0 L 8.15625 0 C 8.039062 0 7.9375 -0.046875 7.84375 -0.140625 L 4.171875 -3.796875 L 2.484375 -3.796875 L 2.484375 -0.15625 C 2.484375 -0.0507812 2.425781 0 2.3125 0 L 1.609375 0 C 1.492188 0 1.4375 -0.0507812 1.4375 -0.15625 L 1.4375 -8.59375 C 1.4375 -8.707031 1.492188 -8.765625 1.609375 -8.765625 L 7.171875 -8.765625 C 7.878906 -8.765625 8.390625 -8.601562 8.703125 -8.28125 C 9.023438 -7.96875 9.1875 -7.457031 9.1875 -6.75 L 9.1875 -5.8125 C 9.1875 -5.101562 9.023438 -4.585938 8.703125 -4.265625 C 8.390625 -3.953125 7.878906 -3.796875 7.171875 -3.796875 Z M 2.484375 -7.828125 L 2.484375 -4.703125 L 7.046875 -4.703125 C 7.429688 -4.703125 7.707031 -4.789062 7.875 -4.96875 C 8.050781 -5.15625 8.140625 -5.4375 8.140625 -5.8125 L 8.140625 -6.75 C 8.140625 -7.125 8.050781 -7.394531 7.875 -7.5625 C 7.707031 -7.738281 7.429688 -7.828125 7.046875 -7.828125 Z M 2.484375 -7.828125 "/></g></g></g><g fill="#ffffff" fill-opacity="1"><g transform="translate(303.482421, 239.359077)"><g/></g></g></svg>