<?xml version="1.0" encoding="UTF-8"?>
<svg xmlns="http://www.w3.org/2000/svg" width="256" height="95.986" viewBox="0 0 256 95.986">
  <g id="Layer_2-2" transform="translate(-0.002 0)">
    <g id="Layer_1-2" transform="translate(0.002 0)">
      <path id="Path_1142" data-name="Path 1142" d="M54.461,29.02A32.716,32.716,0,0,0,36.737,34.2a7.469,7.469,0,0,0-2.833-.558,7.58,7.58,0,1,0,7.3,5.661A26.262,26.262,0,1,1,29.236,69.23a7.534,7.534,0,1,0-6.643,1.058A32.94,32.94,0,1,0,54.461,29.026h0ZM33.9,43.046a1.858,1.858,0,1,1,1.858-1.858A1.862,1.862,0,0,1,33.9,43.046ZM24.856,61.229A1.858,1.858,0,1,1,23,63.086,1.862,1.862,0,0,1,24.856,61.229Z" transform="translate(-7.139 -11.96)" fill="#fff"></path>
      <path id="Path_1143" data-name="Path 1143" d="M82.89,68.767h-11a6.869,6.869,0,1,0-.476,6.69h7.73a13.89,13.89,0,1,1-8.212-16.172,7.312,7.312,0,0,0-.053.805,6.872,6.872,0,1,0,6.872-6.872A6.8,6.8,0,0,0,75,53.8,20.555,20.555,0,1,0,86.235,72.117,3.337,3.337,0,0,0,82.9,68.778v-.012ZM65.672,74.2A2.528,2.528,0,1,1,68.2,71.677,2.531,2.531,0,0,1,65.672,74.2Zm14.6-14.126a2.528,2.528,0,1,1-2.528-2.528A2.531,2.531,0,0,1,80.274,60.078Z" transform="translate(-18.597 -21.25)" fill="#fff"></path>
      <path id="Path_1144" data-name="Path 1144" d="M79.438,16.137a7.917,7.917,0,1,0-7.7,6.037,8.047,8.047,0,0,0,1.575-.159,7.738,7.738,0,0,0,1.593-.506,39.332,39.332,0,0,1,5.4,49.9A38.392,38.392,0,0,1,77.78,74.8a7.9,7.9,0,0,0-10.188,8.683,39.554,39.554,0,0,1-20.075,5.485,39.064,39.064,0,0,1-21.645-6.531c-.435-.288-.852-.594-1.27-.9a7.917,7.917,0,0,0-9.059-10.329c-.241.047-.476.112-.711.182A39.295,39.295,0,0,1,8.983,42.343c.17-.024.341-.041.511-.076a7.917,7.917,0,0,0,4.474-12.874c.282-.47.57-.941.876-1.4A39.031,39.031,0,0,1,32.621,13.38a7.938,7.938,0,0,0,5.72,2.457,8.047,8.047,0,0,0,1.575-.159,7.919,7.919,0,1,0-9.388-9.012A45.941,45.941,0,0,0,8.995,24.114q-.811,1.226-1.54,2.5A7.909,7.909,0,0,0,2.27,40.051,46.5,46.5,0,0,0,9.659,76.3,7.917,7.917,0,0,0,17.09,86.88a8.075,8.075,0,0,0,1.587-.159c.276-.059.553-.129.817-.212.805.611,1.628,1.205,2.481,1.775a46.324,46.324,0,0,0,49.586.993,7.845,7.845,0,0,0,3.827,1,8.075,8.075,0,0,0,1.587-.159,7.924,7.924,0,0,0,6.19-9.329,7.946,7.946,0,0,0-.323-1.123,46.175,46.175,0,0,0-3.427-63.524h.024ZM69.562,14.7a1.9,1.9,0,1,1,0,.006h0ZM36.5,6.7a2.234,2.234,0,0,1,1.423-.958,2.307,2.307,0,0,1,.447-.047,2.206,2.206,0,0,1,1.229.376A2.232,2.232,0,1,1,36.5,6.69h0ZM7.5,32.32a2.307,2.307,0,0,1,.447-.047,2.206,2.206,0,0,1,1.229.376,2.244,2.244,0,1,1-1.681-.317V32.32Zm7.442,47.088a2.233,2.233,0,0,1,1.746-2.634,2.307,2.307,0,0,1,.447-.047,2.206,2.206,0,0,1,1.229.376,2.238,2.238,0,1,1-3.427,2.316v-.012Zm62.354,4.186a2.235,2.235,0,1,1-2.31-3.421,2.307,2.307,0,0,1,.447-.047,2.206,2.206,0,0,1,1.229.376,2.238,2.238,0,0,1,.629,3.1v-.012Z" transform="translate(-0.002 0)" fill="#fff"></path>
      <path id="Path_1145" data-name="Path 1145" d="M194.479,53.078h-4.15l-.958-3.457h-5.931l-.958,3.457h-4.15l5.4-17.718h5.32Zm-10.135-6.784h4.068L186.39,38.87Z" transform="translate(-73.498 -14.573)" fill="#fff"></path>
      <path id="Path_1146" data-name="Path 1146" d="M331.228,53.078h-4.15l-.958-3.457h-5.932l-.958,3.457h-4.15l5.4-17.718h5.32Zm-10.135-6.784h4.068L323.14,38.87Z" transform="translate(-129.858 -14.573)" fill="#fff"></path>
      <path id="Path_1147" data-name="Path 1147" d="M395.738,53.078h-4.15l-.958-3.457H384.7l-.958,3.457h-4.15l5.4-17.718h5.32ZM385.6,46.294h4.068L387.65,38.87Z" transform="translate(-156.446 -14.573)" fill="#fff"></path>
      <path id="Path_1148" data-name="Path 1148" d="M184.6,90.237c-3.533,0-5.326-1.811-5.326-4.45V79.72c0-2.687,1.787-4.45,5.326-4.45a25.7,25.7,0,0,1,4.65.459l-.394,2.857a34.571,34.571,0,0,0-4.256-.347c-1.634,0-2.052.852-2.052,1.987v5A1.809,1.809,0,0,0,184.6,87.3a13.532,13.532,0,0,0,1.94-.129v-4.45h3.074v6.831a18.453,18.453,0,0,1-5.02.7v-.012Z" transform="translate(-73.885 -31.022)" fill="#fff"></path>
      <path id="Path_1149" data-name="Path 1149" d="M201.51,90.158V75.62h3.274V87.254h5.761v2.9H201.51Z" transform="translate(-83.051 -31.166)" fill="#fff"></path>
      <path id="Path_1150" data-name="Path 1150" d="M230.373,85.777c0,2.2-1.528,4.45-5.632,4.45s-5.632-2.246-5.632-4.45V79.71c0-2.2,1.528-4.45,5.632-4.45s5.632,2.246,5.632,4.45ZM227.1,79.992c0-1.135-.723-1.834-2.357-1.834s-2.357.7-2.357,1.834v5.5c0,1.135.723,1.834,2.357,1.834s2.357-.7,2.357-1.834Z" transform="translate(-90.305 -31.018)" fill="#fff"></path>
      <path id="Path_1151" data-name="Path 1151" d="M248.736,90.158h-6.2V75.62h5.738c3.033,0,4.144,1.223,4.144,3.186v1.481a2.315,2.315,0,0,1-1.617,2.293,2.751,2.751,0,0,1,2.14,2.687v1.417c0,2.052-1.311,3.468-4.215,3.468h0Zm.417-10.87c0-.635-.394-1.023-1.311-1.023h-2.028v3.316h2.028c.876,0,1.311-.435,1.311-1.029Zm.523,6.067c0-.805-.5-1.223-1.376-1.223h-2.487v3.38h2.028c1.029,0,1.834-.218,1.834-1.264Z" transform="translate(-99.962 -31.166)" fill="#fff"></path>
      <path id="Path_1152" data-name="Path 1152" d="M274.97,90.158h-3.4l-.788-2.839h-4.867l-.788,2.839h-3.4l4.432-14.538h4.368l4.45,14.538Zm-8.318-5.567h3.339l-1.658-6.09Z" transform="translate(-107.866 -31.166)" fill="#fff"></path>
      <path id="Path_1153" data-name="Path 1153" d="M287.05,90.158V75.62h3.274V87.254h5.761v2.9Z" transform="translate(-118.306 -31.166)" fill="#fff"></path>
      <path id="Path_1154" data-name="Path 1154" d="M321.336,90.158V84.309h-4.691v5.849H313.37V75.62h3.274V81.4h4.691V75.62h3.274V90.158h-3.274Z" transform="translate(-129.154 -31.166)" fill="#fff"></path>
      <path id="Path_1155" data-name="Path 1155" d="M337.32,90.158V75.62h9.147v2.9h-5.873v2.663h5.414v2.9h-5.414v3.163h5.873v2.9Z" transform="translate(-139.024 -31.166)" fill="#fff"></path>
      <path id="Path_1156" data-name="Path 1156" d="M368.9,90.158h-3.4l-.788-2.839h-4.867l-.788,2.839h-3.4l4.432-14.538h4.368l4.45,14.538Zm-8.318-5.567h3.339l-1.658-6.09Z" transform="translate(-146.579 -31.166)" fill="#fff"></path>
      <path id="Path_1157" data-name="Path 1157" d="M380.98,90.158V75.62h3.274V87.254h5.761v2.9Z" transform="translate(-157.018 -31.166)" fill="#fff"></path>
      <path id="Path_1158" data-name="Path 1158" d="M401.814,78.534V90.168h-3.274V78.534H394.63v-2.9h11.087v2.9h-3.909Z" transform="translate(-162.644 -31.17)" fill="#fff"></path>
      <path id="Path_1159" data-name="Path 1159" d="M268.813,38.9V53.078h-3.992V38.9H260.06V35.36h13.515V38.9h-4.762Z" transform="translate(-107.182 -14.573)" fill="#fff"></path>
      <path id="Path_1160" data-name="Path 1160" d="M424.326,90.158V84.309h-4.691v5.849H416.36V75.62h3.274V81.4h4.691V75.62H427.6V90.158h-3.274Z" transform="translate(-171.6 -31.166)" fill="#fff"></path>
      <path id="Path_1161" data-name="Path 1161" d="M191.22,124.438h-3.4l-.788-2.839h-4.867l-.788,2.839h-3.4L182.4,109.9h4.368l4.45,14.538h0Zm-8.318-5.567h3.339l-1.658-6.09-1.681,6.09h0Z" transform="translate(-73.35 -45.294)" fill="#fff"></path>
      <path id="Path_1162" data-name="Path 1162" d="M203.29,124.438V109.9h3.274v11.634h5.761v2.9H203.29Z" transform="translate(-83.785 -45.294)" fill="#fff"></path>
      <path id="Path_1163" data-name="Path 1163" d="M221.82,124.438V109.9h3.274v11.634h5.761v2.9Z" transform="translate(-91.422 -45.294)" fill="#fff"></path>
      <path id="Path_1164" data-name="Path 1164" d="M240.53,124.438V109.9H243.8v14.538Z" transform="translate(-99.133 -45.294)" fill="#fff"></path>
      <path id="Path_1165" data-name="Path 1165" d="M346.35,53.078V35.36h3.992V49.539h7.025v3.539H346.35Z" transform="translate(-142.746 -14.573)" fill="#fff"></path>
      <path id="Path_1166" data-name="Path 1166" d="M369.16,53.078V35.36h3.992V53.078Z" transform="translate(-152.147 -14.573)" fill="#fff"></path>
      <path id="Path_1167" data-name="Path 1167" d="M262.32,124.438h-3.4l-.788-2.839h-4.867l-.788,2.839h-3.4L253.5,109.9h4.368ZM254,118.871h3.339l-1.658-6.09Z" transform="translate(-102.653 -45.294)" fill="#fff"></path>
      <path id="Path_1168" data-name="Path 1168" d="M277.512,114.869v9.559H274.39V109.89h4.015l4.779,10.017V109.89h3.122v14.538h-4.039l-4.756-9.559Z" transform="translate(-113.088 -45.29)" fill="#fff"></path>
      <path id="Path_1169" data-name="Path 1169" d="M414.523,41.427V53.078h-3.8V35.36h4.9l5.826,12.21V35.36h3.8V53.078h-4.92Z" transform="translate(-169.275 -14.573)" fill="#fff"></path>
      <path id="Path_1170" data-name="Path 1170" d="M302.2,119.528c0,1.264.417,2.01,2.028,2.01a24.178,24.178,0,0,0,3.756-.347l.458,2.857a19.611,19.611,0,0,1-4.215.459c-3.668,0-5.3-1.811-5.3-4.45V113.99c0-2.639,1.634-4.45,5.3-4.45a19.611,19.611,0,0,1,4.215.459l-.458,2.857a24.05,24.05,0,0,0-3.756-.347c-1.617,0-2.028.741-2.028,2.01v5.009Z" transform="translate(-123.202 -45.146)" fill="#fff"></path>
      <path id="Path_1171" data-name="Path 1171" d="M318.83,124.438V109.9h9.147v2.9H322.1v2.663h5.414v2.9H322.1v3.163h5.873v2.9H318.83Z" transform="translate(-131.404 -45.294)" fill="#fff"></path>
      <path id="Path_1172" data-name="Path 1172" d="M209.549,51.608a6.3,6.3,0,0,1-1.7-4.85V34.83h3.656V46.84c0,2.1,1.07,3.151,3.21,3.151s3.21-1.052,3.21-3.151V34.83h3.656V46.758a6.276,6.276,0,0,1-1.7,4.85,9.32,9.32,0,0,1-10.335,0h0Z" transform="translate(-85.664 -14.355)" fill="#fff"></path>
      <path id="Path_1173" data-name="Path 1173" d="M288.286,35.1h7q6.358,0,6.361,5.937a5.7,5.7,0,0,1-2.651,5.2l2.569,6.89h-4l-2.093-6.043h-3.527v6.043H288.28V35.1h.006Zm7.048,8.853a2.37,2.37,0,0,0,1.911-.782,3.132,3.132,0,0,0,.664-2.11,2.973,2.973,0,0,0-.688-2.081,2.481,2.481,0,0,0-1.934-.758h-3.339v5.726h3.392Z" transform="translate(-118.813 -14.466)" fill="#fff"></path>
      <path id="Path_1174" data-name="Path 1174" d="M246.042,43.853a5.959,5.959,0,0,0-3.457-1.411l-2.04-.294a2.727,2.727,0,0,1-1.446-.605,1.4,1.4,0,0,1-.417-1.029c0-1.17.911-1.9,2.387-1.9a4.524,4.524,0,0,1,3.345,1.111l.2.194,2.54-2.516-.212-.206a7.691,7.691,0,0,0-5.785-2.1c-3.774,0-6.308,2.222-6.308,5.532a4.843,4.843,0,0,0,1.323,3.6,6.161,6.161,0,0,0,3.51,1.511l2.087.288a2.253,2.253,0,0,1,1.376.535,1.694,1.694,0,0,1,.441,1.246c0,1.528-1.5,1.852-2.775,1.852a5.312,5.312,0,0,1-3.974-1.376l-.2-.2-2.587,2.587.2.206c1.634,1.658,3.586,2.369,6.513,2.369,4,0,6.7-2.222,6.7-5.532a5.107,5.107,0,0,0-1.428-3.874h.012Z" transform="translate(-96.463 -14.466)" fill="#fff"></path>
    </g>
  </g>
</svg>
