<?xml version="1.0" encoding="UTF-8"?>
<svg xmlns="http://www.w3.org/2000/svg" class="logo-default" viewBox="0 0 72 72" width="72" height="72">
  <g fill="#ed6e3b">
    <path d="M12.815 24.3c-2.36 2.87-3.54 6.09-3.52 9.59.02 3.39 1.3 6.69 3.61 9.31 2.33 2.64 5.46 4.28 8.8 4.61 2.8.28 5.649.29 8.419.29 2.614-.006 5.483 0 7.701 0v-3.84h-5.97c-2.832 0-5.66 0-8.47-.02-.93-.01-1.65-.09-2.26-.25-4-1.08-6.64-3.65-7.66-7.46-.97-3.65-.25-6.92 2.15-9.74 1.507-1.508 1.74-1.73 3.06-2.49 1.35-.78 2.73-1.16 4.21-1.18 2.86-.03 5.78-.03 8.66-.02 1.1 0 2.2.01 3.31.01h2.99v-3.86h-3.67c-.75 0-1.5-.01-2.24-.01h-.18c-2.53-.02-5.15-.04-7.73.06-1.56.06-3.28.38-5.4 1.01-1.441.47-2.216.96-3.02 1.45-1.38 1.094-1.547 1.206-2.79 2.54z" mask="url(#mask-bottom-left)"></path>
    <path d="M27.15.485c-1.208.002-2.42.01-3.625.025-3.78.05-7.49 1.69-10.18 4.48-2.7 2.81-4.14 6.43-4.05 10.21.08 3.34 1.26 6.4 3.52 9.1 1.29 1.288 1.433 1.525 2.8 2.49 3.6 2.45 7.53 2.68 10.91 2.57 1.91-.06 3.78-.05 5.8-.03.61 0 1.23.01 1.84.01h3.66v-3.83h-6.67c-2.55 0-5.45.01-8.23-.02-1.43-.01-2.79-.39-4.25-1.19-1.5-.867-1.633-1.102-3.07-2.54-3.27-3.68-3.36-9.8-.12-13.58 2.22-2.59 4.89-3.85 8.17-3.85h.16c5.36 0 9.553.02 14.01.02V.5C33.893.513 30.74.478 27.15.485z" mask="url(#mask-top-left)"></path>
    <path d="M34.185 48.1V25.49h3.65V48.1z" mask="url(#mask-line-bottom)"></path>
    <path d="M34.185 19.25h-.01v3.86h2.98c1.007 0 2.2 0 3.31-.01 2.68-.01 5.72-.02 8.66.02 1.48.02 2.86.41 4.21 1.18 1.53.882 1.967 1.406 3.05 2.49 2.4 2.82 3.12 6.09 2.14 9.74-1.01 3.8-3.66 6.38-7.66 7.46-.62.17-1.33.25-2.26.25-2.8.02-5.61-.001-8.34.01l-2.44.01c-1.037 0-1.65-.01-3.65-.01v3.85c2.675.018 5.157-.018 7.7 0 2.76.01 5.61-.01 8.41-.29 3.34-.33 6.46-1.97 8.8-4.61 2.31-2.62 3.59-5.92 3.61-9.31.02-3.5-1.16-6.721-3.52-9.59-1.196-1.347-1.473-1.602-2.75-2.54-.18-.09-.34-.18-.5-.27-.8-.45-1.62-.91-2.54-1.18-2.13-.62-3.84-.94-5.4-1.01a119.1 119.1 0 0 0-4.57-.081c-1.06 0-2.11.01-3.15.02h-.18c-.74.01-1.49.01-2.24.01h-3.67z" mask="url(#mask-bottom-right)"></path>
    <path d="M34.185.5v22.61h3.67V.5Z" mask="url(#mask-line-top)"></path>
    <path d="M44.843.485c-3.574.003-6.956.01-10.668.015v3.84c2.674 0 4.126.018 6.45.02 2.49.01 5.07.01 7.59-.02 3.36-.04 6.07 1.21 8.33 3.84 3.24 3.78 3.15 9.9-.12 13.58-1.59 1.667-2.014 1.91-3.09 2.54-1.46.8-2.83 1.18-4.25 1.19-5.177.029-10.106.02-14.91.02v3.83c2.196 0 3.468.003 5.54-.01 1.98-.02 3.85-.03 5.76.03 3.39.11 7.32-.12 10.91-2.57 1.462-1.063 1.724-1.363 2.79-2.49 2.26-2.7 3.45-5.76 3.53-9.1.09-3.78-1.35-7.4-4.05-10.21-2.69-2.79-6.4-4.43-10.18-4.48a350.731 350.731 0 0 0-3.632-.025z" mask="url(#mask-top-right)"></path>
  </g>
  <g fill="none" stroke="#fff" stroke-width="4.535">
    <mask id="mask-top-right">
      <path d="m33.755 2.368 12.75.062c11.943.06 14.345 8.112 14.378 12.377.04 5.102-3.539 12.633-14.378 12.633h-12.75" pathLength="1"></path>
    </mask>
    <mask id="mask-bottom-right">
      <path d="m33.755 21.18 12.75.063c11.943.06 14.345 8.112 14.378 12.377.04 5.102-3.539 12.633-14.378 12.633h-12.75" pathLength="1"></path>
    </mask>
    <mask id="mask-top-left">
      <path d="m38.255 2.368-12.75.062c-11.942.06-14.344 8.112-14.377 12.377-.04 5.102 3.538 12.633 14.378 12.633h12.75" pathLength="1"></path>
    </mask>
    <mask id="mask-bottom-left">
      <path d="m38.255 21.18-12.75.063c-11.942.06-14.344 8.112-14.377 12.377-.04 5.102 3.538 12.633 14.378 12.633h12.75" pathLength="1"></path>
    </mask>
    <mask id="mask-line-top">
      <path d="M36.005.43v22.75" pathLength="1"></path>
    </mask>
    <mask id="mask-line-bottom">
      <path d="M36.005 25.43v22.75" pathLength="1"></path>
    </mask>
  </g>
  <g id="logo-text-burnet" fill="#ed6e3b">
    <path d="M.565 69.93V57.36c0-1.17.66-1.83 1.83-1.83h6.72c3.09 0 4.68 1.97 4.68 4.14 0 2.05-1.27 3.41-2.8 3.73 1.73.27 3.12 1.95 3.12 3.99 0 2.44-1.63 4.38-4.72 4.38h-6.99c-1.18.01-1.84-.65-1.84-1.84zm7.8-7.87c1.17 0 1.9-.75 1.9-1.8 0-1-.73-1.78-1.9-1.78h-4.33v3.58zm.12 6.77c1.31 0 2.09-.75 2.09-1.92 0-1.02-.73-1.9-2.09-1.9h-4.46v3.82z"></path>
    <path d="M26.695 61.23v8.99c0 .88-.68 1.58-1.53 1.58-.88 0-1.58-.71-1.58-1.58v-.07c-.8.88-2.19 1.75-4.12 1.75-2.58 0-3.8-1.41-3.8-3.7v-6.96c0-.85.68-1.56 1.56-1.56.83 0 1.53.71 1.53 1.56v5.75c0 1.63.85 2.17 2.17 2.17 1.19 0 2.14-.66 2.68-1.34v-6.57c0-.85.68-1.56 1.53-1.56.85-.01 1.56.69 1.56 1.54z"></path>
    <path d="M36.365 61.02c0 .75-.49 1.39-1.46 1.53-.8.1-2.02.54-2.53 1.29v6.38c0 .85-.71 1.56-1.53 1.56-.88 0-1.56-.71-1.56-1.56v-8.96c0-.88.68-1.58 1.53-1.58.88 0 1.58.68 1.58 1.56l-.02.22c.51-.71 1.22-1.36 1.92-1.63.29-.12.51-.19.78-.19.82-.01 1.29.62 1.29 1.38z"></path>
    <path d="M49.025 63.3v6.92c0 .85-.68 1.56-1.56 1.56-.83 0-1.53-.71-1.53-1.56V64.5c0-1.63-.85-2.19-2.17-2.19-1.22 0-2.17.68-2.68 1.39v6.53c0 .85-.71 1.56-1.53 1.56-.88 0-1.56-.71-1.56-1.56v-8.99c0-.88.68-1.58 1.53-1.58.88 0 1.58.71 1.58 1.58v.1c.75-.85 2.17-1.78 4.09-1.78 2.59-.01 3.83 1.46 3.83 3.74z"></path>
    <path d="M56.825 59.55c3.51 0 5.89 2.63 5.89 5.7 0 1.02-.66 1.46-1.83 1.46h-6.92c.19 1.49 1.39 2.73 3.38 2.73.78 0 1.66-.24 2.39-.66.17-.1.37-.15.58-.15.66 0 1.22.56 1.22 1.22 0 .46-.27.85-.66 1.07-1.14.66-2.51.97-3.87.97-3.58 0-6.28-2.41-6.28-6.19.01-3.39 2.52-6.15 6.1-6.15zm-2.9 5.07h5.8c-.07-1.12-.85-2.61-2.9-2.61-1.92 0-2.75 1.44-2.9 2.61z"></path>
    <path d="M71.435 70.44c0 .61-.39 1.05-.93 1.22-.41.15-.95.24-1.61.24-2.17 0-3.34-1.12-3.34-3.21v-6.14h-.75c-.75 0-1.36-.61-1.36-1.34 0-.75.61-1.36 1.36-1.36h.75v-1.83c0-.85.71-1.56 1.58-1.56.83 0 1.53.71 1.53 1.56v1.83h1.22c.73 0 1.34.61 1.34 1.36 0 .73-.61 1.34-1.34 1.34h-1.22v5.31c0 .73.37 1.29 1.05 1.29.22 0 .37-.05.51-.05.75.05 1.21.61 1.21 1.34z"></path>
  </g>
</svg>
