<?xml version="1.0" encoding="UTF-8"?>
<svg xmlns="http://www.w3.org/2000/svg" width="135" height="60" viewBox="0 0 135 60" fill="none">
  <path d="M10.4312 7.88859C10.4312 12.9007 7.36547 13.5762 4.32163 13.5762H2.89825V2.22275H4.32163C7.36547 2.22275 10.4312 2.8983 10.4312 7.88859ZM0.117188 0V15.799H4.45302C9.48959 15.799 13.3218 14.0556 13.3218 7.88859C13.3218 1.72154 9.48959 0 4.45302 0H0.117188Z" fill="white"></path>
  <path d="M26.5814 10.6779C26.8004 6.73363 24.5449 3.81355 20.9317 3.81355C17.5813 3.81355 15.1506 6.31959 15.1506 9.84984C15.1506 13.2058 17.3185 16.0823 21.1069 16.0823C24.1507 16.0823 25.9026 14.1646 26.45 12.2905H23.888C23.4281 13.3801 22.3551 13.9249 20.9974 13.9249C19.5083 13.9249 17.9755 12.8571 17.8003 10.6779H26.5814ZM20.9317 5.84017C22.4646 5.84017 23.8661 6.95155 23.9318 8.78205H17.8003C18.0193 6.5593 19.7054 5.84017 20.9317 5.84017Z" fill="white"></path>
  <path d="M29.9147 4.07505H27.0461L31.3381 15.799H33.7907L38.039 4.07505H35.3236L32.6301 12.4431L29.9147 4.07505Z" fill="white"></path>
  <path d="M49.9337 10.6779C50.1527 6.73363 47.8972 3.81355 44.284 3.81355C40.9336 3.81355 38.5029 6.31959 38.5029 9.84984C38.5029 13.2058 40.6708 16.0823 44.4592 16.0823C47.5031 16.0823 49.2549 14.1646 49.8024 12.2905H47.2403C46.7804 13.3801 45.7074 13.9249 44.3497 13.9249C42.8606 13.9249 41.3278 12.8571 41.1526 10.6779H49.9337ZM44.284 5.84017C45.8169 5.84017 47.2184 6.95155 47.2841 8.78205H41.1526C41.3716 6.5593 43.0577 5.84017 44.284 5.84017Z" fill="white"></path>
  <path d="M54.6853 0H52.0794V15.799H54.6853V0Z" fill="white"></path>
  <path d="M59.5232 9.9588C59.5232 7.25663 60.9904 5.92734 62.6328 5.92734C64.2751 5.92734 65.7423 7.25663 65.7423 9.9588C65.7423 12.661 64.2751 13.9685 62.6328 13.9685C60.9904 13.9685 59.5232 12.661 59.5232 9.9588ZM62.6328 3.81355C59.7641 3.81355 56.8298 5.73121 56.8298 9.9588C56.8298 14.1864 59.7641 16.0823 62.6328 16.0823C65.5014 16.0823 68.4358 14.1864 68.4358 9.9588C68.4358 5.73121 65.5014 3.81355 62.6328 3.81355Z" fill="white"></path>
  <path d="M73.0737 9.93701C73.0737 7.23484 74.4095 5.92734 76.1176 5.92734C77.9351 5.92734 79.03 7.47455 79.03 9.93701C79.03 12.4213 77.9351 13.9685 76.1176 13.9685C74.4095 13.9685 73.0737 12.6392 73.0737 9.93701ZM70.5774 4.07505V19.6125H73.1832V14.2518C73.884 15.4067 75.1103 16.0823 76.6869 16.0823C79.5556 16.0823 81.7454 13.707 81.7454 9.93701C81.7454 6.18884 79.5556 3.81355 76.6869 3.81355C75.1103 3.81355 73.884 4.48909 73.1832 5.64405V4.07505H70.5774Z" fill="white"></path>
  <path d="M86.4846 9.56655C86.4846 7.45276 87.1416 5.92734 89.0686 5.92734C90.9957 5.92734 91.1489 7.47455 91.1489 9.06534V15.799H93.7548V9.56655C93.7548 7.45276 94.4118 5.92734 96.3388 5.92734C98.2659 5.92734 98.4191 7.47455 98.4191 9.06534V15.799H101.025V8.43338C101.025 5.64405 99.952 3.81355 97.1709 3.81355C95.7257 3.81355 94.3461 4.40192 93.3388 5.88376C92.7913 4.57625 91.7183 3.81355 89.9008 3.81355C88.3241 3.81355 87.1635 4.48909 86.4846 5.70942V4.07505H83.8788V15.799H86.4846V9.56655Z" fill="white"></path>
  <path d="M114.388 10.6779C114.607 6.73363 112.351 3.81355 108.738 3.81355C105.388 3.81355 102.957 6.31959 102.957 9.84984C102.957 13.2058 105.125 16.0823 108.913 16.0823C111.957 16.0823 113.709 14.1646 114.256 12.2905H111.694C111.235 13.3801 110.161 13.9249 108.804 13.9249C107.315 13.9249 105.782 12.8571 105.607 10.6779H114.388ZM108.738 5.84017C110.271 5.84017 111.672 6.95155 111.738 8.78205H105.607C105.826 6.5593 107.512 5.84017 108.738 5.84017Z" fill="white"></path>
  <path d="M119.139 4.07505H116.534V15.799H119.139V9.56655C119.139 7.45276 119.884 5.92734 121.877 5.92734C123.869 5.92734 124.11 7.47455 124.11 9.06534V15.799H126.716V8.43338C126.716 5.64405 125.556 3.81355 122.709 3.81355C121.066 3.81355 119.818 4.48909 119.139 5.70942V4.07505Z" fill="white"></path>
  <path d="M129.801 4.07505H128.049V5.94913H129.801V12.7263C129.801 15.1234 130.305 15.799 132.823 15.799H134.75V13.8159H133.808C132.691 13.8159 132.407 13.5326 132.407 12.3341V5.94913H134.772V4.07505H132.407V0.980626H129.801V4.07505Z" fill="white"></path>
  <path d="M2.89825 21.7719H0.117188V37.5709H2.89825V21.7719Z" fill="white"></path>
  <path d="M8.57945 25.847H5.97357V37.5709H8.57945V31.3385C8.57945 29.2247 9.32399 27.6993 11.3167 27.6993C13.3094 27.6993 13.5503 29.2465 13.5503 30.8373V37.5709H16.1562V30.2053C16.1562 27.416 14.9956 25.5855 12.1488 25.5855C10.5065 25.5855 9.25829 26.261 8.57945 27.4814V25.847Z" fill="white"></path>
  <path d="M19.2409 25.847H17.4891V27.7211H19.2409V34.4983C19.2409 36.8954 19.7446 37.5709 22.2629 37.5709H24.1899V35.5879H23.2483C22.1315 35.5879 21.8468 35.3046 21.8468 34.106V27.7211H24.2118V25.847H21.8468V22.7526H19.2409V25.847Z" fill="white"></path>
  <path d="M36.9531 32.4499C37.1721 28.5056 34.9166 25.5855 31.3034 25.5855C27.953 25.5855 25.5223 28.0915 25.5223 31.6218C25.5223 34.9777 27.6902 37.8542 31.4786 37.8542C34.5224 37.8542 36.2743 35.9365 36.8217 34.0625H34.2596C33.7998 35.152 32.7268 35.6968 31.3691 35.6968C29.88 35.6968 28.3471 34.629 28.172 32.4499H36.9531ZM31.3034 27.6121C32.8363 27.6121 34.2377 28.7235 34.3034 30.554H28.172C28.3909 28.3312 30.0771 27.6121 31.3034 27.6121Z" fill="white"></path>
  <path d="M41.7047 21.7719H39.0988V37.5709H41.7047V21.7719Z" fill="white"></path>
  <path d="M47.2434 21.7719H44.6375V37.5709H47.2434V21.7719Z" fill="white"></path>
  <path d="M50.1762 21.7719V24.387H52.782V21.7719H50.1762ZM50.1762 25.847V37.5709H52.782V25.847H50.1762Z" fill="white"></path>
  <path d="M63.5325 27.416C62.8318 26.261 61.6055 25.5855 60.0288 25.5855C57.2477 25.5855 54.9046 27.8082 54.9046 31.4693C54.9046 35.1303 57.2477 37.3748 60.0288 37.3748C61.6055 37.3748 62.8318 36.6993 63.5325 35.5443V36.9172C63.5325 37.6799 63.3792 38.399 62.9412 38.9002C62.5033 39.4232 61.7587 39.7501 60.5981 39.7501C59.0434 39.7501 58.3207 39.2925 58.0799 38.2029H55.4959C55.89 40.7743 57.9485 41.7985 60.5324 41.7985C62.3719 41.7985 63.7734 41.4063 64.715 40.5346C65.6566 39.6629 66.1384 38.3118 66.1384 36.3942V25.847H63.5325V27.416ZM63.642 31.4693C63.642 34.106 62.3062 35.3264 60.5981 35.3264C58.8682 35.3264 57.62 33.8663 57.62 31.4693C57.62 29.1157 58.8682 27.6557 60.5981 27.6557C62.3062 27.6557 63.642 28.8542 63.642 31.4693Z" fill="white"></path>
  <path d="M79.7015 32.4499C79.9205 28.5056 77.665 25.5855 74.0518 25.5855C70.7014 25.5855 68.2707 28.0915 68.2707 31.6218C68.2707 34.9777 70.4386 37.8542 74.227 37.8542C77.2708 37.8542 79.0227 35.9365 79.5701 34.0625H77.0081C76.5482 35.152 75.4752 35.6968 74.1175 35.6968C72.6284 35.6968 71.0956 34.629 70.9204 32.4499H79.7015ZM74.0518 27.6121C75.5847 27.6121 76.9862 28.7235 77.0519 30.554H70.9204C71.1394 28.3312 72.8255 27.6121 74.0518 27.6121Z" fill="white"></path>
  <path d="M84.4531 25.847H81.8472V37.5709H84.4531V31.3385C84.4531 29.2247 85.1976 27.6993 87.1903 27.6993C89.1831 27.6993 89.424 29.2465 89.424 30.8373V37.5709H92.0298V30.2053C92.0298 27.416 90.8692 25.5855 88.0225 25.5855C86.3801 25.5855 85.1319 26.261 84.4531 27.4814V25.847Z" fill="white"></path>
  <path d="M99.7132 25.5855C96.2095 25.5855 93.9321 28.2441 93.9321 31.7307C93.9321 35.2174 96.1876 37.8542 99.6037 37.8542C102.122 37.8542 104.553 36.307 105.078 33.5613H102.538C102.21 35.1303 100.918 35.6968 99.6475 35.6968C98.1146 35.6968 96.6255 34.4983 96.6255 31.709C96.6255 28.9414 98.0927 27.7429 99.7132 27.7429C101.137 27.7429 102.231 28.6145 102.45 29.8567H104.991C104.553 27.2417 102.275 25.5855 99.7132 25.5855Z" fill="white"></path>
  <path d="M117.788 32.4499C118.007 28.5056 115.752 25.5855 112.138 25.5855C108.788 25.5855 106.357 28.0915 106.357 31.6218C106.357 34.9777 108.525 37.8542 112.314 37.8542C115.357 37.8542 117.109 35.9365 117.657 34.0625H115.095C114.635 35.152 113.562 35.6968 112.204 35.6968C110.715 35.6968 109.182 34.629 109.007 32.4499H117.788ZM112.138 27.6121C113.671 27.6121 115.073 28.7235 115.138 30.554H109.007C109.226 28.3312 110.912 27.6121 112.138 27.6121Z" fill="white"></path>
  <path d="M2.89825 43.5439H0.117188V59.3429H10.8911V57.0112H2.89825V43.5439Z" fill="white"></path>
  <path d="M19.6597 54.723C19.6597 56.7061 18.521 57.6867 16.594 57.6867C15.2801 57.6867 14.4261 57.0765 14.4261 56.0523C14.4261 54.7012 15.9371 54.1782 19.6597 53.8296V54.723ZM16.0246 59.6262C17.7546 59.6262 19.1561 59.016 19.9006 57.7521C19.9444 58.5584 20.032 58.8417 20.1196 59.3429H22.5065C22.2875 58.3622 22.1561 56.815 22.1561 55.3332C22.1561 54.2654 22.1999 52.8925 22.1999 52.3042C22.2656 48.556 20.0539 47.2703 17.229 47.2703C14.3823 47.2703 12.3896 48.9046 12.2144 51.3017H14.7765C14.8421 49.8853 15.8276 49.1879 17.1415 49.1879C18.4334 49.1879 19.594 49.7981 19.594 51.8029V52.0209C15.2801 52.4567 11.6669 53.1976 11.6669 56.1177C11.6669 58.2533 13.4626 59.6262 16.0246 59.6262Z" fill="white"></path>
  <path d="M27.3314 53.4809C27.3314 50.7787 28.6672 49.4712 30.3753 49.4712C32.1052 49.4712 33.3534 51.0184 33.3534 53.4809C33.3534 55.9652 32.1052 57.5124 30.3753 57.5124C28.6672 57.5124 27.3314 56.1831 27.3314 53.4809ZM24.8351 43.5439V59.3429H27.4409V57.7957C28.1417 58.9506 29.368 59.6262 30.9446 59.6262C33.7257 59.6262 36.0688 57.2509 36.0688 53.4809C36.0688 49.7327 33.7257 47.3574 30.9446 47.3574C29.368 47.3574 28.1417 48.033 27.4409 49.1879V43.5439H24.8351Z" fill="white"></path>
  <path d="M40.2115 59.1936C40.6828 58.6855 40.3822 56.7327 40.2115 56.3568C40.0408 55.981 37.7008 56.0186 37.3609 56.3568C37.021 56.6951 37.172 58.8734 37.3609 59.1936C37.5497 59.5138 39.7402 59.7017 40.2115 59.1936Z" fill="#F5442C"></path>
</svg>
