<?xml version="1.0" encoding="UTF-8"?>
<svg xmlns="http://www.w3.org/2000/svg" width="248.907" height="47" viewBox="0 0 248.907 47">
  <g transform="translate(95.699 0.76)">
    <path d="M454.75,254.178a8.581,8.581,0,0,1-8.6,8.3v-8.3Z" transform="translate(-403.938 -254.178)" fill="#fce874"></path>
    <path d="M365.725,322.238a8.676,8.676,0,0,1,8.6,8.494h-8.6Z" transform="translate(-365.725 -286.517)" fill="#fce874"></path>
  </g>
  <g transform="translate(95.73 0.455)">
    <path d="M374.557,274.961h9.029a6.605,6.605,0,0,0,0-13.162h-9.029Zm6.677,7.694H365.782V253.6h17.8A14.776,14.776,0,0,1,398.4,268.348a14.5,14.5,0,0,1-8.584,12.972l9.856,16.787H390.2Z" transform="translate(-365.782 -253.596)" fill="#fff"></path>
  </g>
  <rect width="8.603" height="31.397" transform="translate(137.91 13.567)" fill="#fff"></rect>
  <path d="M271.279,275.876c0-13.036,9.665-23.146,23.146-23.146a22.17,22.17,0,0,1,19.14,10.492L306,267.609c-2.162-3.943-6.486-6.358-11.573-6.358-8.711,0-14.434,6.04-14.434,14.625,0,8.521,5.723,14.561,14.434,14.561,5.087,0,9.475-2.416,11.573-6.295l7.567,4.388a22.014,22.014,0,0,1-19.14,10.492c-13.481,0-23.146-10.174-23.146-23.146" transform="translate(-225.149 -252.73)" fill="#fff"></path>
  <path d="M183.386,275.876c0-13.036,9.665-23.146,23.146-23.146a22.17,22.17,0,0,1,19.14,10.492l-7.567,4.388c-2.162-3.943-6.486-6.358-11.573-6.358-8.711,0-14.434,6.04-14.434,14.625,0,8.521,5.723,14.561,14.434,14.561,5.087,0,9.475-2.416,11.573-6.295l7.567,4.388a22.014,22.014,0,0,1-19.14,10.492c-13.481,0-23.146-10.174-23.146-23.146" transform="translate(-183.386 -252.73)" fill="#fff"></path>
  <g transform="translate(155.193 13.222)">
    <path d="M568.483,327.858a1.668,1.668,0,0,1,1.68-1.462,1.557,1.557,0,0,1,1.648,1.462Zm4.31.349a2.509,2.509,0,0,0-2.629-2.586,2.842,2.842,0,0,0,.022,5.674,2.318,2.318,0,0,0,2.455-1.691l-.873-.207a1.462,1.462,0,0,1-1.582,1.08,1.77,1.77,0,0,1-1.757-1.844h4.343c.011-.1.021-.294.021-.426m-5.63-2.488a1.936,1.936,0,0,0-.632-.1,2.017,2.017,0,0,0-1.713,1.2v-1.113h-.927v5.5h.927v-2.095c0-1.79.709-2.63,1.582-2.63a1.908,1.908,0,0,1,.709.131Zm-7.148,4.812c-.633,0-1.07-.36-1.07-.873,0-.578.578-.96,1.692-1.08l1.069-.12v.262a1.622,1.622,0,0,1-1.691,1.811m.349-4.91a2.13,2.13,0,0,0-2.226,1.8l.862.164a1.276,1.276,0,0,1,1.364-1.189,1.212,1.212,0,0,1,1.342,1.233v.109l-1.069.12c-1.757.174-2.619.753-2.619,1.811a1.675,1.675,0,0,0,1.855,1.625,2.014,2.014,0,0,0,1.833-1.026v.938h.916v-3.524a2.038,2.038,0,0,0-2.258-2.062m-6.437,5.674a3.133,3.133,0,0,0,3.218-2.357l-.992-.207a2.121,2.121,0,0,1-2.237,1.67c-1.549,0-2.673-1.059-2.673-3.012s1.124-3.023,2.673-3.023a2.13,2.13,0,0,1,2.247,1.746l.982-.218a3.079,3.079,0,0,0-3.218-2.411,3.911,3.911,0,0,0,0,7.812m-10.169-.829a2.021,2.021,0,1,1,1.789-2.008,1.8,1.8,0,0,1-1.789,2.008m-.088.829a2.019,2.019,0,0,0,1.79-.884v.8h.927v-7.725h-.927v3.011a2.239,2.239,0,0,0-1.8-.873,2.844,2.844,0,0,0,.011,5.674m-7.834-3.437a1.669,1.669,0,0,1,1.681-1.462,1.558,1.558,0,0,1,1.648,1.462Zm4.31.349a2.51,2.51,0,0,0-2.63-2.586,2.842,2.842,0,0,0,.021,5.674,2.318,2.318,0,0,0,2.455-1.691l-.873-.207a1.463,1.463,0,0,1-1.583,1.08,1.77,1.77,0,0,1-1.757-1.844h4.343c.011-.1.022-.294.022-.426m-5.979,2.106a1.557,1.557,0,0,1-.688.142.762.762,0,0,1-.807-.862v-3.066h1.473v-.819h-1.473V324.04h-.927v1.669h-1.026v.819h1.026v3.033a1.524,1.524,0,0,0,1.625,1.735,2.542,2.542,0,0,0,.862-.131Zm-6.94.218c-.633,0-1.069-.36-1.069-.873,0-.578.578-.96,1.691-1.08l1.069-.12v.262a1.622,1.622,0,0,1-1.691,1.811m.349-4.91a2.131,2.131,0,0,0-2.226,1.8l.862.164a1.275,1.275,0,0,1,1.364-1.189,1.211,1.211,0,0,1,1.342,1.233v.109l-1.069.12c-1.757.174-2.618.753-2.618,1.811a1.674,1.674,0,0,0,1.855,1.625,2.014,2.014,0,0,0,1.833-1.026v.938h.917v-3.524a2.039,2.039,0,0,0-2.259-2.062m-2.76.1a1.941,1.941,0,0,0-.633-.1,2.017,2.017,0,0,0-1.713,1.2v-1.113h-.927v5.5h.927v-2.095c0-1.79.709-2.63,1.582-2.63a1.909,1.909,0,0,1,.71.131Zm-7.365,4.517a1.9,1.9,0,1,1,1.746-1.888,1.71,1.71,0,0,1-1.746,1.888m1.67-3.786a2.226,2.226,0,0,0-1.779-.829,2.725,2.725,0,0,0,.022,5.445,2.008,2.008,0,0,0,1.757-.786v.764a1.486,1.486,0,0,1-1.648,1.451c-.84,0-1.484-.426-1.538-1.037l-.895.153a2.263,2.263,0,0,0,2.433,1.67,2.341,2.341,0,0,0,2.564-2.335v-5.237h-.916Zm-9.558,1.408a1.669,1.669,0,0,1,1.681-1.462,1.558,1.558,0,0,1,1.647,1.462Zm4.31.349a2.51,2.51,0,0,0-2.629-2.586,2.842,2.842,0,0,0,.022,5.674,2.318,2.318,0,0,0,2.455-1.691l-.873-.207a1.463,1.463,0,0,1-1.582,1.08,1.77,1.77,0,0,1-1.757-1.844h4.343c.011-.1.022-.294.022-.426m-5.979,2.106a1.556,1.556,0,0,1-.687.142.762.762,0,0,1-.807-.862v-3.066h1.473v-.819H506.4V324.04h-.928v1.669h-1.026v.819h1.026v3.033A1.525,1.525,0,0,0,507.1,331.3a2.542,2.542,0,0,0,.862-.131Zm-8.009.895V328.8c0-1.451.655-2.335,1.68-2.335a1.188,1.188,0,0,1,1.244,1.276v3.47h.927v-3.644a1.861,1.861,0,0,0-1.964-1.942,2.167,2.167,0,0,0-1.887,1.124v-1.037h-.927v5.5Zm-2.466-7.638h-.993v7.638h.993Zm-4.572,2.149a1.935,1.935,0,0,0-.632-.1,2.017,2.017,0,0,0-1.713,1.2v-1.113h-.927v5.5h.927v-2.095c0-1.79.709-2.63,1.582-2.63a1.907,1.907,0,0,1,.709.131Zm-7.267,4.746a2.015,2.015,0,1,1,1.844-2.008,1.84,1.84,0,0,1-1.844,2.008m0,.829a2.837,2.837,0,1,0-2.793-2.837,2.725,2.725,0,0,0,2.793,2.837m-4.637-.087v-4.681h1.408v-.819h-1.408v-.589c0-.589.328-.971.818-.971a1.588,1.588,0,0,1,.578.109l.044-.829a2.758,2.758,0,0,0-.742-.088c-.938,0-1.625.644-1.625,1.855v.513h-.938v.819h.938v4.681Z" transform="translate(-479.078 -299.503)" fill="#fff"></path>
    <path d="M563.151,305.043a1.669,1.669,0,0,1,1.681-1.462,1.558,1.558,0,0,1,1.647,1.462Zm4.31.349a2.51,2.51,0,0,0-2.63-2.586,2.842,2.842,0,0,0,.022,5.674,2.318,2.318,0,0,0,2.455-1.691l-.873-.207a1.463,1.463,0,0,1-1.582,1.08,1.77,1.77,0,0,1-1.757-1.844h4.343c.011-.1.022-.294.022-.426m-5.979,2.106a1.555,1.555,0,0,1-.688.142.762.762,0,0,1-.807-.862v-3.066h1.473v-.818h-1.473v-1.67h-.928v1.67h-1.026v.818h1.026v3.033a1.524,1.524,0,0,0,1.626,1.735,2.543,2.543,0,0,0,.862-.131Zm-5.292-4.6v2.411c0,1.451-.654,2.335-1.68,2.335a1.189,1.189,0,0,1-1.244-1.277v-3.469h-.927v3.644a1.861,1.861,0,0,0,1.964,1.942,2.165,2.165,0,0,0,1.887-1.124v1.037h.927v-5.5Zm-4.942,4.6a1.556,1.556,0,0,1-.688.142.762.762,0,0,1-.807-.862v-3.066h1.473v-.818h-1.473v-1.67h-.927v1.67H547.8v.818h1.026v3.033a1.524,1.524,0,0,0,1.625,1.735,2.546,2.546,0,0,0,.862-.131Zm-4.364-4.6h-.927v5.5h.927Zm-.469-1.037a.649.649,0,1,0,0-1.3.649.649,0,0,0,0,1.3m-1.6,5.641a1.555,1.555,0,0,1-.688.142.762.762,0,0,1-.807-.862v-3.066h1.473v-.818h-1.473v-1.67h-.927v1.67h-1.026v.818h1.026v3.033a1.524,1.524,0,0,0,1.625,1.735,2.545,2.545,0,0,0,.862-.131Zm-5.979.982c1.211,0,2.019-.676,2.019-1.636.01-2.269-3.175-1.408-3.175-2.586,0-.436.393-.687,1.015-.687a1.307,1.307,0,0,1,1.287.927l.775-.339a2.045,2.045,0,0,0-2.041-1.353c-1.178,0-1.931.589-1.931,1.462,0,2.084,3.164,1.178,3.164,2.586,0,.447-.436.84-1.113.84a1.494,1.494,0,0,1-1.495-1.168l-.8.349a2.282,2.282,0,0,0,2.292,1.6m-7.2-.087v-2.411c0-1.451.655-2.335,1.681-2.335a1.188,1.188,0,0,1,1.244,1.276v3.47h.927v-3.644a1.861,1.861,0,0,0-1.964-1.942,2.167,2.167,0,0,0-1.888,1.124v-1.037H530.7v5.5Zm-2.152-7.638h-.993v7.638h.993Zm-9.382,7.638v-2.357c0-1.473.654-2.39,1.67-2.39a1.217,1.217,0,0,1,1.342,1.3v3.448h.927V304.77a1.9,1.9,0,0,0-2.062-1.964,2.014,2.014,0,0,0-1.877,1.168v-3.306h-.927v7.725Zm-4.506.087a2.277,2.277,0,0,0,2.422-1.8l-.905-.185a1.421,1.421,0,0,1-1.495,1.156,2.022,2.022,0,0,1,0-4.015,1.423,1.423,0,0,1,1.473,1.146L518,304.6a2.259,2.259,0,0,0-2.412-1.79,2.839,2.839,0,0,0,0,5.674m-3.066-5.575a1.939,1.939,0,0,0-.633-.1,2.018,2.018,0,0,0-1.713,1.2v-1.113h-.927v5.5h.927V306.3c0-1.79.709-2.629,1.582-2.629a1.91,1.91,0,0,1,.71.131Zm-7.116,4.812c-.632,0-1.069-.36-1.069-.873,0-.578.578-.96,1.691-1.08l1.07-.12v.262a1.622,1.622,0,0,1-1.692,1.811m.349-4.91a2.131,2.131,0,0,0-2.226,1.8l.862.164a1.276,1.276,0,0,1,1.364-1.189,1.212,1.212,0,0,1,1.342,1.233v.109l-1.07.12c-1.757.175-2.618.753-2.618,1.811a1.674,1.674,0,0,0,1.855,1.625,2.014,2.014,0,0,0,1.833-1.026v.938h.916v-3.524a2.038,2.038,0,0,0-2.258-2.062m-7.5,2.237a1.668,1.668,0,0,1,1.68-1.462,1.557,1.557,0,0,1,1.647,1.462Zm4.31.349a2.509,2.509,0,0,0-2.629-2.586,2.842,2.842,0,0,0,.022,5.674,2.318,2.318,0,0,0,2.455-1.691l-.873-.207a1.462,1.462,0,0,1-1.582,1.08,1.77,1.77,0,0,1-1.757-1.844h4.342c.011-.1.022-.294.022-.426m-8.128,3.088c1.211,0,2.018-.676,2.018-1.636.011-2.269-3.175-1.408-3.175-2.586,0-.436.393-.687,1.015-.687a1.307,1.307,0,0,1,1.287.927l.775-.339a2.044,2.044,0,0,0-2.041-1.353c-1.178,0-1.931.589-1.931,1.462,0,2.084,3.164,1.178,3.164,2.586,0,.447-.436.84-1.113.84a1.5,1.5,0,0,1-1.495-1.168l-.8.349a2.282,2.282,0,0,0,2.292,1.6m-7.289-3.437a1.669,1.669,0,0,1,1.681-1.462,1.558,1.558,0,0,1,1.648,1.462Zm4.31.349a2.51,2.51,0,0,0-2.629-2.586,2.842,2.842,0,0,0,.022,5.674,2.318,2.318,0,0,0,2.455-1.691l-.873-.207a1.463,1.463,0,0,1-1.582,1.08,1.77,1.77,0,0,1-1.757-1.844h4.343c.011-.1.022-.294.022-.426m-8.914-3.753c.938,0,1.495.458,1.495,1.233s-.556,1.222-1.495,1.222H480.9v-2.455Zm1.091,3.2a2,2,0,0,0,1.419-1.964,2.137,2.137,0,0,0-2.4-2.117h-2.75v7.638h.993v-3.4h1.713l2.062,3.4h1.167Z" transform="translate(-479.473 -288.678)" fill="#fff"></path>
    <path d="M546.292,284.752a1.556,1.556,0,0,1-.688.142.762.762,0,0,1-.807-.862v-3.066h1.473v-.818H544.8v-1.67h-.927v1.67h-1.026v.818h1.026V284a1.525,1.525,0,0,0,1.625,1.735,2.546,2.546,0,0,0,.862-.131Zm-5.979.982c1.211,0,2.019-.677,2.019-1.636.011-2.269-3.175-1.408-3.175-2.586,0-.437.393-.688,1.015-.688a1.307,1.307,0,0,1,1.287.927l.775-.338a2.043,2.043,0,0,0-2.04-1.353c-1.178,0-1.931.589-1.931,1.462,0,2.084,3.164,1.178,3.164,2.585,0,.448-.436.84-1.113.84a1.494,1.494,0,0,1-1.495-1.167l-.8.349a2.281,2.281,0,0,0,2.292,1.6m-5.958-.764c-.633,0-1.069-.36-1.069-.873,0-.578.578-.96,1.691-1.08l1.069-.12v.262a1.621,1.621,0,0,1-1.691,1.811m.349-4.91a2.13,2.13,0,0,0-2.225,1.8l.862.164a1.275,1.275,0,0,1,1.364-1.189,1.211,1.211,0,0,1,1.342,1.233v.109l-1.069.12c-1.757.174-2.618.753-2.618,1.811a1.674,1.674,0,0,0,1.855,1.626,2.013,2.013,0,0,0,1.833-1.026v.938h.917v-3.524a2.038,2.038,0,0,0-2.259-2.062m-5.99,4.844a2.015,2.015,0,1,1,1.844-2.008,1.84,1.84,0,0,1-1.844,2.008m0,.829a2.837,2.837,0,1,0-2.793-2.837,2.725,2.725,0,0,0,2.793,2.837m-6.863,0a3.133,3.133,0,0,0,3.218-2.357l-.992-.207a2.121,2.121,0,0,1-2.237,1.669c-1.549,0-2.673-1.058-2.673-3.011s1.124-3.023,2.673-3.023a2.13,2.13,0,0,1,2.247,1.746l.982-.218a3.079,3.079,0,0,0-3.218-2.412,3.911,3.911,0,0,0,0,7.812m-7.539-7.812h-.927v7.725h.927Zm-5.041,7.049c-.633,0-1.07-.36-1.07-.873,0-.578.578-.96,1.692-1.08l1.069-.12v.262a1.622,1.622,0,0,1-1.691,1.811m.349-4.91a2.13,2.13,0,0,0-2.226,1.8l.862.164a1.276,1.276,0,0,1,1.364-1.189,1.212,1.212,0,0,1,1.342,1.233v.109l-1.069.12c-1.757.174-2.619.753-2.619,1.811a1.675,1.675,0,0,0,1.855,1.626,2.014,2.014,0,0,0,1.833-1.026v.938h.916v-3.524a2.038,2.038,0,0,0-2.258-2.062m-2.761.1a1.922,1.922,0,0,0-.633-.1,2.017,2.017,0,0,0-1.713,1.2v-1.113h-.927v5.5h.927v-2.1c0-1.789.709-2.629,1.582-2.629a1.9,1.9,0,0,1,.709.131Zm-4.419,4.593a1.555,1.555,0,0,1-.688.142.762.762,0,0,1-.807-.862v-3.066h1.473v-.818h-1.473v-1.67h-.927v1.67h-1.026v.818h1.026V284a1.525,1.525,0,0,0,1.625,1.735,2.546,2.546,0,0,0,.862-.131Zm-8.009.895v-2.412c0-1.451.655-2.335,1.681-2.335a1.188,1.188,0,0,1,1.244,1.276v3.47h.927V282a1.861,1.861,0,0,0-1.964-1.942,2.168,2.168,0,0,0-1.888,1.124v-1.037h-.927v5.5Zm-6.426-3.35a1.668,1.668,0,0,1,1.68-1.462,1.558,1.558,0,0,1,1.648,1.462Zm4.31.349a2.509,2.509,0,0,0-2.63-2.586,2.842,2.842,0,0,0,.022,5.674,2.317,2.317,0,0,0,2.455-1.691l-.873-.207a1.462,1.462,0,0,1-1.582,1.08,1.77,1.77,0,0,1-1.757-1.844h4.343c.011-.1.022-.295.022-.426m-9.362,3.088a3.134,3.134,0,0,0,3.219-2.357l-.993-.207a2.121,2.121,0,0,1-2.237,1.669c-1.549,0-2.673-1.058-2.673-3.011s1.124-3.023,2.673-3.023a2.131,2.131,0,0,1,2.248,1.746l.982-.218a3.08,3.08,0,0,0-3.219-2.412,3.911,3.911,0,0,0,0,7.812" transform="translate(-479.157 -277.922)" fill="#fff"></path>
  </g>
</svg>
