<?xml version="1.0" encoding="UTF-8"?>
<svg xmlns="http://www.w3.org/2000/svg" version="1.1" id="Layer_1" x="0" y="0" width="300" height="120.5" xml:space="preserve">
  <style>.st0{fill:#fff}</style>
  <path class="st0" d="M120 51.4c-1.4.7-2.1 2.3-1.5 3.5 1.4-.7 2.1-2.2 1.5-3.5zm2.2 4.5c-.6-1.2-2.2-1.7-3.7-1 .6 1.3 2.2 1.7 3.7 1zm-4.7-3.2c-1.4.8-1.9 2.4-1.2 3.6 1.4-.8 1.9-2.4 1.2-3.6zm-1.1 3.6c.7 1.2 2.4 1.5 3.7.7-.7-1.2-2.4-1.5-3.7-.7zm-1.2-2.1c-1.3.9-1.7 2.6-.8 3.7 1.3-1 1.6-2.6.8-3.7z"></path>
  <path class="st0" d="M114.4 57.9c.8 1.1 2.5 1.3 3.8.3-.9-1.1-2.5-1.3-3.8-.3zm-1.4-2.1c-1.2 1-1.4 2.7-.5 3.8 1.2-1 1.4-2.7.5-3.8zm-.5 3.8c.9 1 2.6 1 3.8 0-.9-1-2.6-1-3.8 0zm-1.5-1.9c-1.1 1.1-1.2 2.8-.2 3.8 1.1-1.2 1.2-2.9.2-3.8z"></path>
  <path class="st0" d="M114.6 61.1c-1-1-2.7-.8-3.8.3 1 1 2.7.9 3.8-.3zm-13.1 5c-1.4.2-2.2 1.7-1.9 3.2 1.3-.2 2.2-1.6 1.9-3.2zm-4.9.9c.3 1.6 1.6 2.6 3 2.4-.3-1.6-1.7-2.6-3-2.4zm5.3 1.8c-1.4.1-2.4 1.5-2.2 3.1 1.4-.1 2.4-1.5 2.2-3.1z"></path>
  <path class="st0" d="M97 69.3c.1 1.6 1.4 2.7 2.7 2.6-.1-1.6-1.4-2.7-2.7-2.6zm5.1 2.3c-1.4 0-2.5 1.3-2.5 2.9 1.4-.1 2.5-1.4 2.5-2.9z"></path>
  <path class="st0" d="M97.1 71.6c0 1.6 1.1 2.9 2.5 2.8 0-1.5-1.1-2.8-2.5-2.8zm4.9 2.7c-1.4-.1-2.6 1.1-2.7 2.6 1.4.2 2.6-1 2.7-2.6z"></path>
  <path class="st0" d="M99.3 77c.1-1.6-.9-2.9-2.2-3.1-.2 1.6.8 2.9 2.2 3.1zm3.5 6.8c-.7 0-1.3-.4-1.6-1-.7.3-.9 1.1-.6 1.8.3.7 1.1.9 1.8.6.5-.2.8-.8.7-1.3v-.1h-.3zm5-11.5c-.2-.1-.5-.2-.7-.2h-.1c-.7.1-1.3.7-1.2 1.4.1.7.7 1.3 1.4 1.2.7-.1 1.3-.7 1.2-1.4-.3-.2-.5-.6-.6-1zm-3.7-8c-.2.6-.7 1-1.3 1.1v.3c0 .4.2.7.5.9.3.2.6.3 1 .3.7-.1 1.3-.7 1.2-1.4-.1-.7-.7-1.2-1.4-1.2zm3.4-7.9c.7-.1 1.3-.7 1.2-1.4 0-.1 0-.2-.1-.3h-.1c-.6 0-1.2-.3-1.5-.9-.3.1-.5.2-.6.4-.2.3-.3.6-.3 1 0 .7.6 1.3 1.4 1.2zM93.9 86.2c-.4 0-.8-.1-1.1-.4-.1.1-.2.2-.3.2-.5.6-.4 1.4.1 1.9.3.2.6.3 1 .3.7-.1 1.3-.7 1.2-1.4 0-.3-.1-.5-.3-.7-.2.1-.3.1-.5.1h-.1zm14.8-30c-.2.3-.6.5-.9.6v.2c.1.7.7 1.3 1.4 1.2.7-.1 1.3-.7 1.2-1.4v-.2c-.6 0-1.1-.3-1.4-.8-.1.1-.2.3-.3.4zm1.8 0c.7 0 1.3-.7 1.3-1.4s-.6-1.3-1.4-1.3h-.3c-.2.4-.5.8-1 1v.4c.1.8.7 1.3 1.4 1.3zm-1.9-1.9c.6 0 1.1-.5 1.2-1.1-.4-.3-.7-.8-.7-1.3-.1 0-.2.1-.3.1h-.1c-.3 0-.5-.1-.8-.2-.6.4-.8 1.2-.5 1.8.2.4.7.7 1.2.7zm.1-2.7c.1 0 .3 0 .4-.1.1-.5.4-.9.8-1.2 0 0-.1 0-.1-.1-.3-.3-.6-.7-.6-1.2-.2-.1-.4-.1-.6-.1h-.1c-.7.1-1.3.7-1.2 1.4.1.8.7 1.3 1.4 1.3zm2.7-1c-.1 0-.2.1-.3.1h-.1c-.2 0-.4 0-.6-.1-.7.3-1 1.1-.7 1.7.3.7 1.1 1 1.7.7.7-.3 1-1.1.7-1.7-.2-.3-.4-.6-.7-.7zm-.4-.3c.7-.1 1.3-.7 1.2-1.4-.1-.7-.6-1.2-1.3-1.2h-.1c-.7.1-1.3.7-1.2 1.4.1.7.7 1.2 1.4 1.2zM102.5 65c.7-.1 1.2-.6 1.2-1.3-.4-.3-.7-.7-.8-1.2-.1 0-.2-.1-.2-.1h-.4c-.7.1-1.2.8-1.1 1.5 0 .7.6 1.2 1.3 1.1zm3.5-2.9c-.1-.7-.6-1.2-1.3-1.2h-.1c-.1 0-.2 0-.3.1-.1.5-.4 1-.9 1.3v.1c.1.7.7 1.3 1.4 1.2.7-.1 1.3-.7 1.2-1.5zm-3.3-.1c.7-.1 1.3-.7 1.2-1.4-.1-.7-.6-1.2-1.3-1.2h-.1c-.7.1-1.3.7-1.2 1.4 0 .7.6 1.3 1.4 1.2-.1 0 0 0 0 0zm1.4-2.6c.1.3.2.6.4.8.3.2.6.3 1 .3.7-.1 1.3-.7 1.2-1.4-.1-.7-.6-1.2-1.3-1.2-.1.7-.6 1.3-1.3 1.5zm-.4-.3c.7-.1 1.3-.7 1.2-1.4-.1-.7-.6-1.2-1.3-1.2h-.1c-.7.1-1.3.7-1.2 1.4 0 .7.7 1.2 1.4 1.2zm-8.5 25.3c0-.3-.1-.5-.3-.7-.2.1-.3.1-.5.1h-.1c-.4 0-.8-.1-1.1-.4-.6.4-.8 1.2-.4 1.8s1.2.8 1.8.4c.4-.3.7-.7.6-1.2zm-.9-3.7h-.1c-.7.1-1.3.7-1.2 1.4.1.7.7 1.3 1.4 1.2.3 0 .7-.2.9-.4-.1-.2-.2-.5-.2-.7 0-.4.1-.7.2-1-.2-.3-.6-.5-1-.5zm3.2.8c-.4 0-.8-.1-1.1-.4l-.2-.2c-.7.3-.9 1.1-.6 1.8.3.7 1.1.9 1.8.6.5-.2.8-.8.7-1.3 0-.2-.1-.4-.2-.6-.1 0-.2 0-.3.1h-.1zm1.3-1.9c-.1-.7-.6-1.2-1.3-1.2h-.1c-.7.1-1.3.7-1.2 1.4s.7 1.3 1.4 1.2c.7 0 1.3-.6 1.2-1.4z"></path>
  <path class="st0" d="M103.8 81.3l-.6-.3-.1-.1h-.4c-.7.1-1.3.7-1.2 1.4.1.7.7 1.3 1.4 1.2.2 0 .3-.1.5-.1-.1-.2-.1-.4-.1-.5-.1-.7.1-1.2.5-1.6.1 0 0 0 0 0z"></path>
  <path class="st0" d="M105 84c.7-.1 1.3-.7 1.2-1.4v-.2c-.2-.1-.3-.2-.4-.3-.2-.2-.4-.5-.5-.7-.1 0-.2-.1-.4-.1h-.1c-.7.1-1.3.7-1.2 1.4.1.8.7 1.3 1.4 1.3zm2.6-4.1h-.4c-.4 0-.7-.1-1-.3-.4.3-.7.7-.6 1.2.1.7.7 1.3 1.4 1.2.3 0 .7-.2.9-.5l.3-.6c-.3-.1-.5-.5-.6-1zm1.7-1.5h-.1c-.1 0-.2 0-.3.1 0 .3-.2.7-.4.9-.1.2-.3.3-.5.4.1.7.7 1.3 1.4 1.2.7-.1 1.3-.7 1.2-1.4 0-.6-.6-1.2-1.3-1.2zm-3.7 1.2v-.1c0-.3-.1-.6-.3-.8-.4 0-.8-.2-1.1-.4-.7.1-1.3.7-1.2 1.4.1.7.7 1.3 1.4 1.2.3 0 .6-.1.8-.3 0-.3.2-.7.4-1zm1.7 0c.7-.1 1.3-.7 1.2-1.4-.1-.7-.6-1.2-1.3-1.2h-.1c0 .8-.4 1.5-1.2 1.7.2.5.8.9 1.4.9z"></path>
  <path class="st0" d="M106.7 76.9c-.1-.7-.6-1.2-1.3-1.2h-.1c-.7.1-1.3.7-1.2 1.4.1.7.7 1.3 1.4 1.2.8 0 1.3-.7 1.2-1.4zm3.2-6.1c-.3.3-.7.5-1.1.5h-.3c-.2.2-.3.5-.2.9.1.7.7 1.3 1.4 1.2.7-.1 1.3-.7 1.2-1.4-.1-.6-.5-1.1-1-1.2zm0-.8c-.1-.2-.2-.5-.2-.7v-.5c-.2-.3-.7-.6-1.1-.6h-.1c-.4 0-.7.2-.9.5-.5.6-.4 1.4.1 1.9.6.5 1.4.4 1.9-.1.2-.2.3-.3.3-.5zm2.2-2c-.2.2-.5.3-.8.3h-.1c-.2 0-.4 0-.6-.1l-.1.1c-.2.3-.3.6-.3 1 0 .7.7 1.3 1.4 1.2.7 0 1.3-.7 1.2-1.4-.1-.5-.3-.9-.7-1.1zm-.8-.1c.7-.1 1.3-.7 1.2-1.4v-.1c-.1 0-.1-.1-.2-.1-.3-.2-.4-.5-.5-.8-.2-.1-.4-.2-.6-.2h-.1c-.7.1-1.3.7-1.2 1.4 0 .7.6 1.3 1.4 1.2zm2.1-4.3h-.1c-.7.1-1.3.7-1.2 1.4.1.7.7 1.3 1.4 1.2.7-.1 1.3-.7 1.2-1.4 0-.7-.6-1.2-1.3-1.2zm-79.2 46.7l.5.2c.1-1.4.2-2.7.3-4.1l-.5-.2c-.1 1.3-.2 2.7-.3 4.1zm5 1.2c-.6-1.4-1.3-2.7-1.9-4.1l-.6-.2c-.1 1.4-.2 2.7-.2 4.1l.5.2.2-3.3c.6 1.4 1.2 2.8 1.9 4.1l.6.2c.1-1.4.1-2.7.2-4.1l-.5-.2c-.1 1.1-.1 2.2-.2 3.3zm7.5.6c-.7-.2-1.4-.3-2.1-.5l.1-1.8-.5-.1-.2 4.1.5.1c0-.6.1-1.3.1-1.9.7.2 1.4.4 2.1.5 0 .6 0 1.3-.1 1.9l.5.1.1-4.1c-.2 0-.4-.1-.5-.1v1.8zm2.3 2.8l.5.1c0-1.4.1-2.8.1-4.1l-.5-.1c-.1 1.3-.1 2.7-.1 4.1zm4.7-.2c-.5-1.1-1-2.3-1.5-3.5-.2 0-.5-.1-.7-.1 0 1.4-.1 2.8-.1 4.1l.6.1V112l1.5 3.6h.2c.5-1.1 1.1-2.1 1.6-3.2v3.3h.6v-4.1l-.7-.1c-.5 1.1-1 2.2-1.5 3.2zm10.2.4l-1.2-3.3h-.5c-.4 1.1-.8 2.3-1.2 3.4-.2-1.1-.5-2.2-.7-3.4h-.6c.3 1.4.6 2.8.9 4.1h.7c.4-1.1.8-2.2 1.1-3.3l1.2 3.3h.7c.3-1.4.6-2.8.8-4.2h-.6c-.2 1.1-.4 2.3-.6 3.4zm3.2.1v-1.5c.7-.1 1.4-.1 2.1-.2v-.4c-.7.1-1.4.2-2.1.2V112c.8-.1 1.5-.2 2.3-.3v-.5c-.9.1-1.9.2-2.8.3l.1 4.1c.9-.1 1.9-.2 2.8-.3v-.5c-.8.2-1.6.3-2.4.4zm7-1.1c0-1.2-.1-2.4-.1-3.7l-.5.1.1 4.1 2.7-.6v-.5c-.8.3-1.5.5-2.2.6zm3.4-4.5l.2 4.1.5-.2-.2-4.1-.5.2zm3.9 2.3l-1.5-3-.6.2 1.8 3.6.6-.2c.5-1.6 1-3.1 1.4-4.7-.2.1-.4.1-.6.2-.3 1.3-.7 2.6-1.1 3.9zm3.7-1.2l-.1-1.4c.7-.3 1.3-.5 2-.8v-.4c-.7.3-1.3.6-2 .8 0-.4-.1-.9-.1-1.3l2.1-.9v-.5c-.9.4-1.8.8-2.7 1.1l.2 4.1c.9-.4 1.8-.7 2.7-1.1v-.5l-2.1.9z"></path>
  <path class="st0" d="M95 95.1c-1.4-.3-2.7-.5-4.1-.5 8.8-9 14.8-20.8 18-35.1 0-.2-.1-.4-.3-.5-.2 0-.4.1-.5.3-3.1 14.4-9.2 26.2-18.2 35.1 0 0-.1.1-.1.2-4.6.3-8.4 2.2-9.4 4.1-.2.3-.3.7-.3 1.1v4.6c-5.5 1.8-12.2 3.3-18.9 3.3s-13.5-1.4-18.9-3.3v-4.6c0-.4-.1-.8-.3-1.1-1-1.9-4.9-3.9-9.6-4.1 0-.1 0-.1-.1-.1-8.9-8.9-15-20.8-18.2-35.1 0-.2-.3-.3-.5-.3s-.3.3-.3.5c3.1 14.3 9.2 26.1 18 35.1-1.3 0-2.7.2-4 .5-8.7 2-12.3 7-12.5 7.2-.1.1-.1.2-.1.4 0 .1.1.2.3.3l7.3 2.2c-.7.9-2.1 2.9-2.7 5-.7 2.7.3 6.2.3 6.4 0 .2.2.3.4.3s.3-.1.4-.3c0 0 1.3-3.9 4-5.6 1.3-.9 2.8-1.5 4.4-1.8v2.4c0 .1.1.3.2.3.1.1 14.1 8.6 31.8 8.6s31.6-8.5 31.8-8.6c.1-.1.2-.2.2-.3v-2.4c1.6.3 3 .9 4.4 1.8 2.7 1.7 4 5.6 4 5.6.1.2.2.3.4.3s.3-.1.4-.3c0-.1 1-3.7.3-6.4-.5-2.1-2-4.1-2.7-5l7.3-2.2c.2-.1.3-.3.3-.5 0 0 0-.1-.1-.1-.1-.4-3.8-5.3-12.4-7.4zM80.9 101c1.3.6 3.5-.6 5.9-1.8 2.2-1.2 4.7-2.5 5.5-1.7v.3c-.6 1.5-5.1 4.2-11.4 6.4V101zM30 97.8s0-.1 0 0v-.3c.8-.8 3.3.5 5.5 1.7 2.4 1.3 4.6 2.4 5.9 1.8v3.2c-6.3-2.2-10.8-4.9-11.4-6.4zm-5.6 12.5c-2 1.3-3.2 3.5-3.8 4.8-.2-1.2-.5-3.2 0-4.8.7-2.5 2.9-5.1 2.9-5.1.1-.1.1-.2.1-.4 0-.1-.1-.2-.3-.3l-7.3-2.2c1.1-1.2 4.8-4.8 11.6-6.4 6.8-1.6 12.6 1.3 13.7 3.2.1.2.2.4.2.6v.1c0 .1-.1.3-.2.4-.7.7-3.2-.5-5.3-1.7-2.7-1.4-5.2-2.8-6.5-1.6-.1.1-.2.3-.3.5v10.9c-1.7.4-3.3 1-4.8 2zm36.8 9.4c-16.4 0-29.4-7.3-31.2-8.3V99c3.4 3.4 17 9.4 31.2 9.4s27.8-6 31.1-9.4v12.4c-1.7 1-14.8 8.3-31.1 8.3zm37.9-15.1c-.1 0-.2.1-.3.3 0 .1 0 .3.1.4 0 0 2.2 2.6 2.9 5.1.4 1.6.2 3.5 0 4.8-.6-1.4-1.9-3.6-3.8-4.8-1.5-1-3.1-1.6-4.8-1.9v-11c0-.2-.1-.4-.3-.5-1.2-1.2-3.8.1-6.5 1.6-2.1 1.1-4.6 2.4-5.3 1.7-.1-.1-.2-.2-.2-.4v-.1c0-.2.1-.4.2-.6 1.1-1.9 6.9-4.8 13.7-3.2 6.9 1.6 10.5 5.2 11.6 6.4l-7.3 2.2z"></path>
  <path class="st0" d="M61 101.9c.1 0 .1 0 0 0h.2c17.1-4.3 28.3-15.4 33.4-33.1 4.2-14.4 3.2-29.6 2.7-38.7l-.1-1.8c0-.2-.2-.4-.4-.4-6-.6-7.9-2.8-9.1-4.2l-.3-.3c-.1-.1-.3-.2-.5-.1-7.9 3.3-19.6 3.8-25.8 3.9H61c-5.1 0-17.5-.4-25.7-3.9-.2-.1-.3 0-.5.1l-.3.3c-1.2 1.4-3.1 3.6-9.1 4.2-.2 0-.3.2-.4.4v1.8c-.6 9.1-1.5 24.3 2.7 38.7 5 17.7 16.3 28.8 33.3 33.1zM26.9 62.3h33.9V101C38.6 95.2 30 78.7 26.9 62.3zM61.5 101V62.3h33.9C92.3 78.7 83.7 95.2 61.5 101zM87 24.2l.1.1c1.2 1.4 3.2 3.7 9.3 4.4l.1 1.5c.5 7.6 1.2 19.4-.9 31.4h-34V28c6.3 0 17.6-.6 25.4-3.8zm-61.2 6l.1-1.5c6.1-.7 8.1-3 9.3-4.4l.1-.1c8.2 3.4 20.2 3.8 25.5 3.8v33.5h-34c-2.2-11.9-1.5-23.7-1-31.3zm18.9-16.6c.3 0 .6-.1.9-.2l3.4 5.1c.1.2.3.2.5.1 3-1.3 7.1-2.1 11.6-2.1s8.6.8 11.6 2.1c.2.1.4 0 .5-.1l3.4-5.1c.3.1.6.2.9.2 1.1 0 2.1-.9 2.1-2s-.9-2.1-2-2.1-2.1.9-2.1 2c0 .6.3 1.3.8 1.6-2.3 1.1-7.5 2.7-5.8-6.7 0-.1 0-.1-.1-.1h-.1c-2 2.3-5.5 6.9-9-2.3 1.1 0 1.9-1 1.8-2.1-.1-1.2-1-2-2.2-1.9-1.1.1-1.9 1.1-1.8 2.2.1 1 .9 1.8 1.8 1.8-3.5 9.2-7.1 4.6-9.1 2.3h-.2v.1c1.7 9.4-3.4 7.8-5.8 6.7.9-.7 1-1.9.4-2.8-.7-.9-1.9-1-2.8-.4-.9.7-1 1.9-.4 2.8.5.6 1.1.9 1.7.9zm5.8 2.5c.2-.1 4.4-1.8 10.6-1.8s10.4 1.7 10.6 1.8l.3.1-.2.6-.3-.1S67.2 15 61.2 15s-10.3 1.7-10.3 1.7l-.3.1-.2-.6.1-.1z"></path>
  <path class="st0" d="M62 21.4l-.9-1.6-.8 1.5-1.7.3 1.2 1.2-.3 1.8 1.6-.8 1.6.8-.3-1.7 1.3-1.3zm15.8-1.9l-1.1-1.4-.5 1.7-1.7.6 1.5 1 .1 1.8 1.3-1.1 1.8.5-.7-1.7 1-1.5zm-33.1 2.6l1.4 1.1.1-1.7 1.5-1-1.6-.6-.5-1.8-1.1 1.4-1.8-.1 1 1.4-.7 1.7zm11.6 58.3l-.5-1v-.3c-.1-1-.2-2.1-2-2.7 4.3-3 1.6-8.8 1.6-8.9-.1-.1-.2-.2-.3-.2-.1 0-.2.1-.3.2-.1.2-.2.5-.3.7l-.2.2c-.2.1-.4.3-.6.5-.1.2-.2.4-.2.6 0 .2-.1.3-.2.5-.1.1-.2.1-.4.1-.3 0-.5.1-.7.3-.2.2-.3.3-.4.6-.1.1-.2.3-.3.4-.2.1-.4.2-.5.2-.2 0-.5.1-.7.2-.3.2-.5.4-.6.6-.1.1-.2.3-.4.4-1 .4-1.4.5-1.4.5h-.1c-.5-.2-1-.5-1.4-.9-1.4-1.4-1.4-2-1.3-2.4.1-.3 0-.7-.3-.9-.1 0-.1-.1-.2-.1-.2-.3-.5-.4-.9-.5-.3 0-.5.1-.7.2-.1.1-.3.1-.4.2-.1 0-.2 0-.3-.1-.3-.1-.6-.2-.9-.1-.2.1-.4.3-.5.5l-.3.3h-.5c-.4 0-.6 0-.8.1-.3.2-.3.5-.4.8v.2c-.1.1-.2.1-.4.2s-.5.2-.6.5c-.1.3.2.6.4.9l.2.2c.3.4.9.7 1.7 1 .7.3 1.5.7 2.1 1.1.3.2.6.5.7.9v.1h-.3c-.2 0-.5 0-.7.1-.2.1-.4.3-.5.4l-.3.3h-1.3c-.2.1-.5.2-.7.3l-.6.3c-.2 0-.4 0-.6-.1-.2-.1-.4-.1-.7-.1-.4 0-.7.2-1 .4-.2.1-.3.2-.4.1-.4 0-.8-.1-1.1-.3-.2-.1-.3 0-.4.1 0 .1-.1.2 0 .3.1.1 1.4 3.3 7.3 3.3 3.2 0 5.2-.5 6.3-.9 1.2.8 2.8.8 4.2.8.8 0 1.6 0 2.2.2l1.5.3h.1c.2 0 .3-.1.3-.3v-.3zm-6.8-7.1c.2-.1.4-.3.6-.6.1-.2.3-.3.5-.5.1-.1.3-.1.4-.1.3 0 .6-.1.9-.3.2-.2.3-.4.4-.6.1-.1.1-.2.2-.3.1-.1.3-.1.4-.1.3 0 .5-.1.7-.3.2-.2.3-.5.4-.7 0-.1.1-.2.1-.4.1-.1.2-.2.4-.3.2-.1.4-.2.5-.4l.1-.1c.6 1.6 1.5 5.7-2.1 7.8-.1 0-.2 0-.3-.1l-.2-.2c-.5-.6-1.1-1.1-1.7-1.5-.6-.4-1.3-.7-1.9-.9 0-.2.3-.3.6-.4zm5.1 6.6c-.7-.2-1.5-.2-2.3-.2-1.2 0-2.5 0-3.4-.5.2-.1.4-.2.6-.4.1-.1.1-.3 0-.4-.1-.1-.3-.1-.4 0 0 0-1.7 1.4-7.3 1.4-3.8 0-5.5-1.3-6.3-2.2.1 0 .3.1.4.1.3 0 .5-.1.8-.2.2-.2.5-.2.8-.3.1 0 .3 0 .4.1.3.1.6.1.8.1.3-.1.6-.2.8-.4.1-.1.3-.2.5-.3h1.3c.3-.1.5-.3.6-.5 0-.1.1-.2.2-.2h.4c.2 0 .4 0 .7-.1l.2-.1c.3-.2.7-.3 1-.4.2 0 .3-.2.3-.4 0-.1-.1-.2-.3-.3-.2 0-.4.1-.9.3 0 0 0-.1-.1-.1-.2-.5-.5-.9-1-1.1-.7-.5-1.5-.9-2.2-1.2-.6-.3-1.2-.5-1.4-.8-.1-.1-.1-.2-.2-.3-.1-.1-.2-.2-.2-.3 0 0 .1 0 .2-.1l.6-.3c.1-.2.2-.4.2-.6 0-.1 0-.2.1-.3h.5c.3 0 .5 0 .8-.1.2-.1.4-.3.5-.5l.3-.3c.1 0 .2 0 .4.1s.5.2.7.1c.2-.1.4-.1.6-.3.1-.1.2-.1.3-.1.2 0 .3.2.5.3l.2.2c.1.1.1.1.1.4-.1.7 0 1.5 1.5 3 .7.7 1.6 1 2.5 1.4.7.2 1.3.5 1.9.9.6.4 1.1.9 1.6 1.4.3.3.4.4.5.4 2.4.3 2.5 1.2 2.7 2.4v.4l.2.4-.7-.1z"></path>
  <path class="st0" d="M53.9 78.1c-.2 0-.4.2-.4.4s.2.4.4.4.4-.2.4-.4c0-.3-.2-.4-.4-.4zM66 47.6c.1.1.2.2.3.2h.5l-.7 1.1c-.1.1 0 .3.1.4h.2c1.7 0 8.3.7 10.6 2.8.1.1.2.1.3.1 1.7-.8 6.8 0 11.3 1.7h.2c.1 0 .1-.1.2-.2l3.9-12.1c0-.1 0-.3-.1-.4-.3-.2-.6-.3-.9-.5l.2-.7c0-.1 0-.2-.1-.3-.1-.1-.2-.1-.3-.1-.8.3-2 .4-5-.7-1.1-.3-2.7-.7-3.8-.4-.3-.2-.6-.3-.9-.5-1.4-.8-2.5-1.3-8-1.7-.1 0-.2 0-.3.1L66 47.3c-.1.1-.1.2 0 .3zm26.3-6l-3.7 11.6c-3-1.1-6.7-1.9-9.2-1.9-.7 0-1.4.1-2.1.3-2.5-2.1-8.3-2.7-10.3-2.9l.7-1c2.8 0 7.7.7 9.8 2.8l.1.1h.2c.4-.3 3.1-.9 7.4.8.5.3 1 .4 1.5.4.2 0 .5 0 .7-.1.5-.2.9-.5 1.2-1l3.1-9.3c.2.1.4.2.6.2zm-5.8-2c2.6.9 3.9 1 4.8.8l-3.3 10c-.2.3-.4.5-.8.7-.5.2-1.1.1-1.8-.3-2.3-.9-4.2-1.2-5.6-1.2-.6 0-1.1 0-1.6.2l4.9-10.6c1.1-.3 2.6.1 3.4.4zm-12.3-2.5c5.2.4 6.2.9 7.5 1.6.2.1.5.2.7.4l-5 10.8c-2.6-2.2-8-2.8-10.6-2.7l7.4-10.1zm-37.7 9.5c0 1.9-.4 2.7-1.3 4.1h3.5c-1.1-1.4-1.6-2.2-1.6-4.1l-.1-7.4 4.9 11.1h.5l4.7-11v7.4c0 1.9-.2 2.6-.8 4h5c-.5-1.4-.8-2.2-.8-4v-6.4c0-1.7.4-2.4 1.4-3.5h-4.3l-4 9.4-4.1-9.4h-4.4c.9 1 1.3 1.7 1.4 3v6.8zm45.6 30.9c-1.7 2.9-2.9 4.8-5.2 4.8-2.7 0-4.2-2.5-4.2-6.7s1.1-7 4.2-7c1.9 0 3.1 1 5.1 3.8l.2-.1-.4-3.5c-1.6-.5-3.2-.7-4.8-.7-4.6 0-8 3.3-8 7.4s3.4 7.1 7.8 7.1c2.7 0 4.6-1.1 5.1-1.4l.4-3.8-.2.1zM2.2 51.4c-.6 1.2.1 2.8 1.5 3.5.6-1.2-.1-2.8-1.5-3.5z"></path>
  <path class="st0" d="M3.7 54.9c-1.4-.7-3.1-.3-3.7 1 1.4.7 3.1.3 3.7-1zm.9-2.2c-.7 1.2-.2 2.8 1.2 3.6.7-1.2.2-2.8-1.2-3.6zm1.2 3.6c-1.4-.8-3-.5-3.7.7 1.3.8 3 .5 3.7-.7zm1.1-2.1c-.8 1.1-.4 2.8.8 3.7.9-1.1.5-2.8-.8-3.7z"></path>
  <path class="st0" d="M7.8 57.9c-1.3-.9-3-.8-3.8.3 1.3.9 3 .8 3.8-.3zm1.3-2.1c-.9 1-.7 2.7.5 3.8.9-1 .7-2.7-.5-3.8zm.5 3.8c-1.2-1-2.9-1-3.8 0 1.2 1 2.9 1 3.8 0zm1.5-1.9c-1 1-.9 2.6.2 3.8 1-1 .9-2.7-.2-3.8z"></path>
  <path class="st0" d="M7.6 61.1c1.1 1.1 2.8 1.3 3.8.3-1.2-1.1-2.9-1.2-3.8-.3zm13.1 5c-.3 1.6.6 3 1.9 3.2.3-1.5-.6-2.9-1.9-3.2zm4.9.9c-1.4-.2-2.7.8-3 2.4 1.4.2 2.7-.8 3-2.4zm-5.4 1.8c-.1 1.6.9 2.9 2.2 3.1.2-1.6-.8-2.9-2.2-3.1zm5 .5c-1.4-.1-2.6 1-2.7 2.6 1.3.1 2.6-1 2.7-2.6zm-5.1 2.3c0 1.6 1.1 2.9 2.5 2.9-.1-1.6-1.2-2.9-2.5-2.9zm5 0c-1.4 0-2.5 1.3-2.5 2.8 1.3 0 2.4-1.2 2.5-2.8zM22.8 77c-.1-1.6-1.4-2.8-2.7-2.6.2 1.5 1.4 2.7 2.7 2.6zm2.3-3.1c-1.4.1-2.4 1.5-2.2 3.1 1.3-.2 2.3-1.5 2.2-3.1zm-5.9 9.9H19v.1c-.1.7.5 1.4 1.2 1.4.7.1 1.4-.5 1.4-1.2 0-.5-.3-1.1-.7-1.3-.3.6-.9 1-1.6 1h-.1zm-4.1-11.7H15c-.3 0-.5.1-.7.2-.1.4-.3.8-.6 1 0 .7.5 1.4 1.3 1.4.7 0 1.4-.5 1.4-1.3 0-.6-.5-1.2-1.3-1.3zm2.9-5.2c.7.1 1.4-.5 1.4-1.2v-.3c-.6-.1-1.1-.5-1.3-1.1-.7 0-1.3.6-1.3 1.3-.1.7.5 1.3 1.2 1.3zm-4.3-12.2h-.1c0 .1-.1.2-.1.3-.1.7.5 1.4 1.2 1.4s1.4-.5 1.4-1.2c0-.6-.4-1.2-1-1.4-.3.5-.8.9-1.4.9zm14.9 33.5c.4 0 .7-.1 1-.3.6-.5.6-1.3.1-1.9-.1-.1-.2-.2-.3-.2-.3.3-.7.4-1.1.4h-.1c-.2 0-.3-.1-.5-.1-.4.6-.3 1.4.3 1.9.1.1.3.2.6.2zM14.4 57v-.2c-.4-.1-.7-.3-.9-.6-.1-.1-.2-.3-.3-.5-.1.2-.2.3-.3.4-.3.3-.7.4-1 .4v.2c-.1.7.5 1.4 1.2 1.4.6.2 1.3-.4 1.3-1.1zm-2.7-3.5c-.7 0-1.3.6-1.3 1.3 0 .7.6 1.3 1.3 1.3.7 0 1.3-.5 1.3-1.2v-.4c-.4-.2-.8-.5-1-1h-.3z"></path>
  <path class="st0" d="M14.3 51.8c-.2.1-.5.2-.8.2h-.1c-.1 0-.2 0-.3-.1 0 .5-.3 1-.7 1.3.1.6.6 1 1.2 1.1.7.1 1.4-.5 1.4-1.2 0-.6-.2-1-.7-1.3zm-2-1.5c.3.3.6.7.7 1.2.7.3 1.4 0 1.7-.7.1-.1.1-.3.1-.4.1-.7-.5-1.4-1.2-1.4h-.1c-.2 0-.4.1-.6.1 0 .4-.2.9-.6 1.2zm-.5.3c-.2.1-.4.1-.6.1h-.1c-.1 0-.2 0-.3-.1-.7.3-.9 1.1-.6 1.8.3.7 1.1.9 1.8.6.7-.3.9-1.1.6-1.8-.2-.3-.5-.5-.8-.6zm-.7-.3c.7.1 1.4-.5 1.4-1.2.1-.7-.5-1.4-1.2-1.4h-.1c-.7 0-1.3.6-1.3 1.4 0 .6.6 1.1 1.2 1.2zm8.8 12.1h-.4c-.1 0-.2 0-.2.1-.1.5-.4.9-.8 1.2 0 .7.6 1.3 1.3 1.3.7 0 1.3-.6 1.3-1.3 0-.7-.5-1.2-1.2-1.3zm-1.1-.1v-.1c-.5-.2-.8-.7-.9-1.2-.1 0-.2-.1-.3-.1h-.1c-.7 0-1.3.5-1.3 1.2-.1.7.5 1.4 1.2 1.4.7.1 1.4-.4 1.4-1.2zm.8-3c-.7 0-1.3.6-1.3 1.4 0 .7.6 1.3 1.4 1.3.7 0 1.3-.6 1.3-1.4 0-.7-.6-1.3-1.3-1.3h-.1zm-4.1-.2c-.1.7.5 1.4 1.2 1.4.4 0 .7-.1 1-.3.2-.2.4-.5.4-.8-.7-.2-1.2-.8-1.3-1.6-.7.1-1.3.6-1.3 1.3z"></path>
  <path class="st0" d="M18.4 59.1c.7.1 1.4-.5 1.4-1.2.1-.7-.5-1.4-1.2-1.4h-.1c-.7 0-1.3.6-1.3 1.3 0 .7.5 1.2 1.2 1.3zm9.7 26.7c.7.1 1.4-.5 1.4-1.2 0-.5-.2-1-.6-1.2-.3.3-.7.4-1.1.4h-.1c-.2 0-.3-.1-.5-.1-.5.6-.4 1.4.2 1.9.2.1.5.2.7.2zm-.4-2.4c.7.1 1.4-.5 1.4-1.2.1-.7-.5-1.4-1.2-1.4h-.1c-.4 0-.7.2-1 .5.2.3.3.7.2 1 0 .3-.1.5-.2.7.3.2.6.4.9.4zm-2.5 0c.7 0 1.4-.5 1.4-1.2 0-.5-.2-1-.7-1.3 0 .1-.1.1-.2.2-.3.3-.7.4-1.1.4h-.1c-.1 0-.2 0-.3-.1-.1.2-.2.4-.2.6 0 .7.5 1.4 1.2 1.4zm-.6-2.3c.4 0 .7-.1 1-.3.6-.5.6-1.3.1-1.9-.2-.3-.6-.4-.9-.5h-.1c-.7 0-1.3.6-1.3 1.3-.1.7.5 1.3 1.2 1.4zm-5.1-.3h-.4l-.1.1c-.2.2-.4.3-.6.3.6.5.8 1.3.5 2 .1.1.3.1.4.1.7.1 1.4-.5 1.4-1.2.1-.6-.5-1.3-1.2-1.3zm-2.2.5h-.1c-.1 0-.2 0-.4.1-.1.3-.3.5-.5.7-.1.1-.3.2-.4.3v.2c-.1.7.5 1.4 1.2 1.4.7.1 1.4-.5 1.4-1.2.1-.8-.4-1.4-1.2-1.5zm-1.2.5c.3-.2.4-.6.5-.9 0-.5-.2-1-.6-1.2-.3.2-.6.3-1 .3h-.4c0 .4-.3.8-.6 1.1.1.6.6 1 1.2 1 .3 0 .6-.1.9-.3zm-1.9-2c-.2-.1-.4-.2-.5-.4-.2-.3-.4-.6-.4-.9-.1 0-.2 0-.3-.1h-.1c-.7 0-1.3.6-1.3 1.3 0 .7.6 1.3 1.3 1.3.6.1 1.2-.5 1.3-1.2zm3.7-1.5c-.3.3-.7.4-1.1.4-.2.2-.3.5-.3.8v.1c.2.3.4.6.4.9.2.2.5.3.8.3.7.1 1.4-.5 1.4-1.2.1-.6-.4-1.3-1.2-1.3zM15 76.9c-.8 0-1.4.6-1.4 1.3 0 .7.6 1.3 1.3 1.3.6 0 1.1-.4 1.3-.9-.7-.2-1.2-.9-1.2-1.7z"></path>
  <path class="st0" d="M16.8 75.7h-.1c-.7 0-1.3.6-1.3 1.3 0 .7.5 1.3 1.2 1.3.7.1 1.4-.5 1.4-1.2.2-.7-.4-1.3-1.2-1.4.1 0 .1 0 0 0zm-4.3-2.3c.7.1 1.4-.5 1.4-1.2 0-.3-.1-.6-.2-.9h-.3c-.4 0-.8-.2-1.1-.5-.5.2-.9.6-.9 1.2-.2.7.4 1.3 1.1 1.4zm1.1-5.2h-.1c-.4 0-.8.2-1.1.6v.5c0 .2-.1.5-.2.7.2.7 1 1.1 1.7.8.7-.2 1.1-1 .8-1.7-.1-.5-.6-.8-1.1-.9zm-1.5 1.1c0-.4-.1-.7-.3-1l-.1-.1c-.2.1-.4.1-.6.1H11c-.3 0-.6-.1-.8-.3-.4.2-.6.6-.6 1-.1.7.5 1.4 1.2 1.4.5.2 1.2-.4 1.3-1.1zm-2.4-3v.1c-.1.7.5 1.4 1.2 1.4s1.4-.5 1.4-1.2c.1-.7-.5-1.4-1.2-1.4H11c-.2 0-.4.1-.6.2-.1.3-.3.6-.5.8-.1.1-.1.1-.2.1zm.4-1.3c.1-.7-.5-1.4-1.2-1.4h-.1c-.7 0-1.3.6-1.3 1.3 0 .7.5 1.3 1.2 1.3.7.1 1.3-.5 1.4-1.2zm131.1-31.9h4.6l7.8 19h.1l7.8-19h4.6v25.2h-3.7V39.4h-.1l-7.9 18.9h-1.5L145 39.4h-.1v18.9h-3.7V33.1zm35.2 14.2c3.4-.9 4.5-1.5 4.5-3s-1.3-2.6-3.5-2.6c-2.3 0-4 1.4-4.4 3.8l-3.4-.7c.3-1.8 1.2-3.4 2.6-4.5 1.4-1.1 3.2-1.7 5.2-1.7 4.4 0 7.2 2.5 7.2 6.5v13.1h-3.2v-1.8h-.1c-1 1.5-3 2.4-5.4 2.4-3.8 0-6.3-2.2-6.3-5.5.1-3.2 1.9-4.9 6.8-6zm4.7.8c-.4.8-1.5 1.4-3.8 2-3 .8-4.2 1.6-4.2 3 0 1.6 1.1 2.6 3.2 2.6 2.8 0 4.7-1.6 4.7-3.8v-3.8zm15.2-9.4c2.2 0 4.1.6 5.6 1.9 1.5 1.3 2.5 2.9 2.8 5.1l-3.4.7c-.5-2.8-2.3-4.4-5-4.4-3.3 0-5.4 2.6-5.4 6.8s2.1 6.8 5.4 6.8c2.7 0 4.5-1.5 5-4.4l3.4.7c-.3 2.1-1.3 3.8-2.8 5.1-1.5 1.3-3.4 1.9-5.6 1.9-5.3 0-8.9-4.1-8.9-10.1s3.6-10.1 8.9-10.1zm24.4 27.7v-9.8h-.1c-1.1 1.3-3.2 2.3-5.4 2.3-4.9 0-8.5-4.2-8.5-10.1s3.6-10.1 8.5-10.1c2.2 0 4.2.9 5.4 2.3h.1v-1.8h3.4v27.1h-3.4zm0-19.3c0-2.8-2.3-5.1-5.1-5.1-3.3 0-5.3 2.6-5.3 6.8s2.1 6.8 5.4 6.8c2.8 0 5.1-2.3 5-5.1v-3.4zm6.8-7.9h3.5V51c0 3.1 1.4 4.6 4.3 4.6 2.6 0 4.3-1.8 4.3-4.6V39.2h3.5v19h-3.4v-1.7h-.1c-1.1 1.4-3.2 2.2-5.4 2.2-4.3 0-6.8-2.6-6.8-7.2l.1-12.3zm25.4 8.1c3.4-.9 4.5-1.5 4.5-2.9 0-1.5-1.3-2.6-3.5-2.6-2.3 0-4 1.4-4.4 3.8l-3.4-.7c.3-1.8 1.2-3.4 2.6-4.5 1.4-1.1 3.2-1.7 5.2-1.7 4.4 0 7.1 2.5 7.1 6.5v13.1h-3.2v-1.8h-.1c-1 1.5-3 2.4-5.4 2.4-3.8 0-6.3-2.2-6.3-5.5.2-3.3 2.1-5 6.9-6.1zm4.7.8c-.4.8-1.5 1.4-3.8 2-3 .8-4.2 1.6-4.2 3 0 1.6 1.1 2.6 3.2 2.6 2.8 0 4.7-1.6 4.7-3.8l.1-3.8zm7-8.9h3.3v1.6h.1c.8-1.2 2.2-1.9 4-1.9.7 0 1.4.1 2.1.3l-.7 3.5c-.6-.2-1.3-.3-2-.3-2.2 0-3.3 1.5-3.3 4.8v11.1h-3.5V39.2zm11.3-7h3.8v3.7h-3.8v-3.7zm.2 7h3.5v19h-3.5v-19zm15.3-.5c5.2 0 8.6 3.9 8.6 9.6v1.5h-13.9c0 1.7.5 3.1 1.5 4.2s2.2 1.7 3.8 1.7c2.4 0 3.8-.9 5.4-3.5l2.7 1.8c-1.7 3.2-4.5 4.8-8.1 4.8-5.3 0-8.9-4.1-8.9-10.1 0-5.9 3.7-10 8.9-10zm5.1 8.4c-.1-3.1-2.1-5.3-5.1-5.3-2.9 0-5.1 2.4-5.2 5.3h10.3zm-146 22.4c5.2 0 9.1 3.5 9.7 8.8l-3.6.6c-.7-3.9-2.8-6-6.1-6-4.3 0-7 3.7-7 9.7 0 6 2.7 9.7 7 9.7 3.6 0 5.6-2.2 6.1-6.5l3.7.5c-.3 2.9-1.3 5.2-3 6.9-1.8 1.7-4 2.5-6.8 2.5-6.5 0-10.7-5.2-10.7-13.1 0-7.9 4.2-13.1 10.7-13.1zm20.7 6.1c5.4 0 9.1 4.1 9.1 10.1s-3.7 10.1-9.1 10.1c-5.4 0-9.1-4.1-9.1-10.1s3.7-10.1 9.1-10.1zm0 3.2c-3.4 0-5.6 2.6-5.6 6.8s2.1 6.8 5.6 6.8 5.6-2.6 5.6-6.8-2.1-6.8-5.6-6.8zm12.1-9.9h3.5v26.2h-3.5V68.9zm7.1 0h3.5v26.2h-3.5V68.9zm15.3 6.7c5.2 0 8.6 3.9 8.6 9.6v1.5h-13.9c0 1.7.5 3.1 1.5 4.2s2.2 1.7 3.8 1.7c2.4 0 3.8-.9 5.4-3.5l2.7 1.8c-1.7 3.2-4.5 4.8-8.1 4.8-5.3 0-8.9-4.1-8.9-10.1 0-5.9 3.7-10 8.9-10zm5.1 8.4c-.1-3.1-2.1-5.3-5.1-5.3-2.9 0-5.1 2.4-5.2 5.3h10.3zm10.1 13.1c1.3 2.6 2.6 3.5 5 3.5 2.9 0 4.7-2 4.7-5.2v-2.1h-.1c-1 1.5-3.1 2.4-5.5 2.4-5 0-8.5-4.2-8.5-10.1 0-5.9 3.6-10 8.5-10 2.2 0 4.2.9 5.4 2.3h.1v-1.8h3.4v19.5c0 4.9-3.2 8.2-8.1 8.2-3.6 0-6.6-1.9-8-5l3.1-1.7zm9.6-13.1c0-2.8-2.3-5.1-5.1-5.1-3.2 0-5.3 2.6-5.3 6.8 0 4.2 2.1 6.8 5.4 6.8 2.8 0 5.1-2.3 5-5.1V84zm15.1-8.4c5.2 0 8.6 3.9 8.6 9.6v1.5h-13.9c0 1.7.5 3.1 1.5 4.2s2.2 1.7 3.8 1.7c2.4 0 3.8-.9 5.4-3.5l2.7 1.8c-1.7 3.2-4.5 4.8-8.1 4.8-5.3 0-8.9-4.1-8.9-10.1.1-5.9 3.7-10 8.9-10zm5.2 8.4c-.1-3.1-2.1-5.3-5.1-5.3-2.9 0-5.1 2.4-5.2 5.3h10.3z"></path>
</svg>
