<?xml version="1.0" encoding="UTF-8"?>
<svg xmlns="http://www.w3.org/2000/svg" width="177" height="32" viewBox="0 0 177 32" fill="none">
  <path d="M140.489 10.6455C140.006 10.6455 139.548 10.6646 139.103 10.7091C137.788 10.8235 136.624 11.1159 135.55 11.5864C134.927 11.8661 134.323 12.2284 133.751 12.6417C133.21 13.0231 132.695 13.4427 132.257 13.8813H132.25C131.933 13.4236 131.564 13.0104 131.151 12.6544C130.229 11.8152 129.097 11.2431 127.781 10.9252C127.254 10.7536 126.777 10.6582 125.963 10.6519H125.95C125.912 10.6519 125.989 10.6519 125.95 10.6519V30.0857H133.63V19.0878C133.636 19.037 133.636 18.9925 133.643 18.9416C133.643 18.9416 133.643 18.8908 133.643 18.8653C133.782 16.9645 135.448 15.4642 137.482 15.4579C139.294 15.4706 140.807 16.6721 141.208 18.2805C141.278 18.6492 141.316 19.0497 141.316 19.4756V30.0794H149.116V18.9289C149.116 13.271 145.403 10.6455 140.483 10.6455H140.489Z" fill="white"></path>
  <path d="M30.8088 10.576C28.9334 10.576 27.3759 10.8811 25.971 11.5041C24.7758 12.0445 23.6315 12.8836 22.6907 13.8436H22.6462C21.8197 12.623 20.65 11.7648 19.2514 11.2371C19.2324 11.2308 19.2069 11.2244 19.1879 11.2117C19.1624 11.2053 19.137 11.1926 19.1116 11.1863C18.0054 10.7858 16.734 10.5823 15.3926 10.5823C13.5173 10.5823 11.9598 10.8875 10.5548 11.5105C9.93818 11.7902 9.33425 12.1462 8.7621 12.5594C8.22174 12.9345 7.71317 13.3604 7.27452 13.7927H7.23002C5.87595 11.7965 3.72722 10.7603 1 10.576V30.0098H8.63496V18.9356C8.63496 18.8276 8.63496 18.7068 8.64767 18.5924C8.78753 17.4099 9.52496 16.3991 10.5675 15.8397C10.9935 15.6172 11.4893 15.4519 12.0678 15.3883C12.195 15.3756 12.3221 15.3693 12.4493 15.3693C14.2611 15.3693 15.7804 16.5708 16.1746 18.1791C16.2445 18.5479 16.2826 18.942 16.2826 19.3616V30.0162H23.9875V18.9738C23.9875 18.9229 23.9875 18.8784 23.9875 18.8276C23.9875 18.8021 23.9875 18.7767 23.9875 18.7513C24.1274 16.8569 25.793 15.3629 27.8272 15.3629C29.8615 15.3629 31.6797 16.9967 31.6797 19.0119V30.0098H39.3782V18.8212C39.3782 13.1951 35.6847 10.5823 30.7897 10.5823L30.8088 10.576Z" fill="white"></path>
  <path d="M72.8914 29.9969V10.8301C72.8914 10.8301 65.1992 10.9191 65.1992 18.9037V29.9969H72.8914Z" fill="white"></path>
  <path d="M73.0587 5.03231C73.0587 6.6661 71.4694 7.98839 68.9774 7.98839C66.4854 7.98839 64.9914 6.6661 65.0423 5.03231C64.9914 3.32223 66.5871 2.03809 69.0282 2.03809C71.4694 2.03809 73.0142 3.32223 73.0587 5.03231Z" fill="white"></path>
  <path d="M100.206 30.0028V2.03125C100.206 2.03125 92.5137 2.12025 92.5137 10.1049V30.0028H100.206Z" fill="white"></path>
  <path d="M168.141 12.6546C167.048 11.3323 164.702 10.5186 161.714 10.5186C155.891 10.5186 150.76 14.2121 150.805 20.6265C150.805 26.5387 155.433 30.3848 161.212 30.3848C164.022 30.3848 166.679 29.5075 168.306 27.7847V30.0987H175.998V2C175.998 2 175.929 2 175.801 2.01271C174.574 2.09536 168.313 2.87093 168.313 10.08V12.5593L168.141 12.6546ZM168.236 21.4911C168.236 21.9996 168.185 22.4256 168.039 22.8515C167.588 24.5234 165.846 25.6868 163.659 25.6868C160.519 25.6868 158.478 23.6652 158.478 20.4358C158.478 17.4416 160.271 15.0322 163.71 15.0322C166.049 15.0322 167.696 16.3545 168.141 17.9501C168.192 18.2616 168.243 18.6876 168.243 18.9991V21.4847L168.236 21.4911Z" fill="white"></path>
  <path d="M90.5997 25.4194C90.053 25.4957 89.2329 25.5974 88.292 25.5974C86.0734 25.5974 85.3487 24.6121 85.3042 22.4633V15.4705H90.5298V10.9314H85.3105V4.86035C85.3105 4.86035 78.8961 4.93664 77.8472 10.9378H74.5605V15.4768H77.8091L77.8218 22.1582C77.8345 27.7843 81.4136 30.3907 86.3086 30.3844C87.9424 30.3844 89.3346 30.1428 90.5997 29.6724V25.4258V25.4194Z" fill="white"></path>
  <path d="M52.3464 10.4746C47.9154 10.4746 44.5779 11.4091 42.8869 12.1465V16.6411C44.7559 15.6239 46.8283 14.9755 48.7673 14.6831C49.5047 14.5813 50.2612 14.5178 50.9986 14.5178C54.7367 14.5178 55.6775 16.2278 55.6775 17.2386C47.0636 17.2005 41.1387 19.5717 41.1387 24.5112C41.1387 27.5436 44.0757 30.3471 49.0088 30.3471C51.895 30.3471 53.7958 29.7432 55.6839 28.2556V29.9911H63.0518V18.6817C63.0518 14.2063 60.4645 10.4746 52.3464 10.4746ZM55.6839 22.9982C55.6839 23.3479 55.633 23.6975 55.5313 24.009C55.0354 25.2169 53.4906 26.1895 51.5962 26.1895C49.9052 26.1895 48.6083 25.4521 48.6083 23.9327C48.6083 21.6378 51.6979 20.9004 55.6775 20.9385V22.9982H55.6839Z" fill="white"></path>
  <path d="M113.11 10.4746C108.679 10.4746 105.341 11.4091 103.65 12.1465V16.6411C105.519 15.6239 107.592 14.9755 109.53 14.6831C110.268 14.5813 111.024 14.5178 111.768 14.5178C115.506 14.5178 116.447 16.2278 116.447 17.2386C107.833 17.2005 101.908 19.5717 101.908 24.5112C101.908 27.5436 104.845 30.3471 109.778 30.3471C112.665 30.3471 114.565 29.7432 116.453 28.2556V29.9911H123.821V18.6817C123.821 14.2063 121.234 10.4746 113.116 10.4746H113.11ZM116.447 22.9982C116.447 23.3479 116.396 23.6975 116.294 24.009C115.799 25.2169 114.254 26.1832 112.359 26.1832C110.668 26.1832 109.372 25.4457 109.372 23.9264C109.372 21.6314 112.461 20.894 116.441 20.9321V22.9919L116.447 22.9982Z" fill="white"></path>
</svg>
