<?xml version="1.0" encoding="UTF-8"?>
<svg xmlns="http://www.w3.org/2000/svg" xmlns:xlink="http://www.w3.org/1999/xlink" id="Group_74" data-name="Group 74" width="183.691" height="56.115" viewBox="0 0 183.691 56.115">
  <defs>
    <clipPath id="clip-path">
      <rect id="Rectangle_2" data-name="Rectangle 2" width="183.691" height="56.115" fill="#fff"></rect>
    </clipPath>
  </defs>
  <g id="Group_1" data-name="Group 1" transform="translate(0 0)" clip-path="url(#clip-path)">
    <path id="Path_1" data-name="Path 1" d="M106.707,49.228a21.379,21.379,0,0,0,1.23-8.082v-3.9c0-3.487-.7-5.456-2.543-7.425v-.082l9.066-2.5v4.349l.164.04a8.243,8.243,0,0,1,7.22-4.184c3.2,0,5.251,1.6,5.825,4.144l.164.04a8.03,8.03,0,0,1,7.1-4.184c3.734,0,6.113,2.256,6.113,5.867v7.835a21.8,21.8,0,0,0,1.19,8.082v.082h-9.066v-.082a20.921,20.921,0,0,0,1.19-8v-7.1a2.483,2.483,0,0,0-2.749-2.749,4.171,4.171,0,0,0-3.774,2.215v7.548a20.118,20.118,0,0,0,1.23,8.082v.082h-9.107v-.082a21.027,21.027,0,0,0,1.149-8v-7.1c0-1.559-.656-2.749-2.543-2.749a4.424,4.424,0,0,0-3.938,2.339v7.466a22.894,22.894,0,0,0,1.149,8.04v.082h-9.066Z" transform="translate(-35.86 -9.268)" fill="#fff"></path>
    <path id="Path_2" data-name="Path 2" d="M163.029,49.228a23.51,23.51,0,0,0,1.23-8.082V37.331c0-3.447-.7-5.457-2.543-7.426v-.164l9.231-2.5V41.188a21.963,21.963,0,0,0,1.149,8.04v.082h-9.066Z" transform="translate(-55.023 -9.268)" fill="#fff"></path>
    <path id="Path_3" data-name="Path 3" d="M164.218,14.352a3.764,3.764,0,0,1,3.774-3.774,3.872,3.872,0,0,1,3.9,3.774,3.845,3.845,0,0,1-3.9,3.774,3.739,3.739,0,0,1-3.774-3.774" transform="translate(-55.875 -3.599)" fill="#fff"></path>
    <path id="Path_4" data-name="Path 4" d="M198.283,43.549a9.138,9.138,0,0,1-9.231,6.523C183.1,50.072,179,45.846,179,39.323c0-6.892,5-11.773,11.979-11.773a16.624,16.624,0,0,1,5.907,1.025l.656,6.113-.534.164c-2.584-3.4-4.759-5.7-6.81-5.7-2.379,0-4.389,2.5-4.389,7.384,0,6.072,3.036,8.574,6.769,8.574a7.144,7.144,0,0,0,5.169-1.887Z" transform="translate(-60.905 -9.374)" fill="#fff"></path>
    <path id="Path_5" data-name="Path 5" d="M209.959,45.4c0-5,6.2-7.3,11.241-8.41v-1.23c0-2.626-1.149-3.774-4.226-3.774a14.405,14.405,0,0,0-5.661,1.23l-.492-.574a13.139,13.139,0,0,1,10.256-5.087c4.677,0,6.81,2.543,6.81,6.235v9.928c0,1.312.451,2.215,1.846,2.215a2.882,2.882,0,0,0,2.093-.862l.492.41c-.656,1.558-2.215,4.554-6.113,4.554-2.831,0-4.39-1.559-4.8-3.528a8.055,8.055,0,0,1-6.441,3.569c-2.83,0-5-1.682-5-4.677m8.779.616a4.287,4.287,0,0,0,2.462-.779V38.585c-3.446.985-5.374,2.667-5.374,4.718a2.665,2.665,0,0,0,2.913,2.708" transform="translate(-71.438 -9.374)" fill="#fff"></path>
    <path id="Path_6" data-name="Path 6" d="M265.069,35.476V27.641c0-3.61-2.379-5.867-6.113-5.867a8.029,8.029,0,0,0-7.1,4.183V10.575l-9.189,2.5v.082c1.8,1.969,2.5,3.98,2.5,7.425V35.476a21.364,21.364,0,0,1-1.231,8.082v.082h9.107v-.082a21.858,21.858,0,0,1-1.19-8.041v-7.59a4.171,4.171,0,0,1,3.773-2.214,2.483,2.483,0,0,1,2.749,2.749v7.1a20.921,20.921,0,0,1-1.19,8v.082h9.066v-.082a21.8,21.8,0,0,1-1.19-8.082" transform="translate(-82.568 -3.598)" fill="#fff"></path>
    <path id="Path_7" data-name="Path 7" d="M28.058,56.115a28.058,28.058,0,1,1,19.849-8.209,27.984,27.984,0,0,1-19.849,8.209m0-53.17a25.112,25.112,0,1,0,17.766,7.346A25.047,25.047,0,0,0,28.058,2.945" transform="translate(0 0)" fill="#fff"></path>
    <rect id="Rectangle_1" data-name="Rectangle 1" width="2.946" height="52.958" transform="translate(26.584 1.578)" fill="#fff"></rect>
    <path id="Path_8" data-name="Path 8" d="M55.03,55.412l-2.454-1.63c.059-.088,5.958-9.223,5.958-24.974s-5.9-24.887-5.959-24.976L55.03,2.2c.263.4,6.451,9.9,6.451,26.605s-6.188,26.209-6.451,26.6" transform="translate(-17.888 -0.749)" fill="#fff"></path>
    <path id="Path_9" data-name="Path 9" d="M25.433,55.412c-.264-.4-6.45-9.9-6.45-26.6S25.17,2.6,25.433,2.2l2.454,1.631L26.66,3.017l1.228.813c-.059.09-5.96,9.224-5.96,24.976s5.9,24.886,5.96,24.976Z" transform="translate(-6.459 -0.749)" fill="#fff"></path>
    <path id="Path_10" data-name="Path 10" d="M23.449,61.073l-.583-2.889c.1-.02,10.734-2.308,21.873-13.446S58.164,22.969,58.186,22.863l2.888.586c-.094.466-2.442,11.562-14.252,23.372S23.915,60.98,23.449,61.073" transform="translate(-7.78 -7.779)" fill="#fff"></path>
    <path id="Path_11" data-name="Path 11" d="M7.165,42.487,4.277,41.9c.094-.466,2.442-11.563,14.252-23.373S41.436,4.371,41.9,4.277l.583,2.888-.292-1.444.294,1.444c-.106.022-10.737,2.309-21.875,13.447S7.187,42.381,7.165,42.487" transform="translate(-1.455 -1.455)" fill="#fff"></path>
  </g>
</svg>
