<?xml version="1.0" encoding="UTF-8"?>
<svg xmlns="http://www.w3.org/2000/svg" width="233" height="45.898" viewBox="0 0 233 45.898">
  <g id="OD_Logo_Yellow" transform="translate(0 0)">
    <path id="Контур_1" data-name="Контур 1" d="M79.464,43.348c0-4.39.453-6.391,3-6.391,2.8,0,2.847,2.7,2.847,8.594v.594c0,5.546-.251,8.392-2.9,8.392-2,0-2.95-1.9-2.95-5.742ZM72.571,67.925h6.942V56.342a6.735,6.735,0,0,0,5.644,2.694c5.546,0,7.144-4.144,7.144-12.733,0-5.644-.2-9.341-2.35-11.588a6.865,6.865,0,0,0-4.94-1.947,5.931,5.931,0,0,0-5.546,2.994l-.229-2.4H72.32c.153,2.045.251,3.817.251,5.54Z" transform="translate(-42.955 -22.026)" fill="#fff"></path>
    <path id="Контур_2" data-name="Контур 2" d="M123.265,42.688v-.856c0-3.348,1.091-5,3.2-5,1.947,0,3.092,1.347,3.092,3.746v2.1Zm6.386,6.435v.447c0,3.348-1.151,5.044-3.272,5.044-2.247,0-3.146-1.7-3.146-5.393v-2.6H136.62V42.808c0-6.795-3.3-10.088-10.186-10.088-7.634,0-10.394,3.844-10.394,12.586,0,9.739,2.1,13.633,10.394,13.633,6.838,0,10.186-3.272,10.186-9.816Z" transform="translate(-62.834 -22.005)" fill="#fff"></path>
    <path id="Контур_3" data-name="Контур 3" d="M161.6,58.427V37.847a28.848,28.848,0,0,0-.251-4.493h7.089l.2,2.6a6,6,0,0,1,5.606-3.2c4.4,0,6.795,2.3,6.795,6.593V58.432h-7.056V41.293c0-2.8-.4-4.248-2.345-4.248-1.8,0-3,1.352-3,3.55V58.427Z" transform="translate(-83.437 -22.017)" fill="#fff"></path>
    <path id="Контур_4" data-name="Контур 4" d="M218.13,44.33l5.344-25.084c.5-.049,1-.049,1.451-.049,4,0,5.393,1.6,5.393,5.791a34.13,34.13,0,0,1-.851,6.98,39.188,39.188,0,0,1-2.5,8.441c-1.5,3.092-3.2,3.992-7.144,3.992C219.33,44.379,218.73,44.379,218.13,44.33Zm-8.79,5.546H219.7c3,0,5.8,0,8.49-1.052a10.509,10.509,0,0,0,5.5-5.24c1.194-2.149,2.394-6.495,3.643-13.038a34.294,34.294,0,0,0,.6-6.244c0-7.743-3.245-10.361-11.239-10.361H216.98Z" transform="translate(-105.257 -13.466)" fill="#fff"></path>
    <path id="Контур_5" data-name="Контур 5" d="M278.239,37.106c1.636,0,2.443,1,2.443,2.945a31.625,31.625,0,0,1-.8,5.742,54.383,54.383,0,0,1-1.5,6.1c-.7,1.9-1.636,2.847-3.245,2.847s-2.5-1.052-2.5-3.048c0-1.347.649-4.046,1.549-8.24a29.215,29.215,0,0,1,.894-3.6C275.747,38.006,276.636,37.106,278.239,37.106ZM265.85,50.69c0,5.393,3.2,8.289,9.27,8.289,4.4,0,7.144-1.347,9.139-4.542a25.532,25.532,0,0,0,2.547-7.193,28.969,28.969,0,0,0,.8-6.1c0-5.453-3.2-8.387-9.237-8.387-4.4,0-7.144,1.3-9.188,4.542a23.83,23.83,0,0,0-2.5,7.089,31.725,31.725,0,0,0-.829,6.3Z" transform="translate(-130.952 -22.023)" fill="#fff"></path>
    <path id="Контур_6" data-name="Контур 6" d="M323.754,37.106c1.636,0,2.448,1,2.448,2.945a31.63,31.63,0,0,1-.8,5.742,54.4,54.4,0,0,1-1.5,6.1c-.7,1.9-1.636,2.847-3.245,2.847s-2.5-1.052-2.5-3.048c0-1.347.649-4.046,1.549-8.24a27.746,27.746,0,0,1,.9-3.6C321.262,38.006,322.156,37.106,323.754,37.106ZM311.37,50.69c0,5.393,3.2,8.289,9.27,8.289,4.4,0,7.138-1.347,9.139-4.542a25.531,25.531,0,0,0,2.547-7.193,29.025,29.025,0,0,0,.8-6.1c0-5.453-3.2-8.387-9.243-8.387-4.4,0-7.143,1.3-9.188,4.542a23.832,23.832,0,0,0-2.5,7.089,31.727,31.727,0,0,0-.829,6.3Z" transform="translate(-151.65 -22.023)" fill="#fff"></path>
    <path id="Контур_7" data-name="Контур 7" d="M358.272,39.233q.6-2.847.894-5.54h6.844l-.6,3.643A7.26,7.26,0,0,1,372,33.518a7.558,7.558,0,0,1,1.052.049l-1.3,6.244a14.689,14.689,0,0,0-1.892-.2c-3.55,0-5.05,2.045-5.944,6.391l-2.727,12.738H354.1Z" transform="translate(-171.079 -22.367)" fill="#fff"></path>
    <path id="Контур_8" data-name="Контур 8" d="M392.69,50.412a9.641,9.641,0,0,0-.147,1.549c0,1.9.8,2.727,2.6,2.727a2.715,2.715,0,0,0,2.7-3c0-2.247-1.947-3.043-5.148-5.453-2.6-1.947-4.242-3.4-4.242-6.244,0-4.444,3.348-7.291,9.537-7.291,5.742,0,8.725,2.1,8.725,5.944a8.6,8.6,0,0,1-.2,1.9h-6.576a6.161,6.161,0,0,0,.147-1.249,2.142,2.142,0,0,0-2.4-2.448,2.241,2.241,0,0,0-2.345,2.4c0,2,1.794,2.994,4.946,5.044,2.8,1.843,4.641,2.994,4.641,6.691,0,5.2-3.5,7.989-10.235,7.989-6,0-9.041-2.247-9.041-6.593a16.737,16.737,0,0,1,.147-2Z" transform="translate(-185.424 -21.996)" fill="#fff"></path>
    <path id="Контур_9" data-name="Контур 9" d="M26.012,31.4c0-8.889.6-12.738,4.7-12.738,4,0,4.6,3.817,4.6,12.389,0,9.188-.4,13.382-4.7,13.382C26.562,44.431,26.012,40.3,26.012,31.4Zm4.7,18.628c4.4,0,7.842-1.6,9.586-4.193,2.3-3.446,2.552-8.289,2.552-15.181,0-7.394-.7-12.188-3.948-15.034-1.745-1.549-4.646-2.547-8.24-2.547-4.548,0-7.945,1.494-9.69,4.144-2.05,3.048-2.5,7.542-2.5,13.884,0,8.289.747,13.535,4.144,16.485C24.212,48.978,27.162,50.025,30.707,50.025Z" transform="translate(-18.47 -13.07)" fill="#fff"></path>
    <path id="Контур_10" data-name="Контур 10" d="M439.267,37.364a3.888,3.888,0,1,1-3.855-3.784,3.817,3.817,0,0,1,3.855,3.784Zm-6.805,0a2.945,2.945,0,0,0,2.95,3.026,2.958,2.958,0,1,0-2.95-3Zm2.328,1.963h-.878V35.543a9.87,9.87,0,0,1,1.456-.1,2.018,2.018,0,0,1,1.292.3.949.949,0,0,1,.393.807.982.982,0,0,1-.791.9V37.5c.371.12.545.42.671.927a3.486,3.486,0,0,0,.278.922h-.922a2.988,2.988,0,0,1-.3-.922c-.071-.393-.3-.578-.785-.578h-.414Zm0-2.121h.414c.485,0,.878-.164.878-.545s-.256-.578-.807-.578a1.838,1.838,0,0,0-.485.049Z" transform="translate(-206.269 -22.396)" fill="#fff"></path>
  </g>
</svg>
