<?xml version="1.0" encoding="UTF-8"?>
<svg xmlns="http://www.w3.org/2000/svg" width="198.752" height="35.251" viewBox="0 0 198.752 35.251">
  <g id="Group_3078" data-name="Group 3078" transform="translate(-140 -55.374)">
    <path id="Path_30" data-name="Path 30" d="M70.786,30.44a2.05,2.05,0,0,0,.619-1.476,2.072,2.072,0,0,0-2.077-2.077,2.05,2.05,0,0,0-1.295.464A18.331,18.331,0,0,0,55.851,23.22,18.239,18.239,0,0,0,43.48,27.577,2.072,2.072,0,1,0,40.8,30.692a18.359,18.359,0,0,0-2.863,10.163c0,6.778,1.931,9.8,1.931,9.8l-2.13,5.011A.972.972,0,0,0,38.9,56.991c2.408-.694,6.186-1.8,6.186-1.8s3.628,3.283,10.768,3.283c9.279,0,17.9-7.07,17.9-17.674A18.1,18.1,0,0,0,70.786,30.44ZM45.066,39.4a1.5,1.5,0,1,1,1.5-1.5,1.5,1.5,0,0,1-1.5,1.5Zm10.786,7.8c-2.183,0-5.4-2.417-5.4-5.4,0-1.926,2.417-2.563,5.4-2.563s5.4.561,5.4,2.563C61.251,44.774,58.03,47.2,55.851,47.2Zm10.781-7.8a1.5,1.5,0,1,1,1.5-1.5,1.5,1.5,0,0,1-1.5,1.5Z" transform="translate(102.347 32.154)" fill="#ff1c4d"></path>
    <g id="RG_Logo_Wordmark-Red" transform="translate(154.51 30.231)">
      <path id="Path_549" data-name="Path 549" d="M46.718,47.692A3,3,0,0,1,44.8,50.72a3.131,3.131,0,0,0-2.037-.79c-1.706,0-2.515,1.228-2.515,3.652v3.554c0,2.1-1.082,2.788-2.551,2.788h-.6c-1.579,0-2.61-.659-2.61-2.788V45.417c0-.213,1.023-.648,2.176-.648a3.064,3.064,0,0,1,2.965,1.765,3.293,3.293,0,0,1,.328.932,3.664,3.664,0,0,1,3.6-2.847A2.9,2.9,0,0,1,46.718,47.692Z" transform="translate(0 -9.114)" fill="#fff"></path>
      <path id="Path_550" data-name="Path 550" d="M84.782,47.764V59.491a3.228,3.228,0,0,1-2.215.659,3.135,3.135,0,0,1-3.088-1.919A3.309,3.309,0,0,1,79.3,57.6a5.443,5.443,0,0,1-4.884,2.764c-3.834,0-5.244-2.764-5.244-5.844v-6.76c0-2.037,1.05-2.764,2.519-2.764h.6c1.556,0,2.634.628,2.634,2.764v5.792c0,1.35.691,2.16,1.919,2.16a2.574,2.574,0,0,0,2.187-1.185V47.764c0-2.069,1.05-2.764,2.547-2.764h.6C83.712,45,84.782,45.616,84.782,47.764Z" transform="translate(-20.987 -9.344)" fill="#fff"></path>
      <path id="Path_551" data-name="Path 551" d="M131,50.44V57.12c0,2.069-1.046,2.788-2.547,2.788h-.58c-1.532,0-2.61-.659-2.61-2.788V51.427c0-1.319-.687-2.156-1.887-2.156a2.543,2.543,0,0,0-2.215,1.185V57.12c0,2.1-1.082,2.788-2.547,2.788h-.612c-1.56,0-2.606-.659-2.606-2.788V45.405c0-.213,1.027-.648,2.211-.648a3.147,3.147,0,0,1,3.265,2.606,5.594,5.594,0,0,1,4.884-2.764C129.6,44.6,131,47.384,131,50.44Z" transform="translate(-48.963 -9.102)" fill="#fff"></path>
      <path id="Path_552" data-name="Path 552" d="M157.58,58.288c0-2.1,1.856-3.475,4.521-3.806a1.864,1.864,0,0,1-.478-1.346,2.045,2.045,0,0,1,1.228-1.8c-2.736-.687-4.284-2.456-4.284-4.884,0-3.265,3-5.63,7.222-5.63a8.15,8.15,0,0,1,2.728.478l.509-1.078a2.706,2.706,0,0,1,2.574-1.86,2.974,2.974,0,0,1,2.7,2.4l-2.574,2.4a4.738,4.738,0,0,1,1.378,3.265c0,3.056-2.46,5.034-6.444,5.212-.209,0-.419.032-.628.032.059.178.3.328.659.478.446.422,1.528.541,3.025.959,2.069.569,4.225,1.769,4.225,4.343,0,2.91-3,4.857-8.272,4.857C160,62.3,157.58,60.953,157.58,58.288Zm11.146-.059c0-.719-.723-1.05-1.86-1.35-.359-.118-.719-.178-1.185-.3-1.8.154-2.938.79-2.938,1.741,0,.869.991,1.406,3.028,1.406S168.726,59.145,168.726,58.229Zm-.715-11.837a2.2,2.2,0,1,0-1.073,1.986A2.2,2.2,0,0,0,168.012,46.391Z" transform="translate(-74.489 -5.325)" fill="#fff"></path>
      <path id="Path_553" data-name="Path 553" d="M208.948,44.59c4.857,0,8.031,3.115,8.031,7.79s-3.206,7.79-8.118,7.79-8.031-3.056-8.031-7.822C200.83,47.705,204.056,44.59,208.948,44.59Zm-.028,4.375a3.409,3.409,0,1,0,3.159,3.415,3.149,3.149,0,0,0-3.159-3.415Z" transform="translate(-100.662 -9.096)" fill="#fff"></path>
      <path id="Path_554" data-name="Path 554" d="M263.622,52.351c0,4.616-2.669,7.822-6.744,7.822a4.651,4.651,0,0,1-4.316-2.578v5.184c0,2.037-1.046,2.764-2.515,2.764h-.6c-1.556,0-2.638-.628-2.638-2.764V45.406c0-.213,1.05-.659,2.219-.659a3.218,3.218,0,0,1,3.3,2.488,1.322,1.322,0,0,1,.028.359,4.7,4.7,0,0,1,4.525-3C260.953,44.592,263.622,47.558,263.622,52.351Zm-5.453.032c0-2.037-1.141-3.329-2.878-3.329a2.894,2.894,0,0,0-2.728,1.71V53.22a2.508,2.508,0,0,0,2.7,2.488C257,55.707,258.17,54.389,258.17,52.383Z" transform="translate(-128.487 -9.098)" fill="#fff"></path>
      <path id="Path_555" data-name="Path 555" d="M309.952,41.579v6.44c0,2.069-1.046,2.788-2.515,2.788h-.584c-1.556,0-2.638-.659-2.638-2.788V42.444c0-1.437-.687-2.274-1.856-2.274a2.11,2.11,0,0,0-2.247,2.4v5.453c0,2.1-1.078,2.788-2.547,2.788h-.6c-1.528,0-2.606-.659-2.606-2.788v-17.8c0-.209,1.046-.659,2.215-.659,1.65,0,3.554.869,3.554,4.375v4.256a4.959,4.959,0,0,1,4.612-2.7C308.547,35.494,309.952,38.369,309.952,41.579Z" transform="translate(-157.262)" fill="#fff"></path>
      <path id="Path_556" data-name="Path 556" d="M346.467,44.59c4.525,0,7.672,3.115,7.672,7.4v.265c-.028.869-.268,1.378-1.185,1.378H343.5a1.67,1.67,0,0,0,.122.419,3.276,3.276,0,0,0,3.415,2.215,3.865,3.865,0,0,0,3.554-1.8c.032-.059,2.728.032,2.728,2.219a2.938,2.938,0,0,1-1.678,2.488,9.674,9.674,0,0,1-4.793.987c-5.066,0-8.24-2.878-8.24-7.672A7.611,7.611,0,0,1,346.467,44.59Zm-.087,3.684a2.831,2.831,0,0,0-2.819,2.7h5.469A2.534,2.534,0,0,0,346.38,48.274Z" transform="translate(-184.04 -9.096)" fill="#fff"></path>
      <path id="Path_557" data-name="Path 557" d="M395.024,47.674a3,3,0,0,1-1.919,3.028,3.131,3.131,0,0,0-2.037-.79c-1.706,0-2.515,1.228-2.515,3.652v3.554c0,2.1-1.082,2.788-2.547,2.788h-.6c-1.56,0-2.606-.659-2.606-2.788V45.4c0-.213,1.019-.659,2.187-.659a3.064,3.064,0,0,1,2.965,1.765,3.293,3.293,0,0,1,.328.932,3.664,3.664,0,0,1,3.6-2.847A2.909,2.909,0,0,1,395.024,47.674Z" transform="translate(-210.782 -9.096)" fill="#fff"></path>
    </g>
  </g>
</svg>
