<?xml version="1.0" encoding="UTF-8"?>
<svg xmlns="http://www.w3.org/2000/svg" width="80.448" height="80.448" viewBox="0 0 80.448 80.448">
  <g id="Group_870" data-name="Group 870" transform="translate(-200 -2513)">
    <g id="Layer_1-2" transform="translate(200 2513)">
      <path id="Rectangle_87" data-name="Rectangle 87" d="M5,0H40.224a0,0,0,0,1,0,0V40.224a0,0,0,0,1,0,0H0a0,0,0,0,1,0,0V5A5,5,0,0,1,5,0Z" fill="#d6a102"></path>
      <path id="Rectangle_88" data-name="Rectangle 88" d="M0,0H40.224a0,0,0,0,1,0,0V35.224a5,5,0,0,1-5,5H0a0,0,0,0,1,0,0V0A0,0,0,0,1,0,0Z" transform="translate(40.224 40.224)" fill="#d6a102"></path>
      <path id="Path_463" data-name="Path 463" d="M16.463,17.722H14.226V17.34A1.556,1.556,0,0,1,14.8,16.1l.872-.921a2.556,2.556,0,0,0,.863-2.046V12.34c0-1.158-.564-1.71-1.784-1.71A1.592,1.592,0,0,0,12.945,12.4v.98h1.245V12.365c0-.49.24-.635.527-.635.262,0,.49.108.49.61v.669a1.6,1.6,0,0,1-.5,1.4l-.767.813a2.826,2.826,0,0,0-1.017,2.117v1.494h3.54V17.719Z" transform="translate(-8.939 -7.355)" fill="#fff"></path>
      <path id="Path_464" data-name="Path 464" d="M35.575,92.231v.592a.264.264,0,0,0,.262.253H42.5a.264.264,0,0,0,.262-.265h0v-.644a10.327,10.327,0,0,0,7.148-7.939.046.046,0,0,1,0-.022c0-.012,0-.025,0-.037a.268.268,0,0,0-.268-.268H28.5a.268.268,0,0,0-.268.268l.015.12a10.362,10.362,0,0,0,7.333,7.943" transform="translate(-19.533 -58.051)" fill="#fff"></path>
      <path id="Path_465" data-name="Path 465" d="M73.221,53.976c-.086.123-2.129,3.065.046,5.444a2.377,2.377,0,0,1,.625,2.705h1.4a3.431,3.431,0,0,0-.967-3.4c-1.6-1.753.022-4.122.046-4.159a.524.524,0,0,0-.228-.783.743.743,0,0,0-.918.194" transform="translate(-50.003 -37.155)" fill="#fff"></path>
      <path id="Path_466" data-name="Path 466" d="M60.232,62.132h1.4a3.431,3.431,0,0,0-.967-3.4c-1.605-1.753.018-4.119.043-4.159a.522.522,0,0,0-.228-.779.743.743,0,0,0-.918.194c-.086.123-2.132,3.065.046,5.444a2.377,2.377,0,0,1,.625,2.705" transform="translate(-40.549 -37.162)" fill="#fff"></path>
      <path id="Path_467" data-name="Path 467" d="M45.906,53.979c-.089.123-2.132,3.065.046,5.444a2.384,2.384,0,0,1,.629,2.705h1.4a3.431,3.431,0,0,0-.967-3.4c-1.605-1.753.018-4.122.046-4.159a.522.522,0,0,0-.228-.779.736.736,0,0,0-.918.194" transform="translate(-31.102 -37.157)" fill="#fff"></path>
      <path id="Path_468" data-name="Path 468" d="M37.745,13.554h.866v.465H37.15v-.465l.9-2.459h-.8V10.63h1.4V11.1l-.9,2.459Z" transform="translate(-25.704 -7.355)" fill="#fff"></path>
      <path id="Path_469" data-name="Path 469" d="M42.98,10.63h1.359V11.1H43.55v.97h.564v.459H43.55v1.029h.789v.465H42.98Z" transform="translate(-29.738 -7.355)" fill="#fff"></path>
      <path id="Path_470" data-name="Path 470" d="M48.95,12.463v1.556h-.57V10.63h.829c.576,0,.786.287.786.761v.434c0,.364-.129.579-.456.656l.545,1.54h-.6l-.536-1.556Zm0-1.371v1.054h.191a.247.247,0,0,0,.28-.28v-.5c0-.185-.086-.274-.28-.274Z" transform="translate(-33.475 -7.355)" fill="#fff"></path>
      <path id="Path_471" data-name="Path 471" d="M54.63,13.054V11.415a.864.864,0,1,1,1.725,0v1.639a.864.864,0,1,1-1.725,0Zm1.155.089V11.323c0-.206-.089-.351-.3-.351s-.29.145-.29.351v1.821c0,.206.089.351.29.351S55.785,13.35,55.785,13.143Z" transform="translate(-37.799 -7.265)" fill="#fff"></path>
      <path id="Path_472" data-name="Path 472" d="M38.4,27.935H37.85v1.494h-.57V26.04h.57v1.436H38.4V26.04h.576v3.389H38.4Z" transform="translate(-25.794 -18.017)" fill="#fff"></path>
      <path id="Path_473" data-name="Path 473" d="M45.494,26.04v2.566c0,.524-.225.866-.8.866a.774.774,0,0,1-.85-.866V26.04h.57v2.619c0,.2.08.336.28.336s.28-.136.28-.336V26.04Z" transform="translate(-30.333 -18.017)" fill="#fff"></path>
      <path id="Path_474" data-name="Path 474" d="M50.741,27.3v2.129H50.26V26.04h.561l.616,1.944V26.04h.474v3.389h-.5L50.744,27.3Z" transform="translate(-34.775 -18.017)" fill="#fff"></path>
      <path id="Path_475" data-name="Path 475" d="M57.53,27.537h.81v1.812h-.41v-.37a.512.512,0,0,1-.545.41c-.49,0-.715-.391-.715-.915V26.835a.8.8,0,0,1,.856-.915c.629,0,.816.351.816.85v.3h-.521v-.345c0-.21-.08-.33-.287-.33s-.3.145-.3.351v1.821c0,.206.086.351.28.351s.28-.1.28-.323v-.6H57.53v-.45Z" transform="translate(-39.211 -17.934)" fill="#fff"></path>
      <path id="Path_476" data-name="Path 476" d="M63.15,26.04h1.359v.465H63.72v.97h.564v.459H63.72v1.029h.789v.465H63.15Z" transform="translate(-43.694 -18.017)" fill="#fff"></path>
      <path id="Path_477" data-name="Path 477" d="M69.12,27.883v1.556h-.57V26.05h.829c.576,0,.786.287.786.761v.434c0,.364-.129.579-.456.656l.545,1.54h-.6l-.536-1.556Zm0-1.371v1.054h.191a.247.247,0,0,0,.28-.28v-.5c0-.185-.086-.274-.28-.274Z" transform="translate(-47.43 -18.024)" fill="#fff"></path>
      <path id="Rectangle_89" data-name="Rectangle 89" d="M0,0H35.224a5,5,0,0,1,5,5V40.224a0,0,0,0,1,0,0H0a0,0,0,0,1,0,0V0A0,0,0,0,1,0,0Z" transform="translate(40.224)" fill="#b48902"></path>
      <path id="Rectangle_90" data-name="Rectangle 90" d="M0,0H40.224a0,0,0,0,1,0,0V40.224a0,0,0,0,1,0,0H5a5,5,0,0,1-5-5V0A0,0,0,0,1,0,0Z" transform="translate(0 40.224)" fill="#b48902"></path>
      <path id="Path_478" data-name="Path 478" d="M162.966,169.784a7.791,7.791,0,0,1,1.223-1.574l-4.011-4.4a13.722,13.722,0,0,0-2.548,3.315Z" transform="translate(-109.066 -113.342)" fill="#fff"></path>
      <path id="Path_479" data-name="Path 479" d="M206.87,160.614a7.647,7.647,0,0,1,1.682,1.054l4.024-4.393a13.7,13.7,0,0,0-3.565-2.224Z" transform="translate(-143.135 -107.281)" fill="#fff"></path>
      <path id="Path_480" data-name="Path 480" d="M224.8,177.4l-5.333,2.659a7.612,7.612,0,0,1,.533,1.885l5.934-.561A13.565,13.565,0,0,0,224.8,177.4" transform="translate(-151.853 -122.745)" fill="#fff"></path>
      <path id="Path_481" data-name="Path 481" d="M215.573,170.128l5.333-2.659a13.73,13.73,0,0,0-2.492-3.309l-4.024,4.393a7.69,7.69,0,0,1,1.183,1.574" transform="translate(-148.339 -113.584)" fill="#fff"></path>
      <path id="Path_482" data-name="Path 482" d="M158.135,193.83q0-.18.009-.36l-5.934-.53c-.018.293-.031.592-.031.89a13.709,13.709,0,0,0,.4,3.3l5.73-1.645a7.719,7.719,0,0,1-.182-1.658" transform="translate(-105.295 -133.497)" fill="#fff"></path>
      <path id="Path_483" data-name="Path 483" d="M212.548,211.66a7.782,7.782,0,0,1-1.448,1.362l3.133,5.071a13.832,13.832,0,0,0,3.069-2.85Z" transform="translate(-146.062 -146.45)" fill="#fff"></path>
      <path id="Path_484" data-name="Path 484" d="M221.076,193.941a7.735,7.735,0,0,1-.176,1.636l5.73,1.645a13.6,13.6,0,0,0,.4-3.284c0-.28-.009-.561-.028-.838l-5.934.561c0,.092.006.185.006.277" transform="translate(-152.843 -133.608)" fill="#fff"></path>
      <path id="Path_485" data-name="Path 485" d="M166.842,212.03l-4.742,3.6a13.776,13.776,0,0,0,3.1,2.807l3.133-5.068a7.9,7.9,0,0,1-1.488-1.343" transform="translate(-112.159 -146.706)" fill="#fff"></path>
      <path id="Path_486" data-name="Path 486" d="M158.48,181.636a7.609,7.609,0,0,1,.567-1.91l-5.33-2.656a13.6,13.6,0,0,0-1.177,4.036l5.94.533Z" transform="translate(-105.544 -122.516)" fill="#fff"></path>
      <path id="Path_487" data-name="Path 487" d="M207.784,222.655l-3.127-5.065a7.657,7.657,0,0,1-1.827.742l1.1,5.86a13.546,13.546,0,0,0,3.851-1.537" transform="translate(-140.34 -150.553)" fill="#fff"></path>
      <path id="Path_488" data-name="Path 488" d="M218.292,203.84a7.685,7.685,0,0,1-.832,1.716l4.757,3.589a13.568,13.568,0,0,0,1.8-3.657l-5.724-1.645Z" transform="translate(-150.463 -141.039)" fill="#fff"></path>
      <path id="Path_489" data-name="Path 489" d="M193.109,220.55a7.769,7.769,0,0,1-1.109.08,7.872,7.872,0,0,1-.9-.052l-1.1,5.86a13.691,13.691,0,0,0,4.212-.031l-1.1-5.854Z" transform="translate(-131.463 -152.601)" fill="#fff"></path>
      <path id="Path_490" data-name="Path 490" d="M198.09,157.512a7.749,7.749,0,0,1,1.9.367l2.141-5.561a13.631,13.631,0,0,0-4.045-.767v5.958Z" transform="translate(-137.06 -104.859)" fill="#fff"></path>
      <path id="Path_491" data-name="Path 491" d="M179.552,218.565a7.54,7.54,0,0,1-1.889-.715l-3.133,5.068a13.5,13.5,0,0,0,3.922,1.5l1.1-5.854Z" transform="translate(-120.759 -150.733)" fill="#fff"></path>
      <path id="Path_492" data-name="Path 492" d="M184.137,157.844a7.654,7.654,0,0,1,1.944-.345V151.54a13.592,13.592,0,0,0-4.1.746l2.154,5.558Z" transform="translate(-125.914 -104.852)" fill="#fff"></path>
      <path id="Path_493" data-name="Path 493" d="M160.886,205.721a7.624,7.624,0,0,1-.909-1.821l-5.727,1.642a13.591,13.591,0,0,0,1.892,3.78l4.745-3.6Z" transform="translate(-106.727 -141.08)" fill="#fff"></path>
      <path id="Path_494" data-name="Path 494" d="M171.994,161.513a7.73,7.73,0,0,1,1.651-1l-2.154-5.555a13.649,13.649,0,0,0-3.512,2.15l4.014,4.4Z" transform="translate(-116.227 -107.218)" fill="#fff"></path>
      <path id="Path_495" data-name="Path 495" d="M16.384,160.667a1.382,1.382,0,0,1-1.574-1.507v-.89h1.035v.909c0,.391.182.585.548.585.339,0,.508-.194.508-.585v-.256a.985.985,0,0,0-.111-.478,1.951,1.951,0,0,0-.385-.459l-.656-.656a4.4,4.4,0,0,1-.724-.869,1.783,1.783,0,0,1-.206-.9v-.225a1.445,1.445,0,0,1,.391-1.057,1.566,1.566,0,0,1,1.174-.4,1.617,1.617,0,0,1,1.183.382,1.557,1.557,0,0,1,.373,1.125v.539H16.923v-.576c0-.379-.176-.567-.527-.567s-.527.182-.527.548v.136a.77.77,0,0,0,.123.441,2.787,2.787,0,0,0,.407.459l.715.7a4.742,4.742,0,0,1,.7.856,1.722,1.722,0,0,1,.2.866v.323a1.573,1.573,0,0,1-.4,1.134,1.617,1.617,0,0,1-1.223.419Z" transform="translate(-10.247 -106.471)" fill="#fff"></path>
      <path id="Path_496" data-name="Path 496" d="M29.069,154.133q1.613,0,1.611,1.778v3.069q0,1.779-1.611,1.778H27.35V154.13h1.719Zm-.607,5.718h.468c.422,0,.635-.225.635-.675v-3.469c0-.444-.213-.665-.635-.665h-.468v4.809Z" transform="translate(-18.924 -106.644)" fill="#fff"></path>
      <path id="Path_497" data-name="Path 497" d="M42.072,157.914v-.881h1.584v3.537h-.8v-.724a1.016,1.016,0,0,1-1.066.8,1.211,1.211,0,0,1-1.048-.49,2.181,2.181,0,0,1-.351-1.3V155.65a1.938,1.938,0,0,1,.416-1.306,1.918,1.918,0,0,1,2.489-.049,1.871,1.871,0,0,1,.36,1.226v.585H42.639v-.675c0-.431-.185-.644-.558-.644s-.576.228-.576.684v3.558c0,.456.182.684.548.684s.548-.213.548-.635v-1.174h-.527Z" transform="translate(-27.946 -106.457)" fill="#fff"></path>
      <path id="Path_498" data-name="Path 498" d="M53.173,160.587v-1.223a1.936,1.936,0,0,1,.185-.86,3.725,3.725,0,0,1,.644-.869l.625-.665a1.37,1.37,0,0,0,.336-.493,2.169,2.169,0,0,0,.074-.65v-.548c0-.333-.132-.5-.4-.5-.287,0-.431.173-.431.518v.832H53.188v-.8a1.449,1.449,0,0,1,.376-1.075,1.5,1.5,0,0,1,1.1-.373,1.558,1.558,0,0,1,1.1.342,1.4,1.4,0,0,1,.357,1.057v.644a2.31,2.31,0,0,1-.142.869,2.83,2.83,0,0,1-.561.8l-.715.752c-.117.129-.2.228-.253.293a1,1,0,0,0-.148.29,1.261,1.261,0,0,0-.068.434v.314h1.827v.909H53.17Z" transform="translate(-36.789 -106.471)" fill="#fff"></path>
      <path id="Path_499" data-name="Path 499" d="M15.487,192.5H14.43l1.251-6.627H16.95l1.26,6.627H17.067l-.206-1.211H15.678l-.194,1.211Zm.783-4.76-.441,2.659h.89l-.441-2.659Z" transform="translate(-9.984 -128.605)" fill="#fff"></path>
      <path id="Path_500" data-name="Path 500" d="M30.389,185.863q1.613,0,1.611,1.778v3.069q0,1.779-1.611,1.778H28.67V185.86h1.719Zm-.607,5.718h.468c.422,0,.635-.225.635-.675v-3.469c0-.444-.213-.665-.635-.665h-.468Z" transform="translate(-19.837 -128.598)" fill="#fff"></path>
      <path id="Path_501" data-name="Path 501" d="M43.737,185.87h1.044l-1.26,6.627H42.31l-1.26-6.627h1.134l.761,4.624h.009Z" transform="translate(-28.403 -128.605)" fill="#fff"></path>
      <path id="Path_502" data-name="Path 502" d="M56.419,192.387a1.568,1.568,0,0,1-1.26-.49,1.923,1.923,0,0,1-.419-1.3V187.39a1.923,1.923,0,0,1,.419-1.306,1.575,1.575,0,0,1,1.26-.484,1.6,1.6,0,0,1,1.269.484,1.923,1.923,0,0,1,.419,1.306V190.6a1.939,1.939,0,0,1-.419,1.3A1.58,1.58,0,0,1,56.419,192.387Zm0-.927c.385,0,.576-.228.576-.684v-3.558c0-.456-.191-.684-.576-.684s-.567.228-.567.684v3.558C55.852,191.232,56.04,191.46,56.419,191.46Z" transform="translate(-37.875 -128.418)" fill="#fff"></path>
      <path id="Path_503" data-name="Path 503" d="M69.561,192.387a1.54,1.54,0,0,1-1.251-.49,1.951,1.951,0,0,1-.41-1.3V187.39a1.952,1.952,0,0,1,.41-1.306,1.9,1.9,0,0,1,2.474-.052,1.9,1.9,0,0,1,.351,1.232v.783H70.118v-.869c0-.431-.179-.644-.536-.644-.379,0-.567.228-.567.684v3.558c0,.456.188.684.567.684.357,0,.536-.216.536-.644v-1.223h1.017v1.143Q71.135,192.386,69.561,192.387Z" transform="translate(-46.981 -128.418)" fill="#fff"></path>
      <path id="Path_504" data-name="Path 504" d="M81.027,192.5H79.97l1.251-6.627H82.49l1.26,6.627H82.607l-.206-1.211H81.218l-.194,1.211Zm.783-4.76-.441,2.659h.89l-.441-2.659Z" transform="translate(-55.332 -128.605)" fill="#fff"></path>
      <path id="Path_505" data-name="Path 505" d="M95.481,192.387a1.54,1.54,0,0,1-1.251-.49,1.951,1.951,0,0,1-.41-1.3V187.39a1.952,1.952,0,0,1,.41-1.306,1.9,1.9,0,0,1,2.474-.052,1.9,1.9,0,0,1,.351,1.232v.783H96.038v-.869c0-.431-.179-.644-.536-.644-.379,0-.567.228-.567.684v3.558c0,.456.188.684.567.684.357,0,.536-.216.536-.644v-1.223h1.017v1.143Q97.055,192.386,95.481,192.387Z" transform="translate(-64.915 -128.418)" fill="#fff"></path>
      <path id="Path_506" data-name="Path 506" d="M109.309,185.87l-1.232,4.1V192.5h-1.115v-2.523l-1.242-4.1h1.165l.675,2.511h.009l.675-2.511Z" transform="translate(-73.149 -128.605)" fill="#fff"></path>
      <path id="Path_507" data-name="Path 507" d="M17.191,224.217v-2.924H16.115v2.924H15V217.59h1.115V220.4h1.075V217.59h1.125v6.627Z" transform="translate(-10.379 -150.553)" fill="#fff"></path>
      <path id="Path_508" data-name="Path 508" d="M30.319,217.59h1.026v5.016q0,1.691-1.574,1.691a1.481,1.481,0,0,1-1.661-1.691V217.59h1.115v5.12c0,.437.182.656.548.656s.548-.219.548-.656v-5.12Z" transform="translate(-19.45 -150.553)" fill="#fff"></path>
      <path id="Path_509" data-name="Path 509" d="M40.943,224.217V217.59h1.611a1.524,1.524,0,0,1,1.149.36,1.555,1.555,0,0,1,.336,1.094v.675a.979.979,0,0,1-.665,1.057,1,1,0,0,1,.832,1.1v.878a1.492,1.492,0,0,1-.36,1.091,1.6,1.6,0,0,1-1.174.367H40.94Zm1.115-5.718v1.885h.391a.471.471,0,0,0,.527-.539v-.81a.477.477,0,0,0-.539-.539h-.382Zm.478,2.736h-.478v2.073h.49a.481.481,0,0,0,.548-.539v-1c0-.357-.185-.536-.558-.536Z" transform="translate(-28.327 -150.553)" fill="#fff"></path>
    </g>
  </g>
</svg>
