<?xml version="1.0" encoding="UTF-8"?>
<svg xmlns="http://www.w3.org/2000/svg" xmlns:xlink="http://www.w3.org/1999/xlink" id="Layer_1" data-name="Layer 1" viewBox="0 0 467.52 155.94">
  <defs>
    <style>
      .cls-1 {
        fill: none;
      }

      .cls-2 {
        fill: #f7eee9;
      }

      .cls-3 {
        fill: #005250;
      }

      .cls-4 {
        fill: #ffc20e;
      }
    </style>
    <symbol id="SPCC_Logo" data-name="SPCC Logo" viewBox="0 0 107.26 107.26">
      <g>
        <g>
          <path class="cls-4" d="M60.22,48.41v37.27c14.92-3.05,26.15-16.25,26.15-32.08,0-1.77-.15-3.51-.42-5.2h-25.73Z"></path>
          <path class="cls-4" d="M60.22,35.22h20.5c-4.71-6.93-12.01-11.96-20.5-13.69v13.69Z"></path>
          <path class="cls-4" d="M47.04,35.22v-13.69c-8.5,1.74-15.79,6.76-20.5,13.69h20.5Z"></path>
          <path class="cls-4" d="M47.04,48.41H21.31c-.27,1.69-.42,3.43-.42,5.2,0,15.82,11.23,29.03,26.15,32.08V48.41Z"></path>
        </g>
        <g>
          <path class="cls-2" d="M10.95,47.29c.49,.02,.91,.16,1.25,.41s.6,.62,.78,1.08c.17,.46,.25,1.01,.22,1.64-.01,.31-.04,.6-.08,.88-.04,.28-.1,.54-.18,.79s-.16,.47-.27,.67l-1.28-.05c.16-.34,.31-.71,.44-1.13,.13-.42,.21-.85,.23-1.28,.01-.36-.02-.66-.11-.9s-.21-.42-.38-.54-.37-.19-.6-.19c-.24,0-.45,.05-.63,.18-.18,.13-.34,.32-.49,.59-.15,.27-.32,.6-.49,1-.12,.27-.25,.53-.4,.78-.15,.25-.32,.46-.52,.65-.2,.19-.43,.33-.69,.44-.26,.1-.57,.15-.92,.14-.47-.02-.86-.15-1.19-.39-.32-.24-.57-.57-.73-1-.16-.42-.23-.91-.21-1.47,.02-.44,.08-.86,.18-1.24,.11-.39,.25-.76,.43-1.14l1.08,.48c-.15,.34-.28,.67-.37,.99-.1,.32-.15,.65-.16,.99-.01,.29,.02,.54,.1,.75,.08,.21,.19,.37,.35,.48,.15,.11,.34,.17,.55,.18,.24,0,.45-.04,.62-.16,.17-.12,.33-.3,.47-.55,.15-.25,.31-.57,.49-.97,.21-.46,.42-.84,.64-1.16,.22-.32,.48-.56,.77-.72s.66-.23,1.09-.22Z"></path>
          <path class="cls-2" d="M12.77,44.22c.03-.17,.04-.35,.03-.53,0-.18-.02-.34-.04-.49l1,.16c.04,.16,.06,.36,.07,.6s0,.49-.05,.75c-.06,.36-.17,.67-.33,.93-.16,.27-.4,.46-.71,.58s-.72,.14-1.23,.06l-3.33-.53-.14,.86-.59-.09-.32-1-1.26-.65,.13-.84,1.38,.22,.29-1.81,1,.16-.29,1.81,3.31,.53c.31,.05,.56,0,.74-.13,.18-.14,.29-.33,.33-.6Z"></path>
          <path class="cls-2" d="M7.61,35.4c.37-1.02,.85-1.69,1.43-2.01,.58-.32,1.24-.35,1.99-.08,.34,.12,.64,.29,.9,.51s.47,.49,.61,.81c.15,.33,.21,.71,.2,1.16,0,.45-.12,.96-.33,1.53l-.31,.85,2.92,1.06-.47,1.3-7.78-2.82,.83-2.3Zm1.03,.47l-.33,.92,2.74,.99,.26-.71c.15-.41,.23-.77,.24-1.09,0-.32-.06-.59-.21-.81-.15-.22-.4-.4-.73-.52-.45-.16-.84-.15-1.16,.05s-.59,.59-.8,1.17Z"></path>
          <path class="cls-2" d="M9.74,29.2l1.93,1.08c.2,.11,.39,.23,.58,.35,.18,.12,.33,.22,.42,.29l.04-.06c-.13-.22-.2-.46-.23-.7-.03-.24-.01-.48,.04-.73,.06-.25,.15-.49,.29-.73,.24-.43,.51-.75,.82-.97,.31-.22,.65-.33,1.03-.32s.81,.14,1.27,.4l3.56,2-.66,1.18-3.35-1.88c-.42-.24-.79-.33-1.1-.27-.31,.06-.57,.27-.78,.65-.2,.36-.29,.68-.26,.98,.03,.29,.16,.56,.39,.81,.23,.25,.55,.49,.96,.72l2.72,1.52-.66,1.18-7.68-4.31,.66-1.18Z"></path>
          <path class="cls-2" d="M13.57,23.32c.12-.17,.27-.28,.45-.34,.18-.06,.37,0,.59,.15,.21,.15,.32,.33,.32,.51,0,.19-.06,.37-.18,.53-.13,.17-.28,.29-.45,.34-.18,.05-.37,0-.59-.15-.22-.16-.33-.33-.33-.51,0-.18,.06-.36,.19-.54Zm2.34,.86l5.08,3.67-.79,1.1-5.08-3.67,.79-1.1Z"></path>
          <path class="cls-2" d="M22.6,25.84l-.87,1.05-6.8-5.61,.87-1.05,6.8,5.61Z"></path>
          <path class="cls-2" d="M17.55,18.5c.14-.15,.3-.24,.49-.28s.37,.04,.57,.22c.19,.18,.28,.36,.26,.55-.02,.19-.11,.36-.25,.51-.15,.16-.31,.25-.49,.28-.18,.03-.37-.04-.56-.22-.19-.18-.28-.37-.26-.55,.02-.18,.11-.35,.25-.51Zm2.21,1.16l4.57,4.29-.93,.99-4.57-4.29,.93-.99Z"></path>
          <path class="cls-2" d="M23.4,16.11c.58-.49,1.21-.68,1.92-.57,.7,.11,1.4,.58,2.1,1.4,.46,.54,.77,1.06,.92,1.57s.16,.98,.03,1.42c-.13,.44-.39,.82-.77,1.15-.25,.21-.49,.36-.72,.45-.24,.09-.46,.14-.68,.15-.22,0-.42-.01-.61-.06l-.06,.05c.11,.1,.23,.22,.37,.35,.13,.13,.25,.25,.34,.36l1.4,1.64-1.03,.88-5.62-6.58,.84-.72,.71,.53,.05-.04c-.02-.21-.02-.43,.01-.66,.03-.23,.11-.45,.24-.68s.32-.45,.56-.66Zm.43,1.06c-.28,.24-.46,.49-.54,.75-.08,.26-.06,.53,.05,.82,.11,.29,.31,.6,.58,.94l.12,.14c.3,.35,.59,.62,.88,.8,.28,.18,.57,.26,.85,.24,.28-.02,.57-.16,.87-.41,.25-.21,.4-.46,.45-.74,.05-.28,0-.57-.12-.89-.13-.32-.34-.65-.63-.99-.44-.51-.87-.83-1.3-.96-.43-.13-.83-.02-1.22,.3Z"></path>
          <path class="cls-2" d="M26.33,11.55l.14,.05c.1,.27,.2,.56,.28,.88,.09,.32,.17,.65,.25,.97,.08,.33,.14,.65,.19,.95l-.8,.56c-.08-.21-.17-.44-.27-.67-.09-.24-.19-.47-.29-.71-.1-.24-.2-.46-.3-.68-.1-.22-.19-.42-.28-.6l1.08-.75Z"></path>
          <path class="cls-2" d="M33.83,14.46c.21,.36,.29,.71,.26,1.05-.03,.35-.18,.68-.45,1s-.64,.63-1.13,.91c-.39,.22-.73,.39-1.04,.5-.31,.11-.62,.18-.93,.21l-.58-.99c.33-.03,.69-.1,1.07-.2s.71-.24,1.01-.41c.39-.22,.63-.45,.73-.66,.1-.22,.09-.43-.02-.62-.07-.12-.16-.2-.29-.26s-.3-.08-.55-.07c-.24,0-.58,.05-1.02,.11-.43,.07-.8,.1-1.12,.1-.32,0-.6-.06-.83-.18-.24-.12-.44-.33-.62-.64-.28-.48-.3-.96-.06-1.43,.24-.48,.68-.9,1.32-1.27,.34-.2,.68-.35,1.02-.46s.69-.18,1.05-.23l.14,1.08c-.31,.04-.61,.09-.91,.17-.29,.08-.57,.19-.83,.34-.3,.18-.51,.36-.61,.54-.1,.18-.11,.36,0,.53,.07,.13,.18,.21,.3,.26s.31,.05,.55,.03c.24-.02,.56-.06,.98-.13,.4-.07,.76-.1,1.08-.11,.32,0,.6,.05,.84,.17,.24,.12,.46,.34,.64,.65Z"></path>
          <path class="cls-2" d="M38.83,6.53c-.38,.13-.7,.32-.95,.55-.25,.24-.44,.52-.56,.85-.12,.33-.17,.69-.16,1.09,.02,.4,.1,.83,.26,1.28,.21,.61,.47,1.1,.8,1.48,.32,.38,.71,.62,1.14,.73s.93,.07,1.47-.11c.34-.12,.66-.26,.95-.44,.3-.17,.6-.37,.9-.6l.37,1.09c-.28,.24-.58,.44-.89,.61-.31,.17-.68,.33-1.12,.48-.81,.28-1.55,.35-2.2,.2-.65-.15-1.21-.48-1.68-.99-.47-.51-.84-1.17-1.12-1.98-.2-.59-.31-1.16-.31-1.71s.1-1.06,.29-1.53c.2-.47,.5-.88,.9-1.24,.4-.36,.91-.64,1.52-.85,.4-.14,.81-.23,1.23-.27s.82-.04,1.2,0l-.09,1.22c-.32-.03-.65-.05-.98-.03-.33,.01-.66,.07-.99,.18Z"></path>
          <path class="cls-2" d="M43.75,3.61l.38,2.18c.04,.23,.07,.45,.09,.67,.02,.22,.04,.39,.04,.51h.07c.1-.25,.23-.46,.4-.63,.17-.17,.37-.32,.6-.43,.23-.11,.48-.19,.75-.24,.48-.08,.9-.07,1.27,.03,.36,.1,.67,.3,.9,.6,.24,.3,.4,.71,.49,1.24l.69,4.03-1.34,.23-.65-3.78c-.08-.48-.24-.82-.49-1.03-.24-.21-.57-.27-.99-.2-.41,.07-.71,.21-.92,.41-.21,.21-.34,.48-.38,.82-.05,.34-.03,.74,.05,1.2l.53,3.07-1.34,.23-1.5-8.68,1.34-.23Z"></path>
          <path class="cls-2" d="M53.46,5.04c.11,0,.23,0,.35,0,.13,0,.24,.02,.33,.03l-.08,1.25c-.08-.02-.18-.03-.3-.04-.12,0-.22,0-.31,0-.24,0-.47,.06-.69,.14s-.41,.21-.57,.37c-.16,.16-.29,.36-.37,.6s-.12,.51-.11,.82l.13,3.28-1.36,.05-.25-6.26,1.06-.04,.23,1.1h.06c.12-.23,.27-.44,.45-.63,.18-.19,.39-.35,.63-.47,.24-.12,.51-.19,.8-.2Z"></path>
          <path class="cls-2" d="M56.43,5.25l-.26,6.26-1.35-.06,.26-6.26,1.35,.06Zm-.57-2.43c.21,0,.38,.07,.53,.19,.15,.12,.22,.31,.2,.58-.01,.26-.09,.45-.25,.55-.16,.11-.34,.15-.55,.15-.21,0-.39-.07-.54-.19-.14-.12-.21-.31-.2-.57,.01-.27,.09-.45,.24-.56,.15-.1,.34-.15,.55-.14Z"></path>
          <path class="cls-2" d="M61.84,10.35c-.05,.41-.2,.74-.44,.99s-.56,.43-.97,.52c-.41,.09-.89,.1-1.45,.03-.44-.06-.82-.14-1.13-.24-.31-.1-.6-.24-.86-.4l.15-1.14c.28,.18,.61,.34,.97,.49,.36,.15,.71,.25,1.05,.29,.44,.06,.77,.03,.98-.08,.21-.11,.33-.28,.36-.51,.02-.13,0-.26-.07-.38-.06-.12-.19-.25-.39-.39-.2-.14-.49-.32-.87-.53-.38-.21-.7-.41-.95-.61-.25-.19-.44-.41-.55-.65s-.14-.54-.1-.88c.07-.55,.35-.94,.83-1.17,.48-.23,1.09-.29,1.82-.2,.39,.05,.75,.14,1.09,.26,.33,.12,.66,.28,.97,.47l-.55,.94c-.27-.16-.54-.3-.82-.42-.28-.12-.56-.2-.86-.24-.35-.05-.62-.03-.81,.05-.19,.08-.31,.22-.33,.41-.02,.15,0,.27,.08,.39s.21,.23,.41,.36c.2,.13,.49,.29,.85,.49,.36,.19,.67,.38,.92,.58,.26,.19,.44,.41,.56,.65,.12,.24,.16,.54,.11,.9Z"></path>
          <path class="cls-2" d="M64.77,11.92c.17,.04,.35,.07,.52,.08s.34,0,.49,0l-.24,.98c-.16,.03-.36,.03-.6,.02-.24-.01-.49-.05-.74-.11-.35-.09-.65-.22-.91-.4s-.43-.44-.52-.76-.08-.73,.04-1.23l.79-3.27-.85-.2,.14-.58,1.02-.24,.75-1.2,.83,.2-.33,1.35,1.78,.43-.24,.98-1.78-.43-.79,3.26c-.07,.31-.05,.56,.07,.75,.12,.19,.31,.31,.57,.38Z"></path>
          <path class="cls-2" d="M69.26,7.75l-1.95,5.96-1.29-.42,1.95-5.96,1.29,.42Zm.11-2.49c.2,.06,.35,.17,.46,.32,.11,.15,.12,.36,.04,.61-.08,.25-.21,.41-.39,.46-.18,.06-.37,.06-.56,0-.2-.07-.36-.18-.47-.33-.11-.15-.12-.35-.04-.61,.08-.25,.21-.41,.39-.47s.36-.05,.57,.01Z"></path>
          <path class="cls-2" d="M73.32,9.23c.74,.33,1.22,.74,1.46,1.23s.2,1.07-.1,1.75l-1.72,3.85-.88-.39,.13-.92-.04-.02c-.26,.13-.5,.23-.74,.28s-.48,.07-.74,.03-.55-.13-.88-.27c-.35-.16-.63-.36-.85-.61-.22-.25-.35-.54-.39-.87s.03-.69,.2-1.09c.26-.59,.69-.93,1.27-1.03s1.33,.04,2.25,.42l1.03,.42,.13-.3c.18-.4,.21-.72,.1-.97-.11-.25-.34-.45-.68-.61-.29-.13-.59-.22-.9-.26-.31-.04-.62-.06-.94-.05l-.02-1.04c.35-.02,.73,0,1.13,.07,.41,.07,.8,.19,1.2,.37Zm-.37,3.55l-.76-.31c-.63-.26-1.11-.35-1.44-.27s-.57,.27-.72,.6c-.13,.28-.13,.53-.02,.73,.11,.21,.31,.37,.59,.5,.43,.19,.84,.23,1.23,.12,.39-.11,.69-.4,.9-.87l.22-.5Z"></path>
          <path class="cls-2" d="M80.1,12.96c.6,.39,.98,.85,1.12,1.37s0,1.12-.45,1.8l-2.22,3.43-1.14-.74,2.08-3.22c.26-.41,.38-.77,.34-1.09s-.24-.59-.6-.82c-.52-.34-.98-.41-1.39-.23s-.8,.57-1.18,1.17l-1.69,2.62-1.14-.74,3.4-5.26,.89,.57-.3,.82,.06,.04c.23-.11,.48-.17,.73-.17,.25,0,.5,.03,.75,.11s.5,.19,.73,.34Z"></path>
          <path class="cls-2" d="M89.08,19.31c-.28-.29-.59-.49-.91-.62-.32-.13-.66-.17-1.01-.14-.35,.03-.7,.14-1.05,.33-.35,.19-.7,.45-1.04,.78-.46,.45-.79,.9-.99,1.36s-.26,.91-.17,1.35c.09,.44,.33,.87,.74,1.28,.25,.25,.52,.48,.81,.67,.29,.19,.6,.38,.93,.55l-.82,.81c-.33-.15-.65-.33-.93-.54-.29-.21-.59-.47-.91-.8-.6-.61-.98-1.24-1.13-1.89-.15-.65-.09-1.3,.17-1.95s.69-1.27,1.3-1.87c.45-.44,.92-.78,1.41-1.02s1-.37,1.5-.4c.51-.03,1.01,.07,1.51,.28,.5,.21,.97,.54,1.42,1,.3,.3,.56,.63,.78,.99,.22,.36,.39,.72,.52,1.09l-1.14,.44c-.11-.3-.24-.6-.39-.9-.15-.3-.35-.57-.59-.81Z"></path>
          <path class="cls-2" d="M91.71,29.29c-.42,.3-.84,.51-1.25,.64-.41,.12-.8,.15-1.18,.1-.38-.06-.74-.19-1.07-.41-.33-.22-.64-.52-.91-.9-.25-.36-.43-.73-.52-1.11-.09-.38-.1-.76-.03-1.14s.23-.75,.47-1.1c.24-.35,.58-.68,1-.98,.56-.4,1.11-.64,1.64-.72s1.03,0,1.5,.21c.47,.22,.89,.59,1.25,1.1,.34,.48,.54,.97,.59,1.49s-.04,1.01-.29,1.5c-.25,.49-.65,.93-1.21,1.33Zm-2.68-3.77c-.37,.26-.66,.54-.86,.82-.2,.28-.3,.57-.3,.86,0,.29,.11,.59,.32,.9,.22,.31,.47,.51,.75,.6,.28,.1,.58,.09,.91,0,.33-.1,.68-.28,1.05-.54s.66-.54,.85-.81c.19-.28,.29-.56,.29-.85,0-.29-.11-.59-.33-.9-.33-.46-.71-.68-1.16-.68s-.96,.21-1.52,.61Z"></path>
          <path class="cls-2" d="M90.09,33l-.66-1.19,7.7-4.28,.66,1.19-7.7,4.28Z"></path>
          <path class="cls-2" d="M91.23,35.3l-.58-1.23,7.96-3.78,.58,1.23-7.96,3.78Z"></path>
          <path class="cls-2" d="M98.62,36.63c.19,.54,.24,1.04,.16,1.5-.08,.46-.29,.86-.62,1.21-.33,.35-.77,.62-1.33,.81l-.67,.23-1.4-4.02c-.57,.21-.96,.52-1.16,.93-.21,.41-.21,.88-.03,1.42,.13,.39,.29,.72,.47,1,.18,.28,.4,.56,.65,.84l-1.02,.36c-.24-.25-.45-.52-.63-.81-.17-.29-.34-.65-.49-1.09-.21-.59-.27-1.15-.2-1.68,.07-.53,.29-1,.65-1.4s.88-.73,1.54-.96c.66-.23,1.27-.31,1.81-.24,.54,.07,1.01,.27,1.39,.59,.39,.33,.68,.77,.87,1.32Zm-.95,.33c-.14-.4-.38-.68-.73-.84s-.77-.17-1.28-.05l.96,2.74c.29-.11,.54-.25,.73-.42s.32-.38,.38-.62,.04-.51-.07-.81Z"></path>
          <path class="cls-2" d="M91.22,44.55c-.19-.84-.19-1.52,0-2.04,.2-.52,.56-.84,1.1-.96,.38-.09,.72-.04,1.03,.14,.31,.18,.57,.48,.77,.91,.04-.18,.12-.36,.25-.51,.13-.16,.29-.26,.48-.3,.23-.05,.44-.03,.63,.06,.19,.09,.39,.26,.6,.48,.06-.36,.23-.67,.49-.94,.26-.27,.6-.45,1.02-.54,.44-.1,.84-.09,1.19,.03,.35,.12,.65,.35,.9,.68,.25,.33,.43,.76,.55,1.28,.03,.11,.05,.24,.06,.37,.02,.14,.03,.26,.04,.38,0,.12,.01,.21,0,.27l.49,2.15-.72,.16-.43-1.01c-.12,.13-.26,.25-.42,.35-.16,.1-.35,.17-.56,.22-.63,.14-1.18,.03-1.64-.33-.46-.36-.78-.93-.96-1.71-.04-.19-.06-.37-.08-.56-.11-.12-.22-.2-.34-.25-.11-.05-.23-.06-.35-.03-.1,.02-.17,.08-.22,.16-.05,.08-.07,.2-.06,.35s.03,.32,.07,.52l.24,1.07c.15,.68,.13,1.24-.07,1.66-.2,.42-.58,.7-1.13,.82-.7,.16-1.3-.01-1.81-.51-.51-.5-.89-1.3-1.14-2.4Zm.92-.16c.1,.46,.24,.84,.4,1.13,.16,.29,.34,.5,.54,.63,.2,.12,.41,.16,.64,.11,.2-.05,.34-.13,.42-.26,.08-.13,.12-.29,.12-.51s-.04-.47-.11-.77l-.22-.98c-.06-.24-.14-.45-.26-.62-.12-.17-.26-.29-.43-.36-.17-.07-.35-.08-.55-.04-.28,.06-.47,.24-.56,.53-.09,.29-.09,.66,.02,1.13Zm4.82-.82c.09,.39,.26,.65,.51,.79,.25,.14,.56,.17,.94,.08,.41-.09,.7-.26,.86-.5s.2-.55,.12-.93c-.08-.37-.25-.63-.51-.77s-.59-.17-1-.08c-.37,.08-.64,.25-.8,.49-.16,.24-.2,.55-.12,.92Z"></path>
          <path class="cls-2" d="M101.09,49.8c.02,.57-.07,1.06-.28,1.48-.21,.42-.53,.74-.94,.98-.41,.24-.91,.37-1.5,.39l-.71,.03-.18-4.26c-.61,.04-1.07,.23-1.38,.56-.32,.33-.46,.78-.44,1.35,.02,.41,.07,.77,.16,1.09s.22,.65,.38,.99l-1.08,.04c-.16-.31-.28-.63-.36-.96-.08-.33-.13-.72-.15-1.18-.03-.63,.07-1.18,.29-1.67,.22-.48,.56-.87,1.03-1.16,.46-.29,1.05-.44,1.75-.47,.7-.03,1.3,.07,1.8,.29s.89,.55,1.16,.97c.27,.43,.42,.93,.45,1.52Zm-1,.04c-.02-.43-.17-.77-.45-1.02-.28-.25-.69-.39-1.21-.42l.12,2.9c.31-.02,.59-.08,.83-.19s.42-.27,.55-.48c.13-.21,.18-.48,.17-.8Z"></path>
        </g>
        <circle class="cls-1" cx="53.63" cy="53.63" r="53.63"></circle>
        <path class="cls-4" d="M53.63,105.41c-8.79,0-17.48-2.25-25.13-6.51l4.28-7.7c6.35,3.53,13.56,5.4,20.85,5.4,7.65,0,15.18-2.05,21.76-5.92l4.47,7.59c-7.93,4.67-17,7.14-26.23,7.14Z"></path>
        <g>
          <path class="cls-4" d="M31.73,90.62l.58-1.05,1.05,.58c1.2,.67,2.45,1.26,3.71,1.8l.67-1.59c-13.09-5.59-22.62-17.91-24.12-32.93l-4.26,1.93-4.64-1.04c1.62,16.22,10.91,29.87,24.08,37.54l2.92-5.26Z"></path>
          <path class="cls-4" d="M98.08,59.37l-4.45-1.93c-1.5,15.02-11.03,27.34-24.12,32.93l.68,1.59c1.57-.68,3.11-1.45,4.59-2.32l1.03-.61,.61,1.03,3.06,5.2c12.63-7.78,21.47-21.14,23.05-36.94l-4.45,1.04Z"></path>
        </g>
        <g>
          <g>
            <path class="cls-3" d="M41.02,101.34l-.76-.21,.81-2.95-.97-.27,.17-.63,2.7,.74-.17,.63-.97-.27-.81,2.95Z"></path>
            <path class="cls-3" d="M45.74,102.37l-.77-.15,.31-1.57-1.44-.28-.3,1.57-.77-.15,.71-3.64,.77,.15-.28,1.43,1.44,.28,.28-1.43,.77,.15-.71,3.64Z"></path>
            <path class="cls-3" d="M49.01,102.78l-2.12-.25,.43-3.69,2.12,.25-.07,.64-1.34-.16-.09,.81,1.25,.15-.08,.64-1.25-.15-.11,.95,1.34,.16-.08,.65Z"></path>
            <path class="cls-3" d="M52.84,102.97l-.79-.02,.07-3.06-1.01-.02,.02-.66,2.8,.07-.02,.66-1.01-.02-.07,3.06Z"></path>
            <path class="cls-3" d="M55.35,101.53l.06,1.42-.79,.04-.17-3.71,1.08-.05c.5-.02,.88,.05,1.13,.22,.25,.17,.38,.45,.4,.82,0,.22-.04,.42-.15,.59-.11,.17-.28,.32-.49,.42,.6,.81,.98,1.33,1.16,1.57l-.87,.04-.95-1.38-.42,.02Zm-.03-.64h.25c.25-.02,.43-.07,.54-.16,.12-.09,.17-.22,.16-.4,0-.18-.07-.3-.2-.37-.12-.07-.31-.1-.57-.09h-.24s.05,1.01,.05,1.01Z"></path>
            <path class="cls-3" d="M60.79,98.73l.3,2.38c.03,.27,0,.52-.09,.74-.1,.22-.25,.4-.47,.54-.22,.14-.48,.23-.8,.27-.47,.06-.86-.02-1.15-.23s-.46-.53-.52-.95l-.3-2.37,.78-.1,.28,2.25c.04,.28,.12,.49,.25,.6s.33,.16,.59,.13c.25-.03,.43-.12,.53-.27,.1-.15,.13-.36,.09-.65l-.28-2.25,.78-.1Z"></path>
            <path class="cls-3" d="M63.78,101.93l-.77,.16-.61-3-.99,.2-.13-.64,2.75-.56,.13,.64-.99,.2,.61,3Z"></path>
            <path class="cls-3" d="M68.45,100.72l-.75,.21-.44-1.54-1.41,.4,.44,1.54-.76,.21-1.01-3.57,.76-.21,.4,1.4,1.42-.4-.4-1.4,.75-.21,1.01,3.57Z"></path>
          </g>
          <g>
            <path class="cls-3" d="M10.39,70.94l-.28-.74,2.86-1.09-.36-.94,.61-.23,1,2.62-.61,.23-.36-.94-2.86,1.09Z"></path>
            <path class="cls-3" d="M12.36,75.35l-.34-.71,1.45-.69-.63-1.33-1.45,.69-.34-.71,3.35-1.6,.34,.71-1.31,.63,.63,1.33,1.31-.63,.34,.71-3.35,1.6Z"></path>
            <path class="cls-3" d="M13.98,78.2l-1.07-1.85,3.21-1.86,1.07,1.85-.56,.32-.68-1.17-.71,.41,.63,1.09-.56,.32-.63-1.09-.83,.48,.68,1.17-.56,.33Z"></path>
            <path class="cls-3" d="M17.48,83.19l-.54-.72,1.25-1.58c.04-.06,.14-.17,.29-.33,.15-.17,.25-.28,.3-.33-.08,.05-.21,.12-.4,.2-.19,.09-.32,.15-.4,.19l-1.85,.77-.54-.71,2.39-2.99,.47,.62-1.33,1.6c-.25,.29-.47,.53-.67,.73,.08-.05,.22-.12,.4-.21,.18-.09,.33-.16,.44-.2l1.99-.82,.45,.59-1.33,1.68c-.06,.08-.16,.18-.29,.33-.13,.14-.25,.26-.34,.36,.12-.07,.26-.14,.44-.23s.33-.16,.44-.21l1.9-.84,.47,.62-3.53,1.48Z"></path>
            <path class="cls-3" d="M20.11,86.15l.47-.8-.92-1-.83,.4-.57-.62,3.63-1.56,.65,.71-1.85,3.49-.57-.62Zm.83-1.38c.42-.73,.66-1.14,.71-1.23,.06-.09,.1-.17,.14-.22-.2,.11-.7,.35-1.51,.74l.66,.71Z"></path>
            <path class="cls-3" d="M23.51,86.42l1.61-.59,.62,.58-2.45,.82-.98,1.06-.57-.53,.97-1.04,.66-2.52,.62,.58-.48,1.64Z"></path>
          </g>
          <g>
            <path class="cls-3" d="M86.25,87.05l-.56,.55-2.13-2.19-.72,.7-.46-.47,2.01-1.95,.46,.47-.72,.7,2.13,2.19Z"></path>
            <path class="cls-3" d="M89.53,83.5l-.52,.59-1.2-1.06-.97,1.1,1.2,1.06-.52,.59-2.79-2.45,.52-.59,1.09,.96,.97-1.1-1.09-.96,.52-.59,2.79,2.45Z"></path>
            <path class="cls-3" d="M91.52,80.87l-1.28,1.71-2.97-2.22,1.28-1.71,.52,.39-.81,1.08,.65,.49,.75-1.01,.52,.39-.75,1.01,.77,.57,.81-1.08,.52,.39Z"></path>
            <path class="cls-3" d="M92.87,78.85l-3.18-1.92,.41-.67,2.62,1.58,.78-1.29,.56,.34-1.18,1.96Z"></path>
            <path class="cls-3" d="M94.44,76.17l-3.28-1.75,.37-.69,3.28,1.75-.37,.7Z"></path>
            <path class="cls-3" d="M95.63,73.82l-.33,.7-3.36-1.57,.9-1.93,.58,.27-.57,1.23,.87,.41,.53-1.14,.58,.27-.53,1.14,1.33,.62Z"></path>
            <path class="cls-3" d="M97.33,69.76l-.77,1.99-3.46-1.34,.77-1.99,.6,.23-.49,1.26,.76,.3,.46-1.17,.6,.23-.46,1.17,.89,.35,.49-1.26,.61,.24Z"></path>
          </g>
        </g>
        <g>
          <path class="cls-2" d="M75.34,62.78l1.78-6.78c1.02-1.03,1.53-1.92,1.53-1.92,0,0-4.06-5.15-7.79-7.34-3.73-2.19-8.74-1.82-8.74-1.82l-1.51-2.58-16.89,3.85c1.61,1.24,3.67,3.57,3.67,3.57-.92,.23-2.57,.62-5.51,.8-5.14,.32-12.26-2.47-12.26-2.47l2.71,6.16-1.81,7.26h0c-1.14,1.18-1.88,2.06-1.88,2.06,0,0,1.85,3.33,4.37,4.8,1.24,.72,2.79,1.38,4.35,1.87-.02,.15-.05,.31-.05,.46,0,2.52,2.04,4.56,4.56,4.56,.46,0,.89-.09,1.31-.21,.67,1.68,2.31,2.87,4.23,2.87,2.52,0,4.56-2.04,4.56-4.56,0-1.25-.51-2.39-1.33-3.21,1.65-.34,5.86-1.2,9.13-1.87-.17,.48-.28,.99-.28,1.53,0,0,0,.01,0,.02-.06,0-.13-.02-.19-.02-2.52,0-4.56,2.04-4.56,4.56s2.04,4.56,4.56,4.56,4.56-2.04,4.56-4.56c0,0,0-.01,0-.02,.06,0,.13,.02,.19,.02,1.35,0,2.56-.6,3.39-1.54,.83,.88,2,1.43,3.3,1.43,2.52,0,4.56-2.04,4.56-4.56,0-.86-.25-1.65-.66-2.33,1.98,.5,3.54,1.18,3.54,1.18l-2.81-5.75Z"></path>
          <g>
            <path class="cls-1" d="M59.61,67.85c.54-1.11,1.45-1.97,2.61-2.43,.16-.06,.32-.09,.48-.13-.3-1.76,.45-3.13,.98-3.85-1.91-.25-3.1-.56-3.8-.79-.15-.05-.26-.18-.29-.33-.03-.16,.02-.32,.14-.42,.29-.26,.62-.59,.99-.97,.58-.59,1.28-1.29,2.09-1.96l-15.57-4.06-1.21,1.89c2.15,1.62,3.47,3.99,3.92,7.06,.37,2.54-.34,5.12-1.01,6.86,.62,.2,1.18,.53,1.67,.96l9.01-1.84Z"></path>
            <path class="cls-1" d="M39.11,61.67c0-.91-.74-1.66-1.66-1.66s-1.66,.74-1.66,1.66,.74,1.66,1.66,1.66,1.66-.74,1.66-1.66Zm-2.48-.05c.03-.45,.42-.8,.87-.77,.45,.03,.8,.42,.77,.87-.03,.45-.42,.8-.87,.77-.45-.03-.8-.42-.77-.87Z"></path>
            <path class="cls-1" d="M65.98,65.49c.48,.21,.9,.51,1.29,.85,.47-.47,1.03-.85,1.68-1.1,1.22-.48,2.55-.45,3.75,.07,.8,.35,1.47,.91,1.97,1.6,1.02,.26,1.94,.56,2.6,.8l-2.31-4.73c-.05-.1-.06-.2-.03-.31l1.45-5.53c-2.09,1.62-6.87,4.89-10.92,4.5-.25-.02-.49-.05-.72-.08-.15,.15-1.5,1.52-1.15,3.56,.81-.07,1.63,.03,2.4,.37Z"></path>
            <path class="cls-1" d="M41.89,50.99c-4.1,.26-9.32-1.38-11.47-2.14l2.29,5.21c.04,.09,.05,.19,.02,.29l-1.42,5.71c1.49-1.43,3.33-3.01,5.11-3.98,2.49-1.36,5.42-1.64,7.26-1.66,.34-1.99-.94-3.36-1.07-3.48-.24,.02-.47,.04-.72,.05Z"></path>
            <path class="cls-1" d="M61.52,44.78l-1.14-1.95-15.7,3.58c1.45,1.27,2.95,2.96,3.02,3.05,.1,.12,.14,.28,.09,.42s-.16,.26-.31,.3c-.87,.22-2.05,.48-3.81,.67,.48,.68,1.14,1.96,.91,3.58,.25,0,.46,.02,.61,.03l1.47-2.29c.1-.16,.29-.24,.48-.19l10.15,2.64c-.1-1.04-.07-2.03,.09-2.93,.54-3.04,1.94-5.36,4.14-6.91Z"></path>
            <path class="cls-1" d="M40,66.13c1.22-.48,2.55-.45,3.75,.07,1.1,.48,1.95,1.34,2.45,2.41,.62-.15,1.24-.17,1.85-.09,.65-1.65,1.36-4.15,1.01-6.53-.43-2.93-1.71-5.16-3.8-6.64-.74-.06-5.1-.31-8.43,1.5-3.22,1.75-6.81,5.74-7.69,6.76,.49,.8,2.07,3.22,4.05,4.37,1.11,.65,2.44,1.22,3.8,1.67,.07-.31,.17-.62,.3-.92,.52-1.2,1.49-2.12,2.71-2.6Zm-5.09-4.46c0-1.4,1.14-2.54,2.54-2.54s2.54,1.14,2.54,2.54-1.14,2.54-2.54,2.54-2.54-1.14-2.54-2.54Z"></path>
            <path class="cls-1" d="M70.63,47.11c-3.3-1.93-7.7-1.8-8.39-1.76-2.13,1.41-3.47,3.59-3.99,6.5-.16,.92-.18,1.93-.05,3.02l5.7,1.48c.17,.04,.29,.18,.32,.35,.03,.17-.04,.34-.18,.44-1.07,.77-1.98,1.69-2.7,2.42-.16,.17-.32,.32-.47,.47,.95,.25,2.42,.53,4.65,.74,4.86,.44,11.25-5.1,11.31-5.15,.02-.02,.04-.01,.06-.03,.59-.61,1-1.17,1.2-1.47-.85-1.04-4.32-5.14-7.47-6.99Zm-.75,7.3s-.07,0-.1,0c-.68-.03-1.31-.32-1.77-.81-.46-.5-.7-1.15-.67-1.83,.03-.68,.32-1.31,.81-1.77,.5-.46,1.13-.7,1.83-.67,.68,.03,1.31,.32,1.77,.81,.46,.5,.7,1.15,.67,1.83-.05,1.37-1.18,2.44-2.54,2.44Z"></path>
            <path class="cls-1" d="M69.95,50.21s-.05,0-.07,0c-.42,0-.81,.15-1.12,.44-.32,.3-.51,.71-.53,1.15h0c-.04,.91,.68,1.69,1.59,1.72,.89,.04,1.69-.68,1.72-1.59,.02-.44-.14-.86-.44-1.19-.3-.33-.71-.51-1.15-.53Zm-.05,2.48c-.46,0-.83-.35-.84-.81,0-.46,.35-.83,.81-.84s.83,.35,.84,.81-.35,.83-.81,.84Z"></path>
            <g>
              <path class="cls-3" d="M79.03,54.29c.09-.16,.08-.35-.04-.49-.17-.21-4.16-5.24-7.92-7.45-3.34-1.96-7.59-1.93-8.72-1.89l-1.38-2.35c-.1-.17-.29-.25-.48-.21l-16.89,3.85c-.17,.04-.3,.17-.33,.34-.04,.17,.03,.34,.16,.45,1.09,.84,2.41,2.2,3.11,2.96-1.06,.24-2.52,.48-4.71,.62-4.98,.3-12.01-2.41-12.08-2.44-.16-.07-.35-.02-.48,.11-.12,.13-.16,.32-.09,.48l2.64,6.02-1.74,6.99c-1.05,1.09-1.75,1.92-1.82,2-.12,.14-.14,.34-.05,.5,.08,.14,1.94,3.46,4.53,4.97,1.22,.71,2.67,1.33,4.14,1.81-.02,.65,.09,1.31,.33,1.94,.48,1.22,1.4,2.18,2.6,2.71,.63,.28,1.3,.41,1.96,.41,.39,0,.78-.07,1.17-.16,.83,1.75,2.57,2.81,4.43,2.81,.59,0,1.2-.11,1.78-.34,2.52-.99,3.76-3.84,2.78-6.36-.16-.41-.39-.78-.64-1.11l7.95-1.63c-.06,.25-.09,.49-.12,.74-.56,.02-1.11,.11-1.65,.32-1.22,.48-2.18,1.4-2.71,2.6-.52,1.2-.55,2.53-.07,3.75,.48,1.22,1.4,2.18,2.6,2.71,.63,.28,1.3,.41,1.96,.41,.6,0,1.21-.11,1.79-.34,1.22-.48,2.18-1.4,2.71-2.6,.22-.49,.33-1.01,.37-1.53,.56-.02,1.11-.12,1.65-.33,.64-.25,1.2-.62,1.67-1.09,.9,.79,2.06,1.25,3.27,1.25,.59,0,1.2-.11,1.78-.34,1.22-.48,2.18-1.4,2.7-2.6,.52-1.2,.55-2.53,.07-3.75,0,0,0-.01,0-.02,1.54,.45,2.67,.93,2.69,.94,.17,.07,.37,.03,.49-.1,.13-.13,.16-.33,.08-.5l-2.74-5.6,1.71-6.51c.99-1.02,1.49-1.89,1.51-1.93Zm-31.55-4.11c.15-.04,.27-.15,.31-.3s.01-.31-.09-.42c-.07-.08-1.57-1.78-3.02-3.05l15.7-3.58,1.14,1.95c-2.2,1.55-3.59,3.87-4.14,6.91-.16,.9-.19,1.89-.09,2.93l-10.15-2.64c-.19-.05-.38,.03-.48,.19l-1.47,2.29c-.15-.01-.36-.02-.61-.03,.23-1.63-.43-2.9-.91-3.58,1.76-.19,2.94-.44,3.81-.67Zm-14.75,4.17c.02-.09,.02-.2-.02-.29l-2.29-5.21c2.15,.75,7.37,2.39,11.47,2.14,.25-.02,.49-.03,.72-.05,.12,.12,1.4,1.49,1.07,3.48-1.84,.02-4.77,.3-7.26,1.66-1.78,.97-3.62,2.55-5.11,3.98l1.42-5.71Zm.47,13.63c-1.98-1.15-3.56-3.57-4.05-4.37,.88-1.01,4.47-5,7.69-6.76,3.33-1.81,7.68-1.56,8.43-1.5,2.09,1.48,3.37,3.71,3.8,6.64,.35,2.38-.37,4.88-1.01,6.53-.6-.08-1.23-.06-1.85,.09-.51-1.07-1.35-1.93-2.45-2.41-1.2-.52-2.53-.55-3.75-.07-1.22,.48-2.18,1.4-2.71,2.6-.13,.3-.23,.61-.3,.92-1.35-.45-2.69-1.02-3.8-1.67Zm9.46,6.63c-.83,.19-1.69,.12-2.48-.23-.98-.43-1.74-1.22-2.13-2.22-.17-.44-.25-.89-.26-1.34,0-.3,0-.6,.07-.9,.06-.28,.14-.56,.25-.83,.43-.98,1.22-1.74,2.22-2.13,.48-.19,.97-.28,1.47-.28,.55,0,1.09,.11,1.61,.34,.87,.38,1.54,1.05,1.96,1.89-.83,.38-1.49,.96-1.98,1.66-.06,.09-.13,.17-.19,.27l-.55-.24-.27-.12,.64-1.46c.1-.22,0-.48-.23-.58-.23-.09-.48,0-.58,.23l-.64,1.46-1.46-.64c-.23-.09-.48,0-.58,.23-.1,.22,0,.48,.23,.58l.34,.15,1.13,.49-.23,.52-.41,.95c-.1,.22,0,.48,.23,.58,.06,.02,.12,.04,.18,.04,.17,0,.33-.1,.41-.26l.55-1.25,.09-.21,.46,.2,.32,.14c-.35,.93-.42,1.97-.15,2.99Zm8.46-2.73c.81,2.06-.21,4.4-2.28,5.21-1.95,.76-4.12-.12-5.04-1.94-.06-.11-.12-.21-.17-.33,0-.02-.01-.04-.02-.07-.05-.14-.08-.29-.12-.43-.2-.81-.15-1.63,.13-2.37,.07-.18,.16-.35,.26-.52,.04-.07,.06-.15,.1-.21,.17-.26,.37-.5,.6-.72,.31-.31,.68-.57,1.09-.77,.08-.04,.15-.09,.23-.12,.06-.02,.12-.03,.17-.05,.14-.05,.28-.09,.42-.12,.29-.06,.58-.11,.86-.11,.11,0,.22,.02,.33,.02,.31,.03,.61,.08,.9,.17,.29,.09,.57,.23,.84,.39,.33,.2,.63,.44,.9,.73,.33,.35,.6,.77,.78,1.24Zm-.52-2.2c-.49-.43-1.06-.76-1.67-.96,.67-1.75,1.38-4.33,1.01-6.86-.45-3.07-1.77-5.44-3.92-7.06l1.21-1.89,15.57,4.06c-.81,.66-1.51,1.37-2.09,1.96-.37,.38-.7,.71-.99,.97-.12,.1-.17,.26-.14,.42,.03,.15,.14,.28,.29,.33,.7,.23,1.89,.53,3.8,.79-.53,.71-1.28,2.09-.98,3.85-.16,.04-.32,.07-.48,.13-1.16,.45-2.07,1.32-2.61,2.43l-9.01,1.84Zm12.36,6.37c-.43,.98-1.22,1.74-2.22,2.13-1,.39-2.09,.37-3.08-.06-.98-.43-1.74-1.22-2.13-2.22-.39-1-.37-2.09,.06-3.08s1.22-1.74,2.22-2.13c.43-.17,.88-.25,1.33-.27,.04,.45,.13,.9,.3,1.34,.08,.2,.19,.39,.29,.57-.01,.02-.03,.03-.04,.05l-.64,1.47-1.46-.64c-.23-.09-.48,0-.58,.23-.1,.22,0,.48,.23,.58l1.46,.64-.64,1.46c-.1,.22,0,.48,.23,.58,.06,.02,.12,.04,.18,.04,.17,0,.33-.1,.41-.26l.64-1.46,1.46,.64c.06,.02,.12,.04,.18,.04,.17,0,.33-.1,.41-.26,.1-.22,0-.48-.23-.58l-1.46-.64,.45-1.03c.47,.54,1.05,.99,1.73,1.29,.4,.17,.81,.27,1.23,.34-.04,.42-.13,.84-.3,1.24Zm4.73-4.46c-.08,.17-.17,.33-.27,.49-.08,.13-.17,.26-.26,.38-.1,.12-.19,.24-.3,.35-.39,.39-.85,.71-1.38,.91-.43,.17-.88,.25-1.33,.26-.15,0-.3,0-.44,0-.15-.01-.3-.02-.45-.05-.29-.06-.58-.14-.86-.26-.98-.43-1.74-1.22-2.13-2.22-.12-.31-.19-.63-.23-.95-.02-.15-.03-.3-.04-.44,0-.15,0-.29,.02-.44,.03-.34,.11-.67,.22-1,.03-.08,.05-.16,.08-.24,.12-.28,.28-.53,.45-.77,.45-.61,1.05-1.08,1.77-1.37,.12-.05,.25-.07,.37-.11,.3-.08,.59-.14,.9-.15,.07,0,.13-.02,.2-.02,.55,0,1.09,.11,1.61,.34,.21,.09,.41,.21,.6,.34,.17,.11,.32,.24,.47,.37,.11,.1,.22,.21,.32,.32,.03,.03,.05,.07,.08,.1,.07,.09,.15,.18,.21,.27,.17,.25,.33,.52,.44,.81,.39,1,.37,2.09-.06,3.08Zm6.77-3.26c.39,1,.37,2.09-.06,3.08s-1.22,1.74-2.22,2.13c-1.46,.57-3.05,.21-4.15-.77,.18-.26,.33-.53,.46-.83,.35-.79,.45-1.64,.36-2.48l1.27,.56-.64,1.46c-.1,.22,0,.48,.23,.58,.06,.02,.12,.04,.18,.04,.17,0,.33-.1,.41-.26l.64-1.47,1.46,.64c.06,.02,.12,.04,.18,.04,.17,0,.33-.1,.41-.26,.1-.22,0-.48-.23-.58l-1.46-.64,.64-1.46c.1-.22,0-.48-.23-.58-.23-.09-.48,0-.58,.23l-.64,1.46-1.46-.64c-.12-.05-.24-.04-.35,0-.04-.13-.06-.26-.11-.38-.12-.31-.29-.58-.46-.85-.08-.12-.16-.24-.25-.36,.21-.21,.44-.39,.68-.55,.22-.15,.46-.27,.71-.37,.48-.19,.97-.28,1.47-.28,.55,0,1.09,.11,1.61,.34,.28,.12,.54,.28,.78,.46,.41,.3,.76,.68,1.02,1.11,.12,.2,.24,.42,.33,.64Zm.45-5.67c-.03,.1-.02,.21,.03,.31l2.31,4.73c-.66-.24-1.57-.54-2.6-.8-.51-.69-1.17-1.25-1.97-1.6-1.2-.53-2.54-.55-3.75-.07-.64,.25-1.2,.63-1.68,1.1-.38-.34-.8-.64-1.29-.85-.77-.34-1.59-.44-2.4-.37-.35-2.04,1-3.41,1.15-3.56,.24,.03,.47,.05,.72,.08,4.05,.39,8.83-2.89,10.92-4.5l-1.45,5.53Zm1.93-7.06c-.06,.06-6.45,5.6-11.31,5.15-2.23-.21-3.7-.49-4.65-.74,.15-.15,.31-.31,.47-.47,.73-.74,1.63-1.65,2.7-2.42,.14-.1,.21-.27,.18-.44-.03-.17-.16-.3-.32-.35l-5.7-1.48c-.13-1.08-.11-2.1,.05-3.02,.52-2.9,1.86-5.09,3.99-6.5,.68-.03,5.09-.17,8.39,1.76,3.16,1.85,6.62,5.96,7.47,6.99-.2,.31-.61,.86-1.2,1.47-.02,.01-.04,.01-.06,.03Z"></path>
              <path class="cls-3" d="M38.28,61.72c.03-.45-.32-.85-.77-.87-.45-.03-.85,.32-.87,.77-.03,.45,.32,.85,.77,.87,.45,.03,.85-.32,.87-.77Z"></path>
              <path class="cls-3" d="M40,61.67c0-1.4-1.14-2.54-2.54-2.54s-2.54,1.14-2.54,2.54,1.14,2.54,2.54,2.54,2.54-1.14,2.54-2.54Zm-4.2,0c0-.91,.74-1.66,1.66-1.66s1.66,.74,1.66,1.66-.74,1.66-1.66,1.66-1.66-.74-1.66-1.66Z"></path>
              <path class="cls-3" d="M69.87,51.04c-.46,0-.82,.39-.81,.84,0,.46,.39,.82,.84,.81s.82-.39,.81-.84-.39-.82-.84-.81Z"></path>
              <path class="cls-3" d="M69.99,49.33c-.7-.03-1.33,.21-1.83,.67-.5,.46-.79,1.09-.81,1.77-.03,.68,.21,1.33,.67,1.83,.46,.5,1.09,.79,1.77,.81,.03,0,.07,0,.1,0,1.36,0,2.49-1.08,2.54-2.44,.03-.68-.21-1.33-.67-1.83-.46-.5-1.09-.79-1.77-.81Zm-.17,4.2c-.91-.04-1.63-.81-1.59-1.72h0c.02-.44,.21-.85,.53-1.15,.31-.29,.71-.44,1.12-.44,.02,0,.04,0,.07,0,.44,.02,.85,.21,1.15,.53,.3,.32,.46,.75,.44,1.19-.04,.91-.83,1.63-1.72,1.59Z"></path>
              <path class="cls-3" d="M66.06,70.4l-.19-.08-1.27-.56,.64-1.46c.1-.22,0-.48-.23-.58-.02,0-.04,0-.06-.01-.12-.03-.25-.01-.35,.05-.07,.05-.14,.1-.17,.19l-.64,1.46-1.46-.64c-.23-.09-.48,0-.58,.23-.1,.22,0,.48,.23,.58l1.46,.64-.45,1.03-.19,.43s0,.02,0,.03c-.08,.22,.02,.46,.23,.55,.05,.02,.1,.03,.15,.03,0,0,.02,0,.02,0,.15,0,.28-.09,.36-.22,.01-.02,.03-.03,.04-.05l.64-1.46,1.46,.64c.06,.02,.12,.04,.18,.04s.11-.03,.16-.05c.1-.04,.19-.11,.24-.22,.1-.22,0-.48-.23-.58Z"></path>
              <path class="cls-3" d="M47.96,73.13l.64-1.46c.1-.22,0-.48-.23-.58-.23-.09-.48,0-.58,.23l-.64,1.46-.79-.34-.4-.18-.27-.12s-.09-.03-.14-.03c-.18-.01-.36,.08-.44,.26-.07,.17-.03,.35,.08,.48,.04,.04,.09,.08,.15,.11l.24,.1,.4,.18,.82,.36-.64,1.46c-.1,.22,0,.48,.23,.58,.06,.02,.12,.04,.18,.04,.17,0,.33-.1,.41-.26l.64-1.46,1.46,.64c.06,.02,.12,.04,.18,.04,.17,0,.33-.1,.41-.26,.1-.22,0-.48-.23-.58l-1.46-.64Z"></path>
            </g>
          </g>
        </g>
      </g>
    </symbol>
  </defs>
  <g>
    <path class="cls-2" d="M176.84,59.91v-5.31h.22c2.29,2.35,5.44,5.82,8.78,5.82,1.94,0,3.66-1.15,3.66-3.31,0-2.67-2.67-3.91-6.14-5.19-3.88-1.37-6.84-3.31-6.84-6.81s2.96-6.81,8.59-6.81c2.96,0,5.98,1.02,7.92,1.78v5.19h-.16c-2.16-2.1-5.38-5.54-8.46-5.54-2.2,0-3.53,1.43-3.53,2.99,0,2.35,3.09,3.47,6.62,4.87,5.15,2.13,6.49,4.9,6.49,7.44,0,4.68-4.17,6.87-8.65,6.87-2.32,0-5.34-.7-8.5-2Z"></path>
    <path class="cls-2" d="M207.03,58.1c-.76,1.94-2.29,3.75-4.96,3.75s-4.29-1.85-4.29-5.06v-9.89h-2.32v-1.27c3.25-1.4,5.19-3.31,6.81-5.5h.16v5.38h4.33v1.4h-4.33v9.45c0,1.69,.89,2.42,2.2,2.42,.67,0,1.53-.19,2.42-.67Z"></path>
    <path class="cls-2" d="M234.13,45.56c0,4.68-4.33,7-8.65,7h-3.44v3.95c0,2.16,.73,4.52,.83,4.9v.13h-6.62v-.13c.06-.38,.83-2.74,.83-4.9v-12.85c0-2.16-.76-4.52-.83-4.9v-.13h10.34c4.49,0,7.54,3.05,7.54,6.94Zm-5.19,0c0-2.32-.99-5.47-4.04-5.47h-2.86v11.01h2.77c3.05,0,4.14-3.05,4.14-5.54Z"></path>
    <path class="cls-2" d="M252.65,61.4v.13h-6.3v-.13c.1-.38,.83-2.74,.83-4.9v-5.22c0-2.23-1.37-3.05-2.93-3.05-.92,0-1.88,.32-2.77,.89v7.38c0,2.16,.76,4.52,.83,4.9v.13h-6.3v-.13c.1-.38,.83-2.74,.83-4.9v-13.17c0-2.16-.79-4.42-.89-4.8l-.03-.13,5.57-.64v10.34c1.18-1.62,2.86-2.8,5.12-2.8,2.77,0,5.22,1.72,5.22,5.34v5.85c0,2.16,.76,4.52,.83,4.9Z"></path>
    <path class="cls-2" d="M254.97,40.22c0-1.59,1.34-2.86,2.96-2.86s2.93,1.27,2.93,2.86-1.37,2.89-2.93,2.89-2.96-1.27-2.96-2.89Zm0,21.19c.06-.38,.83-2.74,.83-4.9v-5.98c0-2.16-.73-4.52-.83-4.9v-.13h5.44v11.01c0,2.16,.76,4.52,.86,4.9v.13h-6.3v-.13Z"></path>
    <path class="cls-2" d="M263.56,61.4c.06-.38,.83-2.74,.83-4.9v-13.17c0-2.16-.8-4.42-.92-4.8v-.13l5.57-.64v18.74c0,2.16,.76,4.52,.83,4.9v.13h-6.3v-.13Z"></path>
    <path class="cls-2" d="M272.21,40.22c0-1.59,1.34-2.86,2.96-2.86s2.93,1.27,2.93,2.86-1.37,2.89-2.93,2.89-2.96-1.27-2.96-2.89Zm0,21.19c.06-.38,.83-2.74,.83-4.9v-5.98c0-2.16-.73-4.52-.83-4.9v-.13h5.44v11.01c0,2.16,.76,4.52,.86,4.9v.13h-6.3v-.13Z"></path>
    <path class="cls-2" d="M297.15,53.32c0,5.82-3.44,8.49-6.62,8.49-1.4,0-3.05-.51-4.29-1.97v3.02c0,2.16,.76,4.52,.83,4.9v.13h-6.3v-.13c.06-.38,.83-2.74,.83-4.9v-12.25c0-2.16-.76-4.49-.83-4.9l-.03-.1,.86-.03,4.64-.09v2.23c1.08-1.59,2.8-2.42,4.68-2.42,3.34,0,6.24,2.7,6.24,8.02Zm-5.03,.1c0-2.9-.92-5.47-3.34-5.47-.89,0-1.75,.41-2.55,1.11v9.61c.73,.51,1.5,.83,2.32,.83,2.58,0,3.56-2.9,3.56-6.08Z"></path>
    <path class="cls-2" d="M298.26,38.62h4.29c-.1,1.69-1.27,5.92-1.91,8.88h-.48c-.64-2.96-1.81-7.19-1.91-8.88Z"></path>
    <path class="cls-2" d="M303.99,60.48v-4.45h.13c1.88,1.91,4.07,4.42,6.46,4.42,1.24,0,2.42-.64,2.42-1.97,0-1.5-1.53-2.04-4.14-2.96-3.34-1.21-5.28-2.77-5.28-5.34,0-3.09,2.7-4.87,6.65-4.87,1.43,0,3.59,.29,5.76,1.18v4.26h-.13c-1.78-2.04-3.85-4.14-6.08-4.14-1.18,0-2.32,.57-2.32,1.78,0,1.5,1.72,2.04,4.23,2.9,3.75,1.3,5.03,2.99,5.03,5.28,0,3.69-3.15,5.28-6.43,5.28-1.5,0-3.69-.35-6.3-1.37Z"></path>
    <path class="cls-2" d="M176.33,82.11c0-7.09,4.77-11.8,11.13-11.8,2.23,0,4.9,.54,7.7,1.37v5.76h-.19c-1.62-2.45-4.2-5.69-7-5.69-3.37,0-6.11,4.42-6.11,10.34s2.89,10.4,6.14,10.4c2.48,0,5-2.83,6.97-5.76h.19v5.79c-2.67,.79-5.22,1.4-7.89,1.4-6.11,0-10.94-4.74-10.94-11.8Z"></path>
    <path class="cls-2" d="M214.54,93.4v.13h-6.3v-.13c.1-.38,.83-2.74,.83-4.9v-5.22c0-2.23-1.37-3.05-2.93-3.05-.92,0-1.88,.32-2.77,.89v7.38c0,2.16,.76,4.52,.83,4.9v.13h-6.3v-.13c.1-.38,.83-2.74,.83-4.9v-13.17c0-2.16-.79-4.42-.89-4.8l-.03-.13,5.57-.64v10.34c1.18-1.62,2.86-2.8,5.12-2.8,2.77,0,5.22,1.72,5.22,5.34v5.85c0,2.16,.76,4.52,.83,4.9Z"></path>
    <path class="cls-2" d="M228.85,77.46l-.73,4.96h-.13c-1.4-1.43-3.63-2.51-5.82-.99v7.06c0,2.16,.76,4.52,.86,4.9v.13h-6.3v-.13c.06-.38,.83-2.74,.83-4.9v-5.98c0-2.16-.76-4.52-.83-4.9v-.13h5.44v3.09c1.18-2.42,3.34-4.2,6.68-3.12Z"></path>
    <path class="cls-2" d="M230.76,72.22c0-1.59,1.34-2.86,2.96-2.86s2.93,1.27,2.93,2.86-1.37,2.89-2.93,2.89-2.96-1.27-2.96-2.89Zm0,21.19c.06-.38,.83-2.74,.83-4.9v-5.98c0-2.16-.73-4.52-.83-4.9v-.13h5.44v11.01c0,2.16,.76,4.52,.86,4.9v.13h-6.3v-.13Z"></path>
    <path class="cls-2" d="M239.73,92.48v-4.45h.13c1.88,1.91,4.07,4.42,6.46,4.42,1.24,0,2.42-.64,2.42-1.97,0-1.5-1.53-2.04-4.14-2.96-3.34-1.21-5.28-2.77-5.28-5.34,0-3.09,2.7-4.87,6.65-4.87,1.43,0,3.59,.29,5.76,1.18v4.26h-.13c-1.78-2.04-3.85-4.14-6.08-4.14-1.18,0-2.32,.57-2.32,1.78,0,1.5,1.72,2.04,4.23,2.9,3.75,1.3,5.03,2.99,5.03,5.28,0,3.69-3.15,5.28-6.43,5.28-1.5,0-3.69-.35-6.3-1.37Z"></path>
    <path class="cls-2" d="M265.56,90.1c-.76,1.94-2.29,3.75-4.96,3.75s-4.29-1.85-4.29-5.06v-9.89h-2.32v-1.27c3.25-1.4,5.19-3.31,6.81-5.5h.16v5.38h4.33v1.4h-4.33v9.45c0,1.69,.89,2.42,2.2,2.42,.67,0,1.53-.19,2.42-.67Z"></path>
    <path class="cls-2" d="M267.56,72.22c0-1.59,1.34-2.86,2.96-2.86s2.93,1.27,2.93,2.86-1.37,2.89-2.93,2.89-2.96-1.27-2.96-2.89Zm0,21.19c.06-.38,.83-2.74,.83-4.9v-5.98c0-2.16-.73-4.52-.83-4.9v-.13h5.44v11.01c0,2.16,.76,4.52,.86,4.9v.13h-6.3v-.13Z"></path>
    <path class="cls-2" d="M292.47,91.21c-.22,1.46-1.4,2.54-3.21,2.54-1.72,0-2.9-.89-3.34-2.48-.79,1.24-2.39,2.54-4.84,2.54-3.34,0-5.12-2.54-5.12-5.03,0-3.4,3.37-5.44,7.22-5.09,.83,.03,1.81,.19,2.58,.48v-1.88c0-2.29-.54-3.59-1.65-3.59-1.88,0-6.39,3.63-6.78,4.17h-.16v-4.39c2.8-.8,5.47-1.18,7.22-1.18,4.2,0,6.01,2.23,6.01,5.28v6.59c0,1.81,.54,2.61,2,1.94l.06,.1Zm-6.71-.92v-5.15c-.19,0-.41,0-.67-.03-2.86-.35-4.29,1.15-4.29,3.05s1.15,3.12,2.83,3.12c.8,0,1.53-.35,2.13-.99Z"></path>
    <path class="cls-2" d="M310.7,93.4v.13h-6.3v-.13c.1-.38,.83-2.74,.83-4.9v-5.22c0-2.23-1.34-3.05-2.77-3.09-1.05-.03-2.04,.38-2.96,1.08v7.22c0,2.16,.76,4.52,.86,4.9v.13h-6.3v-.13c.06-.38,.83-2.74,.83-4.9v-5.98c0-2.16-.76-4.52-.83-4.9v-.13h5.44v2.77c1.05-1.62,2.74-2.96,5.15-2.96,2.8,0,5.22,1.72,5.22,5.34v5.85c0,2.16,.76,4.52,.83,4.9Z"></path>
    <path class="cls-2" d="M336.91,92.19l.03,1.34h-16.58v-.13c.09-.38,.86-2.74,.86-4.9v-12.85c0-2.16-.76-4.52-.86-4.9v-.13h16.48v5.28h-.16c-.51-.35-3.5-3.95-6.24-3.95h-4.29v9.26h1.81c2.67,0,5.57-1.4,6.08-1.53h.13v4.23h-.13c-.51-.13-3.4-1.53-6.08-1.53h-1.81v9.8h4.39c2.74,0,5.73-3.6,6.24-3.95h.16l-.03,3.95Z"></path>
    <path class="cls-2" d="M355.42,93.4v.13h-4.26c-.32-.79-.76-1.4-.99-2.35-1.34,1.97-3.25,2.67-4.87,2.67-3.21,0-6.43-2.74-6.43-8.34s3.12-8.21,6.46-8.21c1.81,0,3.56,.83,4.61,2.42v-4.39c0-2.16-1.08-4.39-1.21-4.77l-.03-.13,5.89-.67v18.74c0,2.16,.73,4.52,.83,4.9Zm-5.41-3.12c-.03-.25-.06-.57-.06-.89v-8.37c-.76-.67-1.62-1.08-2.54-1.08-2.42,0-3.5,2.42-3.5,5.5s.83,6.01,3.44,6.01c.92,0,1.78-.41,2.67-1.18Z"></path>
    <path class="cls-2" d="M374.1,93.4v.13h-4.42c-.29-.6-.67-1.65-.86-2.8-1.15,1.78-2.74,3.09-5.15,3.09-2.8,0-5.25-1.72-5.25-5.34v-5.95c0-2.16-.76-4.52-.83-4.9v-.13h5.47v10.34c0,2.19,1.27,3.02,2.74,3.02,.96,0,1.97-.38,2.9-.95-.03-.35-.06-.67-.06-.99v-6.39c0-2.16-.76-4.52-.83-4.9v-.13h5.44v11.01c0,2.16,.76,4.52,.86,4.9Z"></path>
    <path class="cls-2" d="M375.88,85.55c0-5.25,3.37-8.24,8.14-8.24,2.58,0,4.8,.95,6.11,1.46l.06,4.8h-.16c-1.15-1.88-3.53-5-5.92-5s-3.21,2.64-3.21,5.57c.06,3.95,1.59,6.65,5.06,6.65,1.37,0,3.02-.41,4.84-1.75l.1,.06c-.86,2.29-3.28,4.74-7.03,4.74s-7.99-2.67-7.99-8.3Z"></path>
    <path class="cls-2" d="M409.28,91.21c-.22,1.46-1.4,2.54-3.21,2.54-1.72,0-2.9-.89-3.34-2.48-.79,1.24-2.39,2.54-4.84,2.54-3.34,0-5.12-2.54-5.12-5.03,0-3.4,3.37-5.44,7.22-5.09,.83,.03,1.81,.19,2.58,.48v-1.88c0-2.29-.54-3.59-1.65-3.59-1.88,0-6.39,3.63-6.78,4.17h-.16v-4.39c2.8-.8,5.47-1.18,7.22-1.18,4.2,0,6.01,2.23,6.01,5.28v6.59c0,1.81,.54,2.61,2,1.94l.06,.1Zm-6.71-.92v-5.15c-.19,0-.41,0-.67-.03-2.86-.35-4.29,1.15-4.29,3.05s1.15,3.12,2.83,3.12c.8,0,1.53-.35,2.13-.99Z"></path>
    <path class="cls-2" d="M421.02,90.1c-.76,1.94-2.29,3.75-4.96,3.75s-4.29-1.85-4.29-5.06v-9.89h-2.32v-1.27c3.25-1.4,5.19-3.31,6.81-5.5h.16v5.38h4.33v1.4h-4.33v9.45c0,1.69,.89,2.42,2.2,2.42,.67,0,1.53-.19,2.42-.67Z"></path>
    <path class="cls-2" d="M423.02,72.22c0-1.59,1.34-2.86,2.96-2.86s2.93,1.27,2.93,2.86-1.37,2.89-2.93,2.89-2.96-1.27-2.96-2.89Zm0,21.19c.06-.38,.83-2.74,.83-4.9v-5.98c0-2.16-.73-4.52-.83-4.9v-.13h5.44v11.01c0,2.16,.76,4.52,.86,4.9v.13h-6.3v-.13Z"></path>
    <path class="cls-2" d="M431.29,85.48c0-5.5,3.85-8.18,8.3-8.18s8.37,2.7,8.37,8.18-3.91,8.37-8.37,8.37-8.3-2.86-8.3-8.37Zm11.48,0c0-3.44-.89-6.9-3.18-6.9s-3.15,3.5-3.15,6.9,.83,7.06,3.15,7.06,3.18-3.59,3.18-7.06Z"></path>
    <path class="cls-2" d="M466.38,93.4v.13h-6.3v-.13c.1-.38,.83-2.74,.83-4.9v-5.22c0-2.23-1.34-3.05-2.77-3.09-1.05-.03-2.04,.38-2.96,1.08v7.22c0,2.16,.76,4.52,.86,4.9v.13h-6.3v-.13c.06-.38,.83-2.74,.83-4.9v-5.98c0-2.16-.76-4.52-.83-4.9v-.13h5.44v2.77c1.05-1.62,2.74-2.96,5.15-2.96,2.8,0,5.22,1.72,5.22,5.34v5.85c0,2.16,.76,4.52,.83,4.9Z"></path>
    <path class="cls-2" d="M179.61,118.53h-1.94v-9.28h5.32v1.61h-3.38v2.39h3.15v1.61h-3.15v3.67Z"></path>
    <path class="cls-2" d="M193.36,113.88c0,1.54-.38,2.72-1.14,3.54-.76,.83-1.85,1.24-3.28,1.24s-2.51-.41-3.28-1.24c-.76-.82-1.14-2.01-1.14-3.55s.38-2.72,1.15-3.54,1.86-1.22,3.28-1.22,2.52,.41,3.27,1.23c.76,.82,1.13,2,1.13,3.54Zm-6.77,0c0,1.04,.2,1.82,.59,2.34,.39,.52,.98,.79,1.77,.79,1.57,0,2.35-1.04,2.35-3.13s-.78-3.14-2.34-3.14c-.78,0-1.37,.26-1.77,.79-.4,.53-.6,1.31-.6,2.35Z"></path>
    <path class="cls-2" d="M197.38,114.97v3.56h-1.97v-9.28h2.7c1.26,0,2.19,.23,2.8,.69,.6,.46,.91,1.16,.91,2.09,0,.55-.15,1.03-.45,1.46-.3,.42-.73,.76-1.28,1,1.4,2.09,2.31,3.43,2.73,4.04h-2.18l-2.21-3.56h-1.05Zm0-1.6h.63c.62,0,1.08-.1,1.38-.31,.3-.21,.44-.53,.44-.98s-.15-.75-.45-.94-.77-.28-1.41-.28h-.6v2.51Z"></path>
    <path class="cls-2" d="M211.21,118.53h-1.97v-7.64h-2.52v-1.64h7.01v1.64h-2.52v7.64Z"></path>
    <path class="cls-2" d="M222.9,118.53h-1.96v-4.01h-3.67v4.01h-1.97v-9.28h1.97v3.64h3.67v-3.64h1.96v9.28Z"></path>
    <path class="cls-2" d="M230.71,118.53h-5.34v-9.28h5.34v1.61h-3.38v2.04h3.14v1.61h-3.14v2.39h3.38v1.62Z"></path>
    <path class="cls-2" d="M245.32,118.53h-2.24l-1.26-4.88c-.05-.17-.12-.53-.24-1.08s-.18-.91-.19-1.09c-.03,.23-.09,.6-.19,1.1s-.18,.87-.24,1.08l-1.25,4.86h-2.23l-2.37-9.28h1.94l1.19,5.07c.21,.94,.36,1.75,.45,2.43,.03-.24,.08-.62,.17-1.12s.18-.9,.26-1.18l1.35-5.2h1.86l1.35,5.2c.06,.23,.13,.59,.22,1.07,.09,.48,.16,.89,.2,1.23,.04-.33,.11-.74,.2-1.24,.09-.49,.18-.89,.25-1.2l1.18-5.07h1.94l-2.36,9.28Z"></path>
    <path class="cls-2" d="M256.59,118.53h-1.96v-4.01h-3.67v4.01h-1.97v-9.28h1.97v3.64h3.67v-3.64h1.96v9.28Z"></path>
    <path class="cls-2" d="M267.48,113.88c0,1.54-.38,2.72-1.14,3.54-.76,.83-1.85,1.24-3.28,1.24s-2.51-.41-3.28-1.24c-.76-.82-1.14-2.01-1.14-3.55s.38-2.72,1.15-3.54,1.86-1.22,3.28-1.22,2.52,.41,3.27,1.23c.76,.82,1.13,2,1.13,3.54Zm-6.77,0c0,1.04,.2,1.82,.59,2.34,.39,.52,.98,.79,1.77,.79,1.57,0,2.35-1.04,2.35-3.13s-.78-3.14-2.34-3.14c-.78,0-1.37,.26-1.77,.79-.4,.53-.6,1.31-.6,2.35Z"></path>
    <path class="cls-2" d="M269.54,118.53v-9.28h1.97v7.66h3.76v1.62h-5.73Z"></path>
    <path class="cls-2" d="M282.36,118.53h-5.34v-9.28h5.34v1.61h-3.38v2.04h3.14v1.61h-3.14v2.39h3.38v1.62Z"></path>
    <path class="cls-2" d="M296.35,113.88c0,1.54-.38,2.72-1.14,3.54-.76,.83-1.85,1.24-3.28,1.24s-2.51-.41-3.28-1.24c-.76-.82-1.14-2.01-1.14-3.55s.38-2.72,1.15-3.54,1.86-1.22,3.28-1.22,2.52,.41,3.27,1.23c.76,.82,1.13,2,1.13,3.54Zm-6.77,0c0,1.04,.2,1.82,.59,2.34,.39,.52,.98,.79,1.77,.79,1.57,0,2.35-1.04,2.35-3.13s-.78-3.14-2.34-3.14c-.78,0-1.37,.26-1.77,.79-.4,.53-.6,1.31-.6,2.35Z"></path>
    <path class="cls-2" d="M300.34,118.53h-1.94v-9.28h5.32v1.61h-3.38v2.39h3.15v1.61h-3.15v3.67Z"></path>
    <path class="cls-2" d="M309.18,118.53v-9.28h1.97v7.66h3.76v1.62h-5.73Z"></path>
    <path class="cls-2" d="M316.65,118.53v-9.28h1.97v9.28h-1.97Z"></path>
    <path class="cls-2" d="M323.02,118.53h-1.94v-9.28h5.32v1.61h-3.38v2.39h3.15v1.61h-3.15v3.67Z"></path>
    <path class="cls-2" d="M333.69,118.53h-5.34v-9.28h5.34v1.61h-3.38v2.04h3.14v1.61h-3.14v2.39h3.38v1.62Z"></path>
  </g>
  <use width="107.26" height="107.26" transform="scale(1.45)" xlink:href="#SPCC_Logo"></use>
</svg>
