<?xml version="1.0" encoding="UTF-8"?>
<svg xmlns="http://www.w3.org/2000/svg" width="228" height="75" viewBox="0 0 228 75" fill="none">
  <path d="M123.397 24.1918L130.6 5.93887H127.03L122.144 18.384L117.259 5.93887H113.689L120.954 24.1918H123.397Z" fill="white"></path>
  <path d="M134.797 9.25758C135.987 9.25758 136.989 8.30026 136.989 7.08766C136.989 5.87505 136.05 4.91773 134.797 4.91773C133.544 4.91773 132.605 5.87505 132.605 7.08766C132.667 8.30026 133.607 9.25758 134.797 9.25758Z" fill="white"></path>
  <path d="M136.488 11.5551H133.168V24.1918H136.488V11.5551Z" fill="white"></path>
  <path d="M144.568 21.5751C143.316 21.5751 142 21.1283 141.186 20.2987L139.557 22.7239C140.998 23.8088 142.814 24.3832 144.506 24.3832C147.136 24.3832 149.454 22.9153 149.454 20.4901C149.454 16.1503 143.441 16.7885 143.441 15.1291C143.441 14.4909 144.192 14.108 145.132 14.108C146.009 14.108 146.886 14.4909 147.512 14.9377L149.078 12.5125C148.264 11.8743 146.51 11.236 144.881 11.236C142.439 11.236 140.121 12.7677 140.121 15.193C140.121 19.2775 146.134 18.5755 146.134 20.4901C146.197 21.1283 145.508 21.5751 144.568 21.5751Z" fill="white"></path>
  <path d="M154.841 9.25758C156.031 9.25758 157.033 8.30026 157.033 7.08766C157.033 5.87505 156.093 4.91773 154.841 4.91773C153.588 4.91773 152.648 5.87505 152.648 7.08766C152.711 8.30026 153.651 9.25758 154.841 9.25758Z" fill="white"></path>
  <path d="M156.532 11.5551H153.212V24.1918H156.532V11.5551Z" fill="white"></path>
  <path d="M166.178 11.2999C162.42 11.2999 159.601 14.2356 159.601 17.8735C159.601 21.5113 162.42 24.447 166.178 24.447C169.936 24.447 172.755 21.5113 172.755 17.8735C172.755 14.2356 169.936 11.2999 166.178 11.2999ZM166.178 21.3198C164.236 21.3198 162.921 19.7881 162.921 17.8735C162.921 15.9588 164.236 14.4271 166.178 14.4271C168.12 14.4271 169.435 15.9588 169.435 17.8735C169.435 19.7881 168.12 21.3198 166.178 21.3198Z" fill="white"></path>
  <path d="M184.53 17.4905V24.1918H187.85V17.7458C187.85 15.5759 187.412 14.2995 186.597 13.3421C185.595 12.0657 184.029 11.2999 182.338 11.2999C180.96 11.2999 179.77 11.8104 178.83 12.5763V11.5551H175.636V24.1918H178.956V15.9588C179.394 15.3206 180.584 14.4271 181.962 14.4271C182.714 14.4271 183.403 14.6824 183.841 15.1291C184.217 15.5759 184.53 16.2141 184.53 17.4905Z" fill="white"></path>
  <path d="M118.762 44.4231H125.903L127.594 48.4438H131.164L123.522 30.2548H121.08L113.438 48.4438H117.008L118.762 44.4231ZM122.332 35.8711L124.587 41.232H120.015L122.332 35.8711Z" fill="white"></path>
  <path d="M141.812 43.9764C141.374 44.5507 140.309 45.5081 138.931 45.5081C138.305 45.5081 137.553 45.3166 137.052 44.7422C136.676 44.2955 136.426 43.7211 136.426 42.5723V35.8072H133.106V42.5085C133.106 44.3593 133.544 45.6995 134.359 46.6568C135.298 47.8694 136.864 48.6991 138.555 48.6991C139.745 48.6991 140.935 48.3162 141.875 47.4227V48.4438H145.069V35.8072H141.75V43.9764H141.812Z" fill="white"></path>
  <path d="M151.646 39.445C151.646 38.8068 152.398 38.4239 153.337 38.4239C154.214 38.4239 155.091 38.8068 155.718 39.2536L157.284 36.8284C156.469 36.1902 154.715 35.5519 153.087 35.5519C150.644 35.5519 148.326 37.0837 148.326 39.5089C148.326 43.5934 154.34 42.8914 154.34 44.806C154.34 45.4442 153.651 45.891 152.774 45.891C151.521 45.891 150.206 45.4442 149.391 44.6146L147.763 47.0398C149.203 48.1247 151.02 48.6991 152.711 48.6991C155.342 48.6991 157.659 47.2312 157.659 44.806C157.659 40.4024 151.646 41.0406 151.646 39.445Z" fill="white"></path>
  <path d="M169.999 48.4438L169.498 45.5719C169.247 45.6357 168.621 45.6995 168.12 45.6995C167.305 45.6995 166.742 45.4442 166.428 45.0613C166.178 44.7422 165.99 44.2316 165.99 43.4658V38.6792H170.061V35.8072H165.99V32.2971H162.67V35.8072H159.225V38.6792H162.67V43.0829C162.67 44.8699 162.921 46.0186 163.61 46.8483C164.424 47.9971 165.927 48.6991 167.869 48.6991C168.621 48.6991 169.56 48.5715 169.999 48.4438Z" fill="white"></path>
  <path d="M176.763 37.0837V35.8072H173.569V48.4438H176.889V40.4662C177.327 39.7003 178.455 38.6154 179.895 38.6154C180.396 38.6154 180.835 38.6792 181.085 38.743L181.461 35.6158C181.085 35.5519 180.835 35.4881 180.334 35.4881C178.893 35.5519 177.515 36.1263 176.763 37.0837Z" fill="white"></path>
  <path d="M195.554 48.4438V35.8072H192.36V36.8284C191.42 35.9987 190.168 35.5519 188.727 35.5519C185.345 35.5519 182.651 38.4239 182.651 42.1255C182.651 43.8487 183.278 45.3804 184.217 46.5292C185.345 47.8056 187.036 48.6353 188.915 48.6353C190.168 48.6353 191.358 48.2524 192.36 47.3589V48.38L195.554 48.4438ZM192.235 43.9764C191.608 44.9337 190.481 45.5081 189.228 45.5081C187.349 45.5081 185.971 44.0402 185.971 42.0617C185.971 40.2109 187.224 38.6154 189.165 38.6154C190.418 38.6154 191.546 39.2536 192.235 40.1471V43.9764Z" fill="white"></path>
  <path d="M202.695 29.9357H199.375V48.38H202.695V29.9357Z" fill="white"></path>
  <path d="M208.207 33.5097C209.418 33.5097 210.399 32.5382 210.399 31.3397C210.399 30.1413 209.418 29.1698 208.207 29.1698C206.996 29.1698 206.015 30.1413 206.015 31.3397C206.015 32.5382 206.996 33.5097 208.207 33.5097Z" fill="white"></path>
  <path d="M209.835 35.8072H206.516V48.4438H209.835V35.8072Z" fill="white"></path>
  <path d="M222.613 36.8284C221.674 35.9987 220.421 35.5519 218.98 35.5519C215.598 35.5519 212.905 38.4239 212.905 42.1255C212.905 43.8487 213.531 45.3804 214.471 46.5292C215.598 47.8056 217.289 48.6353 219.168 48.6353C220.421 48.6353 221.611 48.2524 222.613 47.3589V48.38H225.808V35.8072H222.613V36.8284ZM222.488 43.9764C221.862 44.9337 220.734 45.5081 219.481 45.5081C217.602 45.5081 216.224 44.0402 216.224 42.0617C216.224 40.2109 217.477 38.6154 219.419 38.6154C220.672 38.6154 221.799 39.2536 222.488 40.1471V43.9764Z" fill="white"></path>
  <path d="M102.477 32.1694C100.535 25.8511 96.2756 19.1499 90.5757 13.3421C84.8758 7.53441 78.299 3.19456 72.098 1.2161C69.5925 0.386422 67.2749 0.00349451 65.1453 0.00349451C63.0157 0.00349451 60.6981 0.386422 58.1927 1.2161C51.9917 3.19456 45.4148 7.47058 39.7149 13.2783C39.2765 13.7251 38.9007 14.108 38.5248 14.5547C38.149 14.108 37.7106 13.7251 37.3347 13.2783C31.5722 7.47058 24.9954 3.19456 18.7944 1.2161C12.1549 -0.953825 6.64289 -0.187969 3.19789 3.25838C-0.18448 6.76855 -0.936117 12.3848 1.19352 19.1499C3.13525 25.4682 7.39453 32.1694 13.0944 37.9772C18.7944 43.7849 25.3712 48.1247 31.5722 50.1032C33.5766 50.7414 35.4556 51.1243 37.2095 51.252C37.2721 51.252 37.7732 51.3158 38.5248 51.3158C39.2765 51.3158 39.8402 51.252 39.8402 51.252C41.594 51.1243 43.4731 50.7414 45.4775 50.1032C51.6785 48.1247 58.2553 43.7849 63.9552 37.9772C64.3937 37.5304 64.7695 37.1475 65.2079 36.7007C65.5838 37.1475 66.0222 37.5942 66.4607 37.9772C72.1606 43.7849 78.7374 48.1247 84.9384 50.1032C87.4439 50.8691 89.7614 51.3158 91.8911 51.3158C95.4613 51.3158 98.4053 50.2308 100.535 48.0609C103.855 44.5508 104.544 38.9345 102.477 32.1694ZM27.3755 43.9764C23.4295 41.8703 19.4834 38.8707 15.8504 35.169C10.589 29.808 6.70553 23.6812 4.95171 17.9373C3.32316 12.7678 3.69898 8.4279 6.01653 6.13034C7.33189 4.72627 9.39889 4.02424 11.9044 4.02424C13.5955 4.02424 15.5373 4.34334 17.6043 5.04538C23.2415 6.83237 29.192 10.7893 34.5161 16.1503C35.0172 16.6608 35.4556 17.1076 35.8941 17.6182C32.1359 22.3409 29.3173 27.319 27.814 32.1694C26.3734 36.7007 26.2481 40.7853 27.3755 43.9764ZM44.35 45.189C43.0347 46.5292 41.1556 47.1674 38.838 47.2951C38.7127 47.2951 38.5875 47.2951 38.4622 47.2951C35.9567 47.2951 33.9524 46.593 32.5744 45.189C30.2568 42.8276 29.881 38.5515 31.5096 33.3182C32.8249 29.1698 35.2051 24.7661 38.4622 20.6816C45.9786 30.2548 48.7346 40.7215 44.35 45.189ZM61.1366 35.169C57.5037 38.8707 53.5576 41.8703 49.6115 43.9764C50.7389 40.7853 50.6137 36.7007 49.173 32.1056C47.6698 27.319 44.8511 22.2771 41.0929 17.5543C41.5314 17.0438 41.9698 16.597 42.4709 16.0865C46.1038 12.3848 50.1126 9.3214 54.0587 7.2153C52.9312 10.534 53.0565 14.5547 54.4971 19.1499C56.0004 23.9365 58.7564 28.9784 62.5772 33.7011C62.0761 34.1479 61.6377 34.6584 61.1366 35.169ZM65.1453 30.5739C61.8882 26.4255 59.508 22.0857 58.2553 17.9373C56.6268 12.7678 57.0026 8.4279 59.3201 6.13034C60.6355 4.79009 62.7025 4.08806 65.1453 4.02424C67.6508 4.02424 69.6551 4.72627 70.9705 6.13034C73.288 8.49172 73.6639 12.7678 72.0353 18.0011C70.7826 22.0857 68.4024 26.4893 65.1453 30.5739ZM97.6536 45.189C95.3361 47.5504 91.1394 47.9333 86.0032 46.2739C80.366 44.4869 74.4155 40.53 69.0914 35.169C68.5903 34.6584 68.1519 34.2117 67.7134 33.7011C71.4716 29.0422 74.2902 24.0003 75.7935 19.1499C77.2341 14.5547 77.3594 10.4702 76.232 7.27912C80.178 9.38522 84.1868 12.4486 87.8197 16.1503C93.0812 21.5113 96.9646 27.6381 98.7184 33.382C100.347 38.5515 99.9712 42.8914 97.6536 45.189Z" fill="white"></path>
  <path d="M13.5329 65.5479C13.9714 65.1012 14.2845 64.5268 14.2845 63.8886C14.2845 63.1866 13.9714 62.5484 13.5329 62.1016C13.0944 61.7187 12.5307 61.4634 11.6538 61.4634H8.52198V70.8451H12.0923C13.0318 70.8451 13.6582 70.5898 14.0966 70.2069C14.723 69.6963 15.0988 68.8667 15.0988 68.037C15.0362 66.952 14.4098 65.9947 13.5329 65.5479ZM9.77471 62.676H11.3406C12.0923 62.676 12.4054 62.8036 12.5934 63.0589C12.7813 63.2504 12.9065 63.5695 12.9065 63.8886C12.9065 64.2077 12.7813 64.5268 12.5934 64.7183C12.4054 64.9736 12.0923 65.1012 11.3406 65.1012H9.77471V62.676ZM13.2824 69.0581C12.9692 69.3772 12.5934 69.5687 11.7791 69.5687H9.77471V66.3776H11.7791C12.5934 66.3776 13.0318 66.5691 13.2824 66.8882C13.5329 67.1435 13.7208 67.5264 13.7208 67.9732C13.7208 68.4199 13.5329 68.8028 13.2824 69.0581Z" fill="white"></path>
  <path d="M17.9174 61.2081H16.6647V70.7813H17.9174V61.2081Z" fill="white"></path>
  <path d="M21.6756 64.463H20.4229V70.8451H21.6756V64.463Z" fill="white"></path>
  <path d="M21.0493 61.3996C20.6108 61.3996 20.235 61.7825 20.235 62.2292C20.235 62.676 20.6108 63.0589 21.0493 63.0589C21.4877 63.0589 21.8635 62.676 21.8635 62.2292C21.8635 61.7825 21.4877 61.3996 21.0493 61.3996Z" fill="white"></path>
  <path d="M27.3129 64.3354C26.436 64.3354 25.747 64.7821 25.4338 65.1012V64.463H24.2437V70.8451H25.4965V66.5053C25.8723 66.0585 26.436 65.6118 27.3129 65.6118C27.814 65.6118 28.3151 65.8671 28.6283 66.25C28.8788 66.5053 29.0041 66.8882 29.0041 67.7179V70.9089H30.2568V67.7817C30.2568 66.6967 30.0689 66.0585 29.6305 65.5479C29.0667 64.7821 28.1898 64.3354 27.3129 64.3354Z" fill="white"></path>
  <path d="M36.8336 65.0374C36.2699 64.5906 35.5809 64.3354 34.9546 64.3354C34.3908 64.3354 33.8271 64.463 33.4513 64.7183C32.5117 65.2927 31.8227 66.3776 31.8227 67.6541C31.8227 68.9305 32.4491 69.9516 33.3886 70.526C33.8271 70.7813 34.3908 70.9728 34.9546 70.9728C35.7062 70.9728 36.3952 70.7175 36.8963 70.2707V70.8451H38.0864V61.2719H36.8336V65.0374ZM36.8336 68.8667C36.3952 69.441 35.7688 69.7602 35.1425 69.7602C33.9524 69.7602 33.0755 68.8028 33.0755 67.6541C33.0755 66.5691 33.8897 65.5479 35.0798 65.5479C35.8315 65.5479 36.4578 65.9309 36.8336 66.4414V68.8667Z" fill="white"></path>
  <path d="M43.4105 64.3354C42.5336 64.3354 41.8446 64.7821 41.5314 65.1012V64.463H40.3413V70.8451H41.594V66.5053C41.9698 66.0585 42.5336 65.6118 43.4105 65.6118C43.9116 65.6118 44.4127 65.8671 44.7258 66.25C44.9764 66.5053 45.1017 66.8882 45.1017 67.7179V70.9089H46.3544V67.7817C46.3544 66.6967 46.1665 66.0585 45.728 65.5479C45.1643 64.7821 44.35 64.3354 43.4105 64.3354Z" fill="white"></path>
  <path d="M50.9268 64.3354C49.173 64.3354 47.9203 65.7394 47.9203 67.6541C47.9203 69.5687 49.2983 70.9728 51.1147 70.9728C52.3675 70.9728 53.307 70.3984 53.7455 69.7602L52.9312 68.9943C52.5554 69.3772 52.0543 69.8878 51.1147 69.8878C50.0499 69.8878 49.173 69.0581 49.1104 67.9732H53.9334C53.9334 67.8455 53.9334 67.7817 53.9334 67.7179C53.9334 65.8032 52.6807 64.3354 50.9268 64.3354ZM49.2357 66.8244C49.4236 65.9947 50.1752 65.4203 50.9895 65.4203C51.7411 65.4203 52.4301 65.9947 52.618 66.8244H49.2357Z" fill="white"></path>
  <path d="M57.8795 67.0158C57.2531 66.8244 56.752 66.6967 56.752 66.25C56.752 65.7394 57.2531 65.4841 57.8795 65.4841C58.3806 65.4841 58.819 65.6756 59.1949 65.9947L59.8212 65.1012C59.3201 64.7183 58.6938 64.3992 57.7542 64.3992C56.6268 64.3992 55.4367 65.0374 55.4367 66.3776C55.4367 67.2711 56.1257 67.7817 56.8773 68.037C57.8168 68.3561 58.819 68.4199 58.819 69.1219C58.819 69.6325 58.2553 69.8878 57.7542 69.8878C57.1278 69.8878 56.5015 69.6325 55.9378 69.1858L55.3114 70.1431C56.0004 70.7175 56.8147 71.0366 57.8168 71.0366C59.0069 71.0366 60.1344 70.2707 60.1344 69.1219C60.1344 67.7179 58.8817 67.2711 57.8795 67.0158Z" fill="white"></path>
  <path d="M64.2058 67.0158C63.5794 66.8244 63.0783 66.6967 63.0783 66.25C63.0783 65.7394 63.5794 65.4841 64.2058 65.4841C64.7069 65.4841 65.1453 65.6756 65.5211 65.9947L66.1475 65.1012C65.6464 64.7183 65.02 64.3992 64.0805 64.3992C62.953 64.3992 61.7629 65.0374 61.7629 66.3776C61.7629 67.2711 62.4519 67.7817 63.2036 68.037C64.1431 68.3561 65.1453 68.4199 65.1453 69.1219C65.1453 69.6325 64.5816 69.8878 64.0805 69.8878C63.4541 69.8878 62.8278 69.6325 62.264 69.1858L61.6377 70.1431C62.3267 70.7175 63.1409 71.0366 64.1431 71.0366C65.3332 71.0366 66.4607 70.2707 66.4607 69.1219C66.4607 67.7179 65.1453 67.2711 64.2058 67.0158Z" fill="white"></path>
  <path d="M69.7804 70.9728C70.2993 70.9728 70.72 70.5442 70.72 70.0154C70.72 69.4867 70.2993 69.0581 69.7804 69.0581C69.2615 69.0581 68.8409 69.4867 68.8409 70.0154C68.8409 70.5442 69.2615 70.9728 69.7804 70.9728Z" fill="white"></path>
  <path d="M76.1693 61.3996H74.854V70.8451H80.3033V69.5687H76.1693V61.3996Z" fill="white"></path>
  <path d="M84.3747 64.3354C82.5582 64.3354 81.1802 65.7394 81.1802 67.6541C81.1802 69.5687 82.5582 70.9728 84.3747 70.9728C86.1911 70.9728 87.5692 69.5687 87.5692 67.6541C87.5692 65.7394 86.1911 64.3354 84.3747 64.3354ZM84.3747 69.7602C83.2472 69.7602 82.433 68.8028 82.433 67.6541C82.433 66.5053 83.2472 65.5479 84.3747 65.5479C85.5022 65.5479 86.3164 66.5053 86.3164 67.6541C86.3164 68.8028 85.5022 69.7602 84.3747 69.7602Z" fill="white"></path>
  <path d="M95.8372 68.8028L94.146 64.463H93.2691L91.5152 68.8028L89.8241 64.463H88.5087L91.0768 70.8451H91.9537L93.7075 66.3776L95.4613 70.8451H96.3382L98.8437 64.463H97.5283L95.8372 68.8028Z" fill="white"></path>
  <path d="M105.984 68.4837L103.291 61.3996H101.913L105.546 70.8451H106.485L110.118 61.3996H108.74L105.984 68.4837Z" fill="white"></path>
  <path d="M112.248 61.3996C111.809 61.3996 111.434 61.7825 111.434 62.2292C111.434 62.676 111.809 63.0589 112.248 63.0589C112.686 63.0589 113.062 62.676 113.062 62.2292C113.062 61.7825 112.749 61.3996 112.248 61.3996Z" fill="white"></path>
  <path d="M112.874 64.463H111.622V70.8451H112.874V64.463Z" fill="white"></path>
  <path d="M117.384 67.0158C116.758 66.8244 116.257 66.6967 116.257 66.25C116.257 65.7394 116.758 65.4841 117.384 65.4841C117.885 65.4841 118.324 65.6756 118.699 65.9947L119.326 65.1012C118.825 64.7183 118.198 64.3992 117.259 64.3992C116.131 64.3992 114.941 65.0374 114.941 66.3776C114.941 67.2711 115.63 67.7817 116.382 68.037C117.321 68.3561 118.324 68.4199 118.324 69.1219C118.324 69.6325 117.76 69.8878 117.259 69.8878C116.632 69.8878 116.006 69.6325 115.442 69.1858L114.816 70.1431C115.505 70.7175 116.319 71.0366 117.321 71.0366C118.512 71.0366 119.639 70.2707 119.639 69.1219C119.639 67.7179 118.386 67.2711 117.384 67.0158Z" fill="white"></path>
  <path d="M122.332 61.3996C121.894 61.3996 121.518 61.7825 121.518 62.2292C121.518 62.676 121.894 63.0589 122.332 63.0589C122.771 63.0589 123.147 62.676 123.147 62.2292C123.147 61.7825 122.833 61.3996 122.332 61.3996Z" fill="white"></path>
  <path d="M122.959 64.463H121.706V70.8451H122.959V64.463Z" fill="white"></path>
  <path d="M128.032 64.3354C126.216 64.3354 124.838 65.7394 124.838 67.6541C124.838 69.5687 126.216 70.9728 128.032 70.9728C129.849 70.9728 131.227 69.5687 131.227 67.6541C131.227 65.7394 129.849 64.3354 128.032 64.3354ZM128.032 69.7602C126.905 69.7602 126.091 68.8028 126.091 67.6541C126.091 66.5053 126.905 65.5479 128.032 65.5479C129.16 65.5479 129.974 66.5053 129.974 67.6541C129.974 68.8028 129.16 69.7602 128.032 69.7602Z" fill="white"></path>
  <path d="M136.3 64.3354C135.423 64.3354 134.734 64.7821 134.421 65.1012V64.463H133.231V70.8451H134.484V66.5053C134.86 66.0585 135.423 65.6118 136.3 65.6118C136.801 65.6118 137.302 65.8671 137.616 66.25C137.866 66.5053 137.991 66.8882 137.991 67.7179V70.9089H139.244V67.7817C139.244 66.6967 139.056 66.0585 138.618 65.5479C138.054 64.7821 137.24 64.3354 136.3 64.3354Z" fill="white"></path>
  <path d="M142.877 70.9728C143.396 70.9728 143.817 70.5442 143.817 70.0154C143.817 69.4867 143.396 69.0581 142.877 69.0581C142.358 69.0581 141.938 69.4867 141.938 70.0154C141.938 70.5442 142.358 70.9728 142.877 70.9728Z" fill="white"></path>
  <path d="M150.957 61.2081C148.326 61.2081 146.322 63.3142 146.322 66.0585C146.322 68.8028 148.326 70.9089 150.957 70.9089C153.588 70.9089 155.592 68.8028 155.592 66.0585C155.592 63.3142 153.588 61.2081 150.957 61.2081ZM150.957 69.6963C149.078 69.6963 147.637 68.1646 147.637 66.1223C147.637 64.0801 149.078 62.5483 150.957 62.5483C152.836 62.5483 154.277 64.0801 154.277 66.1223C154.277 68.1646 152.836 69.6963 150.957 69.6963Z" fill="white"></path>
  <path d="M162.169 64.7183C161.731 64.463 161.23 64.3354 160.666 64.3354C159.977 64.3354 159.288 64.5268 158.724 65.0374V64.463H157.534V74.0362H158.787V70.2069C159.288 70.6537 159.914 70.9089 160.666 70.9089C161.23 70.9089 161.793 70.7175 162.232 70.4622C163.171 69.8878 163.798 68.8667 163.798 67.5902C163.735 66.3776 163.109 65.2927 162.169 64.7183ZM160.415 69.7602C159.789 69.7602 159.1 69.441 158.724 68.8667V66.5053C159.1 65.9947 159.726 65.6118 160.478 65.6118C161.668 65.6118 162.482 66.5691 162.482 67.7179C162.482 68.8028 161.668 69.7602 160.415 69.7602Z" fill="white"></path>
  <path d="M170.437 64.7183C169.999 64.463 169.498 64.3354 168.934 64.3354C168.245 64.3354 167.556 64.5268 166.992 65.0374V64.463H165.802V74.0362H167.055V70.2069C167.556 70.6537 168.182 70.9089 168.934 70.9089C169.498 70.9089 170.061 70.7175 170.5 70.4622C171.439 69.8878 172.066 68.8667 172.066 67.5902C172.066 66.3776 171.377 65.2927 170.437 64.7183ZM168.746 69.7602C168.12 69.7602 167.431 69.441 167.055 68.8667V66.5053C167.431 65.9947 168.057 65.6118 168.809 65.6118C169.999 65.6118 170.813 66.5691 170.813 67.7179C170.813 68.8028 169.936 69.7602 168.746 69.7602Z" fill="white"></path>
  <path d="M176.701 64.3354C174.884 64.3354 173.506 65.7394 173.506 67.6541C173.506 69.5687 174.884 70.9728 176.701 70.9728C178.517 70.9728 179.895 69.5687 179.895 67.6541C179.958 65.7394 178.58 64.3354 176.701 64.3354ZM176.701 69.7602C175.573 69.7602 174.759 68.8028 174.759 67.6541C174.759 66.5053 175.573 65.5479 176.701 65.5479C177.828 65.5479 178.643 66.5053 178.643 67.6541C178.705 68.8028 177.891 69.7602 176.701 69.7602Z" fill="white"></path>
  <path d="M183.152 65.2288V64.463H181.962V70.8451H183.215V66.6329C183.591 65.9947 184.28 65.5479 184.906 65.5479C185.094 65.5479 185.282 65.548 185.407 65.6118L185.533 64.3992C185.407 64.3992 185.157 64.3354 185.031 64.3354C184.092 64.3354 183.465 64.7821 183.152 65.2288Z" fill="white"></path>
  <path d="M189.541 62.7398H188.289V64.5268H186.723V65.6756H188.289V68.6114C188.289 69.3134 188.414 69.8878 188.79 70.2707C189.165 70.7175 189.792 71.0366 190.543 71.0366C190.919 71.0366 191.295 70.9728 191.546 70.9089L191.295 69.7602C191.107 69.824 190.794 69.824 190.606 69.824C190.293 69.824 189.917 69.6963 189.729 69.5049C189.541 69.3134 189.541 69.0581 189.541 68.6752V65.6756H191.546V64.463H189.541V62.7398Z" fill="white"></path>
  <path d="M197.997 68.8667C197.621 69.3134 196.995 69.7602 196.243 69.7602C195.742 69.7602 195.304 69.5687 195.053 69.1858C194.803 68.9305 194.677 68.5475 194.677 67.9093V64.463H193.425V67.7179C193.425 68.8028 193.613 69.3772 193.988 69.8878C194.49 70.526 195.304 70.9728 196.181 70.9728C197.058 70.9728 197.747 70.526 197.997 70.2707V70.8451H199.187V64.463H197.935V68.8667H197.997Z" fill="white"></path>
  <path d="M204.887 64.3354C204.01 64.3354 203.321 64.7821 203.008 65.1012V64.463H201.818V70.8451H203.071V66.5053C203.447 66.0585 204.01 65.6118 204.887 65.6118C205.388 65.6118 205.889 65.8671 206.203 66.25C206.453 66.5053 206.578 66.8882 206.578 67.7179V70.9089H207.831V67.7817C207.831 66.6967 207.643 66.0585 207.205 65.5479C206.578 64.7821 205.764 64.3354 204.887 64.3354Z" fill="white"></path>
  <path d="M210.775 61.3996C210.337 61.3996 209.961 61.7825 209.961 62.2292C209.961 62.676 210.337 63.0589 210.775 63.0589C211.213 63.0589 211.589 62.676 211.589 62.2292C211.589 61.7825 211.213 61.3996 210.775 61.3996Z" fill="white"></path>
  <path d="M211.401 64.463H210.149V70.8451H211.401V64.463Z" fill="white"></path>
  <path d="M215.786 62.7398H214.533V64.5268H212.967V65.6756H214.533V68.6114C214.533 69.3134 214.658 69.8878 215.034 70.2707C215.41 70.7175 216.036 71.0366 216.788 71.0366C217.164 71.0366 217.54 70.9728 217.79 70.9089L217.54 69.7602C217.352 69.824 217.039 69.824 216.851 69.824C216.538 69.824 216.162 69.6963 215.974 69.5049C215.786 69.3134 215.786 69.0581 215.786 68.6752V65.6756H217.79V64.463H215.786V62.7398Z" fill="white"></path>
  <path d="M222.3 68.6752L220.358 64.463H219.043L221.674 70.1431L219.983 74.1H221.361L225.432 64.463H224.117L222.3 68.6752Z" fill="white"></path>
  <path d="M227.06 70.9728C227.579 70.9728 228 70.5442 228 70.0154C228 69.4867 227.579 69.0581 227.06 69.0581C226.542 69.0581 226.121 69.4867 226.121 70.0154C226.121 70.5442 226.542 70.9728 227.06 70.9728Z" fill="white"></path>
</svg>
