<?xml version="1.0" encoding="UTF-8"?>
<svg xmlns="http://www.w3.org/2000/svg" viewBox="0 0 172.13 177.78">
  <defs>
    <style>.cls-1{fill:#fff;}</style>
  </defs>
  <title>Asset 3</title>
  <g id="Layer_2" data-name="Layer 2">
    <g id="Layer_1-2" data-name="Layer 1">
      <polygon class="cls-1" points="37.91 26.2 45.57 0 75.79 0 52.52 51.37 52.52 75.46 37.91 75.46 23.29 75.46 23.29 51.37 0.02 0 30.24 0 37.91 26.2"></polygon>
      <polygon class="cls-1" points="148.54 82.69 144.83 82.69 142.78 82.69 142 84.69 128.31 119.64 128.09 120.2 127.69 121.21 127.3 120.2 127.08 119.64 113.39 84.69 112.61 82.69 110.56 82.69 106.84 82.69 83.25 82.69 83.25 158.14 101.06 158.14 105.05 158.14 106.36 158.14 106.36 126.19 106.36 114.2 106.36 112.35 109.16 121.35 112.28 131.36 120.62 158.14 122.93 158.14 127.47 158.14 127.69 158.14 127.91 158.14 132.45 158.14 134.76 158.14 143.11 131.36 146.23 121.35 149.03 112.35 149.03 114.2 149.03 126.19 149.03 158.14 150.34 158.14 154.33 158.14 172.13 158.14 172.13 82.69 148.54 82.69"></polygon>
      <polygon class="cls-1" points="148.54 75.46 144.83 75.46 142.78 75.46 142 73.46 128.31 38.51 128.09 37.94 127.69 36.93 127.3 37.94 127.08 38.51 113.39 73.46 112.61 75.46 110.56 75.46 106.84 75.46 83.25 75.46 83.25 0 101.06 0 105.05 0 106.36 0 106.36 31.95 106.36 43.94 106.36 45.79 109.16 36.79 112.28 26.78 120.62 0 122.93 0 127.47 0 127.69 0 127.91 0 132.45 0 134.76 0 143.11 26.78 146.23 36.79 149.03 45.79 149.03 43.94 149.03 31.95 149.03 0 150.34 0 154.33 0 172.13 0 172.13 75.46 148.54 75.46"></polygon>
      <path class="cls-1" d="M59.32,104.69l-6.8-22H23.29L18.2,99.19a62.69,62.69,0,0,1,13.46-1.44C42.56,97.75,52.38,100.42,59.32,104.69Z"></path>
      <path class="cls-1" d="M66.64,128.43c-4.56,5.95-14,10.11-27.17,10.19,13.89-1.85,23.78-8.64,23.78-17.42,0-12.19-17-22.07-38-22.07a65.28,65.28,0,0,0-7.2.4l-5.82,18.85c3.54-2.34,8.72-3.82,14.51-3.82a31.65,31.65,0,0,1,8.31,1.07,33.46,33.46,0,0,0-5.07-.41c-10.66,0-19,5-19,11.21,0,4.47,4.27,8.53,18.31,11.76a39.4,39.4,0,0,1-16-4.22,11.65,11.65,0,0,1-4.62-4L0,158.14H25.77l2.33-11.76h3.5c1.66-8.86.3-18.93-5.2-18.93-.22,0-.41,0-.64,0a23.51,23.51,0,0,1,7.76-7.5c-.81,2.49.39,8.82,4.13,8.82s8.8-6.33,9.62-8.82a10.06,10.06,0,0,1,2.9,7.5c-.22,0-.43,0-.64,0-5.49,0-13.35,10.1-17.47,18.93H47.72c.84,4.24,2.32,11.76,2.32,11.76H75.81Zm-22.43-6.15a6.52,6.52,0,0,1-5.7,4.39c-2.4,0-3.67-2-2.89-4.39a6.58,6.58,0,0,1,5.75-4.42C43.76,117.86,45,119.84,44.21,122.28Z"></path>
      <polygon class="cls-1" points="31.16 148.43 31.16 148.42 31.16 148.43 31.16 148.43"></polygon>
      <path class="cls-1" d="M31.1,148.57a1.47,1.47,0,0,1,.06-.14S31.11,148.54,31.1,148.57Z"></path>
      <path class="cls-1" d="M83.25,167.73H86.4v1.51A2.89,2.89,0,0,1,87.58,168a3.61,3.61,0,0,1,1.83-.46,3.54,3.54,0,0,1,2.66,1,3.73,3.73,0,0,1,1,2.74v6.26H89.83V172a2.44,2.44,0,0,0-.4-1.54,1.44,1.44,0,0,0-1.22-.5,1.57,1.57,0,0,0-1.31.59,2.7,2.7,0,0,0-.46,1.71v5.23H83.25Z"></path>
      <path class="cls-1" d="M100.93,174.31h2.94a4,4,0,0,1-1.58,2.5,5.72,5.72,0,0,1-6.86-.48,5.51,5.51,0,0,1,0-7.42,5,5,0,0,1,3.7-1.4,4.56,4.56,0,0,1,3.49,1.37,5,5,0,0,1,1.29,3.58v.86H97.06a2.69,2.69,0,0,0,.67,1.61,1.88,1.88,0,0,0,1.43.55,2,2,0,0,0,1.12-.3A1.54,1.54,0,0,0,100.93,174.31Zm-1.81-4.57a1.89,1.89,0,0,0-1.32.47,2.54,2.54,0,0,0-.69,1.41H101a1.92,1.92,0,0,0-.5-1.36A1.73,1.73,0,0,0,99.12,169.74Z"></path>
      <path class="cls-1" d="M110.36,167.73h2.86l1.6,6.57h0l1.72-6.57h3.09l-3,9.77h-3.21l-1.64-6.33h0l-1.66,6.33h-3.2l-3-9.77H107l1.72,6.57h.06Z"></path>
      <path class="cls-1" d="M124.59,177.78a5.13,5.13,0,0,1-3.75-1.4,5.56,5.56,0,0,1,0-7.42,5.13,5.13,0,0,1,3.75-1.4,4.74,4.74,0,0,1,3.12,1,4.07,4.07,0,0,1,1.42,2.77h-3a1.77,1.77,0,0,0-.51-1.08,1.46,1.46,0,0,0-1.06-.39,1.63,1.63,0,0,0-1.42.74,3.69,3.69,0,0,0-.5,2.06,3.63,3.63,0,0,0,.5,2.05,1.62,1.62,0,0,0,1.42.73,1.46,1.46,0,0,0,1.06-.39,1.77,1.77,0,0,0,.51-1.07h3a4.09,4.09,0,0,1-1.42,2.77A4.69,4.69,0,0,1,124.59,177.78Z"></path>
      <path class="cls-1" d="M139.6,177.55h-3c0-.34-.06-.62-.07-.83s0-.41,0-.6a2.5,2.5,0,0,1-1.17,1.23,4.11,4.11,0,0,1-2,.43,3.7,3.7,0,0,1-2.48-.78,2.61,2.61,0,0,1-.91-2.1,2.55,2.55,0,0,1,.89-2.06,5.16,5.16,0,0,1,2.73-.93l2.75-.27v-.4a1.41,1.41,0,0,0-.38-1,1.5,1.5,0,0,0-1.09-.37,1.48,1.48,0,0,0-1,.33,1.24,1.24,0,0,0-.42.91h-3a3.5,3.5,0,0,1,1.37-2.59,5.24,5.24,0,0,1,3.22-.92,4.82,4.82,0,0,1,3.34,1,3.88,3.88,0,0,1,1.13,3v3.17c0,.58,0,1.09,0,1.51S139.53,177.13,139.6,177.55Zm-6.51-2.86a.94.94,0,0,0,.33.77,1.28,1.28,0,0,0,.89.28,2,2,0,0,0,1.44-.51,1.77,1.77,0,0,0,.57-1.38v-.47l-1.76.21a2.34,2.34,0,0,0-1.13.35A.87.87,0,0,0,133.09,174.69Z"></path>
      <path class="cls-1" d="M145.25,177.78a6.06,6.06,0,0,1-3.42-.85,3.18,3.18,0,0,1-1.45-2.41h3a1.18,1.18,0,0,0,.57.87,2.31,2.31,0,0,0,1.26.31,2.09,2.09,0,0,0,1.07-.24.72.72,0,0,0,.4-.65.59.59,0,0,0-.28-.53,3.27,3.27,0,0,0-1.08-.33l-1.73-.29a3.91,3.91,0,0,1-2.18-.95,2.52,2.52,0,0,1-.7-1.87,2.84,2.84,0,0,1,1.21-2.37,4.94,4.94,0,0,1,3.06-.91,5.37,5.37,0,0,1,3.15.83,3.14,3.14,0,0,1,1.33,2.32h-2.82a1.17,1.17,0,0,0-.52-.8,2,2,0,0,0-1.1-.29,1.75,1.75,0,0,0-1,.24.73.73,0,0,0-.38.64.58.58,0,0,0,.27.52,3,3,0,0,0,1,.32l1.89.32a3.57,3.57,0,0,1,2.09.94,2.69,2.69,0,0,1,.71,1.94,2.78,2.78,0,0,1-1.23,2.35A5.26,5.26,0,0,1,145.25,177.78Z"></path>
      <path class="cls-1" d="M155.83,175.17a6,6,0,0,0,.62,0,4.71,4.71,0,0,0,.58-.1v2.36a9.52,9.52,0,0,1-1.09.24,8.87,8.87,0,0,1-1.07.07,3.67,3.67,0,0,1-2.51-.72,2.84,2.84,0,0,1-.81-2.24V170h-1.29v-2.23h1.29v-2.42h3.15v2.42h2.12V170h-2.14v4.08a1.1,1.1,0,0,0,.26.82A1.25,1.25,0,0,0,155.83,175.17Z"></path>
      <path class="cls-1" d="M161.27,165.37v12.18h-3.18V165.37Z"></path>
      <path class="cls-1" d="M169.16,174.37h2.94a4,4,0,0,1-1.58,2.5,5.74,5.74,0,0,1-6.86-.49,5.51,5.51,0,0,1,0-7.42,5.06,5.06,0,0,1,3.7-1.4,4.6,4.6,0,0,1,3.49,1.37,5,5,0,0,1,1.29,3.59v.86h-6.84A2.75,2.75,0,0,0,166,175a1.94,1.94,0,0,0,1.43.54,2.11,2.11,0,0,0,1.13-.29A1.66,1.66,0,0,0,169.16,174.37Zm-1.81-4.58a1.85,1.85,0,0,0-1.32.48,2.54,2.54,0,0,0-.69,1.41h3.84a1.88,1.88,0,0,0-.5-1.36A1.74,1.74,0,0,0,167.35,169.79Z"></path>
      <rect class="cls-1" x="0.02" y="172.17" width="75.79" height="1"></rect>
    </g>
  </g>
</svg>
