<?xml version="1.0" encoding="UTF-8"?>
<!-- Generator: Adobe Illustrator 27.8.0, SVG Export Plug-In . SVG Version: 6.00 Build 0)  -->
<svg xmlns="http://www.w3.org/2000/svg" xmlns:xlink="http://www.w3.org/1999/xlink" version="1.1" id="Layer_1" x="0px" y="0px" viewBox="0 0 172.1 177.8" style="enable-background:new 0 0 172.1 177.8;" xml:space="preserve">
<g id="Layer_2_00000067930650765504981350000002955244728565723028_">
	<g id="Layer_1-2">
		<polygon points="37.9,26.2 45.6,0 75.8,0 52.5,51.4 52.5,75.5 37.9,75.5 23.3,75.5 23.3,51.4 0,0 30.2,0   "></polygon>
		<polygon points="148.5,82.7 144.8,82.7 142.8,82.7 142,84.7 128.3,119.6 128.1,120.2 127.7,121.2 127.3,120.2 127.1,119.6     113.4,84.7 112.6,82.7 110.6,82.7 106.8,82.7 83.2,82.7 83.2,158.1 101.1,158.1 105.1,158.1 106.4,158.1 106.4,126.2 106.4,114.2     106.4,112.3 109.2,121.3 112.3,131.4 120.6,158.1 122.9,158.1 127.5,158.1 127.7,158.1 127.9,158.1 132.4,158.1 134.8,158.1     143.1,131.4 146.2,121.3 149,112.3 149,114.2 149,126.2 149,158.1 150.3,158.1 154.3,158.1 172.1,158.1 172.1,82.7   "></polygon>
		<polygon points="148.5,75.5 144.8,75.5 142.8,75.5 142,73.5 128.3,38.5 128.1,37.9 127.7,36.9 127.3,37.9 127.1,38.5 113.4,73.5     112.6,75.5 110.6,75.5 106.8,75.5 83.2,75.5 83.2,0 101.1,0 105.1,0 106.4,0 106.4,32 106.4,43.9 106.4,45.8 109.2,36.8     112.3,26.8 120.6,0 122.9,0 127.5,0 127.7,0 127.9,0 132.4,0 134.8,0 143.1,26.8 146.2,36.8 149,45.8 149,43.9 149,32 149,0     150.3,0 154.3,0 172.1,0 172.1,75.5   "></polygon>
		<path d="M59.3,104.7l-6.8-22H23.3l-5.1,16.5c4.4-1,8.9-1.4,13.5-1.4C42.6,97.8,52.4,100.4,59.3,104.7z"></path>
		<path d="M66.6,128.4c-4.6,5.9-14,10.1-27.2,10.2c13.9-1.9,23.8-8.6,23.8-17.4c0-12.2-17-22.1-38-22.1c-2.4,0-4.8,0.1-7.2,0.4    l-5.8,18.8c3.5-2.3,8.7-3.8,14.5-3.8c2.8,0,5.6,0.3,8.3,1.1c-1.7-0.3-3.4-0.4-5.1-0.4c-10.7,0-19,5-19,11.2    c0,4.5,4.3,8.5,18.3,11.8c-5.6-0.3-11-1.7-16-4.2c-1.9-0.9-3.5-2.3-4.6-4L0,158.1h25.8l2.3-11.8h3.5c1.7-8.9,0.3-18.9-5.2-18.9    c-0.2,0-0.4,0-0.6,0c2-3.1,4.6-5.6,7.8-7.5c-0.8,2.5,0.4,8.8,4.1,8.8s8.8-6.3,9.6-8.8c2,2,3,4.7,2.9,7.5c-0.2,0-0.4,0-0.6,0    c-5.5,0-13.3,10.1-17.5,18.9h15.7c0.8,4.2,2.3,11.8,2.3,11.8h25.8L66.6,128.4z M44.2,122.3c-0.8,2.5-3.1,4.2-5.7,4.4    c-2.4,0-3.7-2-2.9-4.4c0.9-2.5,3.1-4.2,5.8-4.4C43.8,117.9,45,119.8,44.2,122.3z"></path>
		<polygon points="31.2,148.4 31.2,148.4 31.2,148.4   "></polygon>
		<path d="M31.1,148.6c0,0,0-0.1,0.1-0.1C31.2,148.4,31.1,148.5,31.1,148.6z"></path>
		<path d="M83.2,167.7h3.2v1.5c0.3-0.5,0.7-1,1.2-1.2c0.6-0.3,1.2-0.5,1.8-0.5c1-0.1,2,0.3,2.7,1c0.7,0.7,1.1,1.7,1,2.7v6.3h-3.2    V172c0-0.5-0.1-1.1-0.4-1.5c-0.3-0.4-0.8-0.5-1.2-0.5c-0.5,0-1,0.2-1.3,0.6c-0.3,0.5-0.5,1.1-0.5,1.7v5.2h-3.2V167.7z"></path>
		<path d="M100.9,174.3h2.9c-0.2,1-0.8,1.9-1.6,2.5c-2.1,1.4-4.9,1.2-6.9-0.5c-1.9-2.1-1.9-5.3,0-7.4c1-1,2.3-1.5,3.7-1.4    c1.3-0.1,2.6,0.4,3.5,1.4c0.9,1,1.3,2.3,1.3,3.6v0.9h-6.8c0,0.6,0.3,1.2,0.7,1.6c0.4,0.4,0.9,0.6,1.4,0.6c0.4,0,0.8-0.1,1.1-0.3    C100.6,175,100.8,174.7,100.9,174.3z M99.1,169.7c-0.5,0-1,0.1-1.3,0.5c-0.4,0.4-0.6,0.9-0.7,1.4h3.9c0-0.5-0.2-1-0.5-1.4    C100.1,169.9,99.6,169.7,99.1,169.7L99.1,169.7z"></path>
		<path d="M110.4,167.7h2.9l1.6,6.6l0,0l1.7-6.6h3.1l-3,9.8h-3.2l-1.6-6.3l0,0l-1.7,6.3h-3.2l-3-9.8h3.1l1.7,6.6h0.1L110.4,167.7z"></path>
		<path d="M124.6,177.8c-1.4,0.1-2.7-0.4-3.8-1.4c-1.9-2.1-1.9-5.3,0-7.4c1-1,2.4-1.5,3.8-1.4c1.1,0,2.2,0.3,3.1,1    c0.8,0.7,1.3,1.7,1.4,2.8h-3c0-0.4-0.2-0.8-0.5-1.1c-0.3-0.3-0.7-0.4-1.1-0.4c-0.6,0-1.1,0.3-1.4,0.7c-0.4,0.6-0.5,1.3-0.5,2.1    c0,0.7,0.1,1.4,0.5,2.1c0.3,0.5,0.9,0.8,1.4,0.7c0.4,0,0.8-0.1,1.1-0.4c0.3-0.3,0.5-0.7,0.5-1.1h3c-0.1,1.1-0.6,2.1-1.4,2.8    C126.8,177.5,125.7,177.8,124.6,177.8z"></path>
		<path d="M139.6,177.6h-3c0-0.3-0.1-0.6-0.1-0.8s0-0.4,0-0.6c-0.2,0.5-0.6,1-1.2,1.2c-0.6,0.3-1.3,0.5-2,0.4    c-0.9,0-1.8-0.2-2.5-0.8c-0.6-0.5-0.9-1.3-0.9-2.1c0-0.8,0.3-1.5,0.9-2.1c0.8-0.6,1.8-0.9,2.7-0.9l2.8-0.3v-0.4    c0-0.4-0.1-0.7-0.4-1c-0.3-0.3-0.7-0.4-1.1-0.4c-0.4,0-0.7,0.1-1,0.3c-0.3,0.2-0.4,0.6-0.4,0.9h-3c0.1-1,0.6-2,1.4-2.6    c0.9-0.7,2.1-1,3.2-0.9c1.2-0.1,2.4,0.3,3.3,1c0.8,0.8,1.2,1.9,1.1,3v3.2c0,0.6,0,1.1,0,1.5S139.5,177.1,139.6,177.6z     M133.1,174.7c0,0.3,0.1,0.6,0.3,0.8c0.3,0.2,0.6,0.3,0.9,0.3c0.5,0,1-0.2,1.4-0.5c0.4-0.4,0.6-0.9,0.6-1.4v-0.5l-1.8,0.2    c-0.4,0-0.8,0.1-1.1,0.4C133.2,174.1,133.1,174.4,133.1,174.7L133.1,174.7z"></path>
		<path d="M145.2,177.8c-1.2,0.1-2.4-0.2-3.4-0.9c-0.8-0.5-1.4-1.4-1.4-2.4h3c0,0.4,0.3,0.7,0.6,0.9c0.4,0.2,0.8,0.3,1.3,0.3    c0.4,0,0.7-0.1,1.1-0.2c0.2-0.1,0.4-0.4,0.4-0.6c0-0.2-0.1-0.4-0.3-0.5c-0.3-0.2-0.7-0.3-1.1-0.3l-1.7-0.3    c-0.8-0.1-1.6-0.4-2.2-0.9c-0.5-0.5-0.7-1.2-0.7-1.9c0-0.9,0.4-1.8,1.2-2.4c0.9-0.6,2-1,3.1-0.9c1.1-0.1,2.2,0.2,3.1,0.8    c0.8,0.5,1.3,1.4,1.3,2.3h-2.8c-0.1-0.3-0.2-0.6-0.5-0.8c-0.3-0.2-0.7-0.3-1.1-0.3c-0.3,0-0.7,0.1-1,0.2c-0.2,0.1-0.4,0.4-0.4,0.6    c0,0.2,0.1,0.4,0.3,0.5c0.3,0.2,0.7,0.3,1,0.3l1.9,0.3c0.8,0.1,1.5,0.4,2.1,0.9c0.5,0.5,0.7,1.2,0.7,1.9c0,0.9-0.4,1.8-1.2,2.4    C147.4,177.5,146.4,177.8,145.2,177.8z"></path>
		<path d="M155.8,175.2c0.2,0,0.4,0,0.6,0c0.2,0,0.4-0.1,0.6-0.1v2.4c-0.4,0.1-0.7,0.2-1.1,0.2c-0.4,0-0.7,0.1-1.1,0.1    c-0.9,0.1-1.8-0.2-2.5-0.7c-0.6-0.6-0.9-1.4-0.8-2.2V170h-1.3v-2.2h1.3v-2.4h3.1v2.4h2.1v2.2h-2.1v4.1c0,0.3,0.1,0.6,0.3,0.8    C155.2,175.1,155.5,175.2,155.8,175.2z"></path>
		<path d="M161.3,165.4v12.2h-3.2v-12.2H161.3z"></path>
		<path d="M169.2,174.4h2.9c-0.2,1-0.8,1.9-1.6,2.5c-2.1,1.4-4.9,1.2-6.9-0.5c-1.9-2.1-1.9-5.3,0-7.4c1-0.9,2.3-1.5,3.7-1.4    c1.3-0.1,2.6,0.4,3.5,1.4c0.9,1,1.4,2.3,1.3,3.6v0.9h-6.8c0,0.6,0.3,1.2,0.7,1.6c0.4,0.4,0.9,0.6,1.4,0.5c0.4,0,0.8-0.1,1.1-0.3    C168.9,175,169.1,174.7,169.2,174.4z M167.4,169.8c-0.5,0-1,0.2-1.3,0.5c-0.4,0.4-0.6,0.9-0.7,1.4h3.8c0-0.5-0.2-1-0.5-1.4    C168.3,170,167.8,169.8,167.4,169.8z"></path>
		<rect x="0" y="172.2" width="75.8" height="1"></rect>
	</g>
</g>
</svg>
